<svg xmlns="http://www.w3.org/2000/svg" width="32" height="32" viewBox="0 0 32 32">
    <defs>
        <filter id="czwgs8h3za" color-interpolation-filters="auto">
            <feColorMatrix in="SourceGraphic" values="0 0 0 0 0.725490 0 0 0 0 0.725490 0 0 0 0 0.996078 0 0 0 1.000000 0"/>
        </filter>
    </defs>
    <g fill="none" fill-rule="evenodd">
        <g>
            <g filter="url(#czwgs8h3za)" transform="translate(-1186 -2691) translate(1186 2691)">
                <g>
                    <path fill="#000" d="M23.637 22.64s-.987-1.17-1.81-2.177c3.592-1.007 4.963-3.211 4.963-3.211-1.124.734-2.194 1.251-3.153 1.605-1.371.572-2.688.925-3.976 1.17-2.633.49-5.046.354-7.102-.027-1.563-.3-2.907-.707-4.031-1.17-.63-.245-1.316-.544-2.002-.925-.082-.055-.164-.082-.247-.136-.054-.027-.082-.055-.11-.055-.493-.272-.767-.462-.767-.462s1.316 2.15 4.799 3.183c-.823 1.034-1.838 2.232-1.838 2.232-6.06-.19-8.363-4.11-8.363-4.11C0 9.878 3.949 2.83 3.949 2.83 7.897-.08 11.626 0 11.626 0l.275.327C6.965 1.714 4.716 3.864 4.716 3.864s.604-.326 1.618-.762C9.268 1.823 11.6 1.497 12.56 1.388c.164-.027.301-.054.466-.054 1.673-.218 3.565-.273 5.539-.055 2.605.3 5.402 1.061 8.253 2.585 0 0-2.166-2.04-6.827-3.428L20.374 0S24.13-.08 28.05 2.83c0 0 3.949 7.048 3.949 15.728 0-.027-2.303 3.891-8.363 4.081zM21.2 11.008c-1.489 0-2.664 1.252-2.664 2.81s1.201 2.81 2.664 2.81c1.489 0 2.664-1.252 2.664-2.81s-1.201-2.81-2.664-2.81zm-9.533 0c-1.489 0-2.664 1.252-2.664 2.81s1.201 2.81 2.664 2.81c1.489 0 2.664-1.252 2.664-2.81.026-1.558-1.175-2.81-2.664-2.81z" transform="translate(0 5.333)"/>
                </g>
            </g>
        </g>
    </g>
</svg>
