<svg xmlns="http://www.w3.org/2000/svg" width="474" height="396" viewBox="0 0 474 396">
    <g fill="none" fill-rule="evenodd">
        <g fill="#D8D8D8">
            <path d="M310.074 1217.615c-68.84.136-145.55 40.589-209.736 145.627-29.567 48.389-41.984 94.48-42.065 133.644v.778c.096 46.631 17.72 83.345 44.68 102.26 54.379 38.149 107.898-6.803 147.183-13.207 22.763-3.712 46.052-1.35 69.247 1.009 40.043 4.075 79.805 8.15 116.103-19.026 36.963-27.672 63.134-88.466 63.26-152.257v-.927c-.034-17.453-2.022-35.122-6.276-52.382-19.775-80.269-94.33-145.368-181.724-145.52h-.672z" transform="translate(-23 -1238) rotate(38 278.51 1416.364)"/>
        </g>
    </g>
</svg>
