<svg xmlns="http://www.w3.org/2000/svg" width="48" height="48" viewBox="0 0 48 48">
    <g fill="none" fill-rule="evenodd">
        <g fill="#FFF">
            <g>
                <path d="M24 0c13.255 0 24 10.745 24 24S37.255 48 24 48 0 37.255 0 24 10.745 0 24 0zm-6.85 10.003c-.321-.029-.517.147-.706.383-.14.175-.263.36-.382.55-.042.074-.087.148-.124.222-.028.05-.057.103-.08.156-.033.056-.06.114-.083.172-.015.024-.026.05-.034.077-.03.063-.058.127-.08.193-.018.047-.036.097-.06.148-.055.164-.105.33-.147.502-.019.069-.034.137-.05.206-.014.069-.021.138-.035.21-.005.039-.015.078-.018.118-.003.032-.013.06-.013.09-.005.06-.016.124-.018.185-.006.063-.01.13-.01.193-.01.09-.011.18-.011.27 0 2.921 2.357 5.287 5.269 5.287h4.465c.208 0 .415-.05.6-.145.09-.046.174-.102.251-.167.073-.06.129-.138.192-.203.269-.275.646-.447 1.062-.447.82 0 1.486.666 1.486 1.49 0 .826-.667 1.492-1.486 1.492-.246 0-.49-.062-.708-.18-.106-.057-.204-.127-.293-.209-.089-.08-.157-.18-.248-.257-.077-.065-.16-.122-.25-.168-.187-.097-.396-.148-.606-.148h-4.465c-.612 0-1.202.105-1.753.301-1.014.357-1.889 1.02-2.51 1.88-.63.872-1.006 1.945-1.006 3.106v11.786c0 .962.603.986 1.538.835.598-.119 1.17-.304 1.71-.55.743-.336 1.422-.864 2.02-1.404 1.618-1.451 2.635-3.56 2.635-5.908 0-.061 0-.122-.003-.18.001 0 .002-.11.002-.26v-.378l.001-.128v-.376c0-.73.593-1.322 1.317-1.322h3.425c.134 0 .274-.003.406-.01.105-.006.205-.014.308-.022.01-.002.024-.002.032-.002l.195-.024c.092-.008.179-.021.263-.035.13-.018.26-.042.388-.068.255-.053.51-.117.758-.196.098-.032.192-.063.29-.1l.047-.016c.032-.008.06-.019.085-.032.1-.037.203-.077.297-.116.006 0 .01-.003.01-.006l.014-.005c.098-.042.195-.084.285-.13.015-.005.026-.013.037-.018.01-.003.023-.005.028-.013.095-.045.185-.09.277-.14.029-.013.056-.027.084-.045.098-.056.198-.111.293-.172.105-.066.216-.135.319-.206.095-.061.184-.127.276-.193.024-.016.05-.035.074-.058.068-.05.132-.103.2-.156.037-.024.072-.053.106-.085.079-.069.158-.137.231-.209.003.003.01 0 .014-.008.084-.076.166-.156.247-.238l.03-.029c.092-.092.173-.18.252-.267.087-.095.169-.19.25-.288.08-.098.161-.198.238-.299.218-.288.413-.595.584-.914.009-.008.01-.016.016-.024l.048-.09c.05-.093.097-.185.142-.28.003-.003.005-.006.005-.008.05-.111.103-.228.15-.344.05-.116.098-.235.143-.354.002-.003.002-.005.002-.008.045-.12.085-.243.121-.365.08-.248.145-.502.195-.761.003-.014.006-.024.006-.035.026-.116.044-.235.063-.354.019-.122.034-.243.047-.365.008-.037.014-.076.014-.113l.002-.03.016-.171v-1.058l-.016-.172-.002-.029c0-.037-.006-.076-.014-.114-.013-.121-.028-.243-.047-.364-.019-.12-.037-.238-.063-.355 0-.01-.003-.02-.006-.031-.05-.262-.116-.516-.195-.764-.036-.122-.076-.246-.12-.365 0-.003 0-.005-.003-.008-.045-.12-.093-.238-.143-.354-.047-.117-.1-.233-.15-.344 0-.003-.002-.005-.005-.008-.045-.095-.092-.188-.142-.28l-.048-.09c-.005-.008-.007-.016-.016-.024-.17-.32-.366-.626-.584-.915-.077-.1-.159-.2-.238-.298-.081-.098-.163-.193-.25-.289-.079-.087-.16-.174-.247-.259-.003-.005-.006-.01-.014-.015-.002-.006-.013-.014-.018-.016-.084-.088-.166-.167-.25-.244-.003-.008-.011-.01-.014-.008-.073-.07-.152-.14-.231-.208-.034-.032-.069-.061-.106-.085-.068-.053-.132-.106-.2-.156-.023-.024-.05-.042-.074-.058-.092-.066-.181-.132-.276-.193-.103-.071-.214-.14-.32-.206-.094-.061-.194-.117-.292-.172l-.042-.025-.042-.02c-.092-.05-.182-.095-.277-.14-.005-.008-.018-.01-.028-.013-.011-.006-.022-.014-.037-.019-.09-.045-.187-.087-.285-.13-.008-.002-.01-.002-.013-.005 0-.002-.005-.005-.01-.005-.095-.04-.198-.08-.298-.116-.024-.014-.053-.024-.085-.032l-.047-.016c-.098-.037-.192-.069-.29-.1-.248-.08-.503-.143-.758-.196-.127-.026-.259-.05-.388-.069-.084-.013-.171-.026-.258-.034l-.2-.024c-.008 0-.021 0-.032-.003-.103-.008-.203-.015-.308-.02-.132-.009-.272-.011-.406-.011h-7.448l-.07-.003c-.314-.012-.626-.06-.927-.145-.456-.129-.888-.34-1.27-.621-.189-.14-.364-.295-.526-.465-.159-.166-.312-.304-.553-.326z" transform="translate(-80 -2684) translate(80 2684)"/>
            </g>
        </g>
    </g>
</svg>
