<svg xmlns="http://www.w3.org/2000/svg" xmlns:xlink="http://www.w3.org/1999/xlink" width="224" height="246" viewBox="0 0 224 246">
    <defs>
        <filter id="0b7zqs4yna" width="130%" height="125.2%" x="-17.6%" y="-12.6%" filterUnits="objectBoundingBox">
            <feMorphology in="SourceAlpha" radius="2" result="shadowSpreadOuter1"/>
            <feOffset dx="-5" in="shadowSpreadOuter1" result="shadowOffsetOuter1"/>
            <feGaussianBlur in="shadowOffsetOuter1" result="shadowBlurOuter1" stdDeviation="10"/>
            <feColorMatrix in="shadowBlurOuter1" result="shadowMatrixOuter1" values="0 0 0 0 0 0 0 0 0 0 0 0 0 0 0 0 0 0 0.06 0"/>
            <feMorphology in="SourceAlpha" radius="1" result="shadowSpreadOuter2"/>
            <feOffset dx="-3" dy="2" in="shadowSpreadOuter2" result="shadowOffsetOuter2"/>
            <feGaussianBlur in="shadowOffsetOuter2" result="shadowBlurOuter2" stdDeviation="4"/>
            <feColorMatrix in="shadowBlurOuter2" result="shadowMatrixOuter2" values="0 0 0 0 0 0 0 0 0 0 0 0 0 0 0 0 0 0 0.04 0"/>
            <feMerge>
                <feMergeNode in="shadowMatrixOuter1"/>
                <feMergeNode in="shadowMatrixOuter2"/>
            </feMerge>
        </filter>
        <filter id="qte6kqr04c" width="122.1%" height="118.6%" x="-13.7%" y="-9.3%" filterUnits="objectBoundingBox">
            <feGaussianBlur in="SourceAlpha" result="shadowBlurInner1" stdDeviation="2"/>
            <feOffset dx="-2" in="shadowBlurInner1" result="shadowOffsetInner1"/>
            <feComposite in="shadowOffsetInner1" in2="SourceAlpha" k2="-1" k3="1" operator="arithmetic" result="shadowInnerInner1"/>
            <feColorMatrix in="shadowInnerInner1" values="0 0 0 0 1 0 0 0 0 1 0 0 0 0 1 0 0 0 1 0"/>
        </filter>
        <path id="kygd01iigb" d="M419.526 2425.308c-11.146 35.963-4.12 77.908 20.704 106.074 12.413 14.081 29.277 24.08 47.355 28.756 18.079 4.678 37.372 4.04 54.644-3.15 39.324-16.368 60.84-61.44 62.1-104.312.22-7.459-.085-15.065-2.493-22.122-6.115-17.924-24.01-28.464-36.375-42.74-11.153-12.88-18.115-29.317-30.768-40.697-21.143-19.02-47.152-8.448-69.268 11.364-22.114 19.813-40.334 48.87-45.9 66.827"/>
    </defs>
    <g fill="none" fill-rule="evenodd">
        <g>
            <g transform="translate(-398 -2332) scale(-1 1) rotate(-28 0 4493.17)">
                <use fill="#000" filter="url(#0b7zqs4yna)" xlink:href="#kygd01iigb"/>
                <use fill="#FAFAFA" xlink:href="#kygd01iigb"/>
                <use fill="#000" filter="url(#qte6kqr04c)" xlink:href="#kygd01iigb"/>
            </g>
        </g>
    </g>
</svg>
