<svg xmlns="http://www.w3.org/2000/svg" xmlns:xlink="http://www.w3.org/1999/xlink" width="886" height="946" viewBox="0 0 886 946">
    <defs>
        <filter id="9j9mj9290a" width="113.2%" height="111.2%" x="-7.6%" y="-5.6%" filterUnits="objectBoundingBox">
            <feMorphology in="SourceAlpha" radius="2" result="shadowSpreadOuter1"/>
            <feOffset dx="-8" in="shadowSpreadOuter1" result="shadowOffsetOuter1"/>
            <feGaussianBlur in="shadowOffsetOuter1" result="shadowBlurOuter1" stdDeviation="16"/>
            <feColorMatrix in="shadowBlurOuter1" result="shadowMatrixOuter1" values="0 0 0 0 0 0 0 0 0 0 0 0 0 0 0 0 0 0 0.08 0"/>
            <feOffset dx="-4" dy="2" in="SourceAlpha" result="shadowOffsetOuter2"/>
            <feGaussianBlur in="shadowOffsetOuter2" result="shadowBlurOuter2" stdDeviation="4"/>
            <feColorMatrix in="shadowBlurOuter2" result="shadowMatrixOuter2" values="0 0 0 0 0 0 0 0 0 0 0 0 0 0 0 0 0 0 0.0417224377 0"/>
            <feMerge>
                <feMergeNode in="shadowMatrixOuter1"/>
                <feMergeNode in="shadowMatrixOuter2"/>
            </feMerge>
        </filter>
        <filter id="wbc68ak04c" width="110.5%" height="109%" x="-6.3%" y="-4.5%" filterUnits="objectBoundingBox">
            <feGaussianBlur in="SourceAlpha" result="shadowBlurInner1" stdDeviation="6"/>
            <feOffset dx="-4" in="shadowBlurInner1" result="shadowOffsetInner1"/>
            <feComposite in="shadowOffsetInner1" in2="SourceAlpha" k2="-1" k3="1" operator="arithmetic" result="shadowInnerInner1"/>
            <feColorMatrix in="shadowInnerInner1" values="0 0 0 0 1 0 0 0 0 1 0 0 0 0 1 0 0 0 1 0"/>
        </filter>
        <path id="424krfkfbb" d="M492.654 1973.326c81.499-72.126 190.453-117.87 298.637-129.373 96.956-10.31 202.387-1.217 286.29 44.953 15.79 8.69 30.591 19.679 39.356 36.007 1.866 3.458 3.353 7.051 4.491 10.741 8.833 28.795-3.105 63.484-22.575 86.38-21.987 25.916-51.111 41.594-78.043 60.754-13.826 9.854-27.396 20.89-39.531 33.545-8.7 9.126-16.406 19.03-22.688 29.918-.873 1.512-1.712 3.045-2.527 4.595-15.005 28.583-19.53 64.413-6.976 94.897 17.044 41.392 27.733 70.778 18.186 116.305-5.037 24.022-5.197 48.064 8.594 68.873 11.17 16.893 29.8 26.559 45.986 38.235 5.013 3.617 9.788 7.463 14.132 11.697 31.933 30.933 37.37 82.312 24.406 126.858-2.114 7.243-4.73 14.321-7.802 21.067-8.288 18.23-20.07 34.38-34.49 47.38-20.373 18.369-45.607 29.628-72.812 36.957-12.493 3.352-25.258 6.068-37.805 8.547-42.22 8.378-85.191 15.683-127.552 8.619-42.69-7.235-85.222-31.912-103.072-71.862-4.417-9.884-7.247-20.448-10.197-30.91-2.538-8.99-5.167-17.879-9.096-26.161-16.302-34.36-47.684-49.244-80.47-67.086-6.952-3.781-13.927-7.645-20.74-11.776-39.048-23.497-73.087-58.084-102.85-94.381-2.15-2.62-4.279-5.255-6.388-7.893-40.775-51.016-77.148-110.042-81.911-175.118-1.897-25.907-.568-51.58 4.7-76.646 6.286-29.985 17.54-59.054 32.605-86.363 22.592-41.146 54.992-77.65 90.142-108.76"/>
    </defs>
    <g fill="none" fill-rule="evenodd">
        <g>
            <g transform="translate(-291 -1755) scale(-1 1) rotate(-28 0 5272.203)">
                <use fill="#000" filter="url(#9j9mj9290a)" xlink:href="#424krfkfbb"/>
                <use fill="#FAFAFA" xlink:href="#424krfkfbb"/>
                <use fill="#000" filter="url(#wbc68ak04c)" xlink:href="#424krfkfbb"/>
            </g>
        </g>
    </g>
</svg>
