<svg xmlns="http://www.w3.org/2000/svg" xmlns:xlink="http://www.w3.org/1999/xlink" width="155" height="166" viewBox="0 0 155 166">
    <defs>
        <filter id="vu8mov10wa" width="147.1%" height="140.1%" x="-27.7%" y="-20.1%" filterUnits="objectBoundingBox">
            <feMorphology in="SourceAlpha" radius="2" result="shadowSpreadOuter1"/>
            <feOffset dx="-5" in="shadowSpreadOuter1" result="shadowOffsetOuter1"/>
            <feGaussianBlur in="shadowOffsetOuter1" result="shadowBlurOuter1" stdDeviation="10"/>
            <feColorMatrix in="shadowBlurOuter1" result="shadowMatrixOuter1" values="0 0 0 0 0 0 0 0 0 0 0 0 0 0 0 0 0 0 0.06 0"/>
            <feMorphology in="SourceAlpha" radius="1" result="shadowSpreadOuter2"/>
            <feOffset dx="-3" dy="2" in="shadowSpreadOuter2" result="shadowOffsetOuter2"/>
            <feGaussianBlur in="shadowOffsetOuter2" result="shadowBlurOuter2" stdDeviation="4"/>
            <feColorMatrix in="shadowBlurOuter2" result="shadowMatrixOuter2" values="0 0 0 0 0 0 0 0 0 0 0 0 0 0 0 0 0 0 0.04 0"/>
            <feMerge>
                <feMergeNode in="shadowMatrixOuter1"/>
                <feMergeNode in="shadowMatrixOuter2"/>
            </feMerge>
        </filter>
        <filter id="rufawr83uc" width="134.7%" height="129.6%" x="-21.5%" y="-14.8%" filterUnits="objectBoundingBox">
            <feGaussianBlur in="SourceAlpha" result="shadowBlurInner1" stdDeviation="2"/>
            <feOffset dx="-2" in="shadowBlurInner1" result="shadowOffsetInner1"/>
            <feComposite in="shadowOffsetInner1" in2="SourceAlpha" k2="-1" k3="1" operator="arithmetic" result="shadowInnerInner1"/>
            <feColorMatrix in="shadowInnerInner1" values="0 0 0 0 1 0 0 0 0 1 0 0 0 0 1 0 0 0 1 0"/>
        </filter>
        <path id="1hqejzgawb" d="M518.725 2388.124c-13.928-8.14-29.469-.642-42.174 11.975-12.912 12.82-22.562 30.906-25.45 43.272-5.01 21.44-.876 45.643 13.48 62.54 7.171 8.442 16.79 14.708 27.21 18.126 10.366 3.373 21.4 3.452 31.826.94 9.456-2.278 18.428-6.163 25.591-13.194 4.689-4.592 8.477-10.273 11.542-16.306 5.428-10.77 8.588-23.422 9.214-36.083.234-4.753.126-9.596-1.081-14.161-3.07-11.655-12.933-19.262-19.39-29.152-8.276-12.674-16.037-25.8-30.768-27.957"/>
    </defs>
    <g fill="none" fill-rule="evenodd">
        <g>
            <g transform="translate(-434 -2377) scale(-1 1) rotate(-28 0 4499.481)">
                <use fill="#000" filter="url(#vu8mov10wa)" xlink:href="#1hqejzgawb"/>
                <use fill="#FAFAFA" xlink:href="#1hqejzgawb"/>
                <use fill="#000" filter="url(#rufawr83uc)" xlink:href="#1hqejzgawb"/>
            </g>
        </g>
    </g>
</svg>
