<svg width="24" height="24" viewBox="0 0 24 24" xmlns="http://www.w3.org/2000/svg">
    <g stroke="#FFF" stroke-width="1.5" fill="none" fill-rule="evenodd" stroke-linecap="round" stroke-linejoin="round">
        <path d="M11.706 17.828c-1.175.908-2.796 1.168-4.24.679-1.444-.49-2.487-1.652-2.729-3.04l-.05-.335c-1.466-.558-2.424-1.86-2.437-3.31-.013-1.449.923-2.765 2.378-3.344l.058-.3c0-1.537 1.364-2.783 3.047-2.783l.305-.278c0-1.998 1.773-3.617 3.96-3.617 2.188 0 3.961 1.62 3.961 3.617l.305.278c1.683 0 3.047 1.246 3.047 2.782l.365.437c1.339.663 2.143 1.967 2.07 3.356-.074 1.388-1.012 2.615-2.414 3.157l-.071.334c-.24 1.385-1.275 2.546-2.713 3.04-1.438.493-3.055.242-4.234-.657l-.608-.016zM11.999 6.75V22.5"/>
        <path d="M11.999 13.163a4.131 4.131 0 0 0 4.125-4.138M11.999 11.094A3.098 3.098 0 0 1 8.905 7.99"/>
    </g>
</svg>
