<svg xmlns="http://www.w3.org/2000/svg" width="471" height="471" viewBox="0 0 471 471">
    <defs>
        <filter id="y79oe2kaja" color-interpolation-filters="auto">
            <feColorMatrix in="SourceGraphic" values="0 0 0 0 0.572355 0 0 0 0 0.830931 0 0 0 0 0.553716 0 0 0 1.000000 0"/>
        </filter>
    </defs>
    <g fill="none" fill-rule="evenodd">
        <g>
            <g>
                <g>
                    <path stroke="#E4E4E4" d="M147.135 13.909c-9.763 6.64-18.447 15.7-25.477 26.985-15.515 24.898-23.043 55.38-38.478 80.434-13.674 22.176-32.048 40.115-49.43 57.614-22.344 22.495-38.51 53.543-32.476 88.224 6.308 36.27 30.8 58.8 59.693 64.434 6.974 1.368 13.94 1.707 20.855 1.132 18.149-1.508 36.191-9.225 52.772-22.676 20.862-16.923 37.67-40.497 56.685-60.333 13.994-14.602 28.701-28.415 44.524-39.866 5.689-4.118 11.522-7.933 17.514-11.37 29.573-17.099 65.004-33.632 77.758-73.35 6.945-21.543 4.733-45.639-7.107-64.114-15.717-24.527-39.444-34.77-62.424-44.288-5.056-2.087-10.252-4.106-15.538-6.003C213.84-.805 178.11-7.325 147.136 13.91z" transform="translate(-938 -1197) translate(939 1198.173) scale(1 -1) rotate(38 783.043 63.377)"/>
                    <path stroke="#E4E4E4" d="M155.93 37.578c-7.734 5.367-14.68 12.516-20.369 21.378-12.566 19.563-19.123 43.405-31.525 63.223-11.015 17.577-25.549 31.935-39.135 46.135-18.478 19.312-31.404 45.284-27.312 73.41 4.559 31.337 24.594 51.585 49.24 56.163 5.889 1.104 11.822 1.269 17.758.624 15.021-1.632 30.484-8.301 44.88-19.807 16.805-13.431 30.55-32.088 45.922-47.985 11.297-11.688 23.1-22.835 35.682-32.251 4.529-3.393 9.163-6.545 13.896-9.452 23.575-14.478 51.194-28.835 61.378-60.555 5.958-18.44 4.384-38.895-5.56-55.01-12.796-20.735-32.082-29.539-50.992-36.971-4.18-1.634-8.474-3.162-12.844-4.574-26.3-8.498-55.46-12.064-81.018 5.672z" transform="translate(-938 -1197) translate(939 1198.173) scale(1 -1) rotate(38 783.043 63.377)"/>
                    <path stroke="#E4E4E4" d="M167.539 62.706c-5.742 4.08-10.965 9.359-15.333 15.818-9.662 14.273-15.269 31.526-24.677 46.153-8.396 13.018-19.12 23.86-28.98 34.762-14.657 16.207-24.488 37.17-22.235 58.77 2.766 26.52 18.472 44.506 38.952 48.036 4.821.843 9.74.841 14.717.118 11.943-1.74 24.867-7.41 37.13-16.988 12.792-9.992 23.531-23.751 35.315-35.75 8.637-8.799 17.577-17.304 26.963-24.707 3.383-2.674 6.833-5.189 10.328-7.558 17.633-11.96 37.563-24.11 45.213-47.903 4.99-15.383 4.037-32.238-4.034-46.043-9.929-16.981-24.824-24.38-39.732-29.745-3.314-1.184-6.723-2.226-10.193-3.154-20.514-5.491-43.24-6.164-63.434 8.19z" transform="translate(-938 -1197) translate(939 1198.173) scale(1 -1) rotate(38 783.043 63.377)"/>
                    <path stroke="#E7E7E7" d="M175.895 86.63c-3.774 2.773-7.29 6.168-10.354 10.2-6.795 8.926-11.475 19.525-17.93 28.905-5.806 8.41-12.72 15.756-18.93 23.261-10.852 13.118-17.82 28.965-17.25 43.922.826 21.661 12.42 37.278 28.82 39.75 3.776.579 7.702.425 11.74-.39 8.916-1.804 19.339-6.525 29.538-14.114 8.809-6.554 16.609-15.324 24.849-23.375 6.01-5.878 12.12-11.714 18.345-17.077 2.252-1.946 4.526-3.817 6.798-5.637 11.752-9.42 24.072-19.302 29.216-35.079 4.044-12.275 3.691-25.456-2.524-36.922-7.125-13.146-17.666-19.137-28.629-22.413-2.464-.728-5-1.287-7.581-1.722-14.803-2.497-31.206-.253-46.108 10.692z" transform="translate(-938 -1197) translate(939 1198.173) scale(1 -1) rotate(38 783.043 63.377)"/>
                    <path stroke="#E7E7E7" d="M147.894 166.788c-2.026 20.288 10.218 35.459 27.051 30.298 5.814-1.785 13.564-5.701 21.653-11.141 8.09-5.439 16.516-12.4 23.686-20.273 7.17-7.874 13.08-16.66 16.137-25.749 3.057-9.087 3.26-18.476-.987-27.557-5.292-11.313-13.202-15.636-22.142-15.24-8.94.397-18.913 5.514-28.325 13.076-9.414 7.564-18.268 17.575-24.975 27.764-6.709 10.187-11.272 20.551-12.098 28.822z" transform="translate(-938 -1197) translate(939 1198.173) scale(1 -1) rotate(38 783.043 63.377)"/>
                </g>
                <g filter="url(#y79oe2kaja)" transform="translate(-938 -1197) translate(939 1198.173)">
                    <g fill="#FFD366" transform="translate(53 216.827)">
                        <circle cx="99.5" cy="32.5" r="3.5"/>
                        <circle cx="100" cy="68" r="4"/>
                        <circle cx="123.5" cy="52.5" r="2.5"/>
                        <circle cx="226" cy="111" r="2"/>
                        <circle cx="247" cy="118" r="3"/>
                        <circle cx="186.5" cy="112.5" r="2.5"/>
                        <circle cx="280.5" cy="128.5" r="1.5"/>
                        <circle cx="266.5" cy="138.5" r="2.5"/>
                        <circle cx="294" cy="98" r="2"/>
                        <circle cx="52" cy="42" r="2"/>
                        <circle cx="4" cy="45" r="3"/>
                        <circle cx="339.5" cy="73.5" r="2.5"/>
                        <circle cx="17.5" cy="57.5" r="2.5"/>
                        <circle cx="83" cy="61" r="2"/>
                        <circle cx="130" cy="92" r="3"/>
                        <circle cx="2" cy="2" r="2"/>
                        <circle cx="51" cy="3" r="3"/>
                    </g>
                </g>
            </g>
        </g>
    </g>
</svg>
