<svg xmlns="http://www.w3.org/2000/svg" width="116" height="112" viewBox="0 0 116 112">
    <g fill="none" fill-rule="evenodd">
        <g fill="#A5DEBA">
            <g>
                <path d="M103.014 439.93c1.17.1 2.294.173 3.41.296 1.078.119 2.148.29 3.223.436.69.094 1.398.125 2.073.287 1.913.462 3.057 1.737 3.578 3.596.245.876-.397 1.252-.98 1.613-1.706.266-3.126-.201-4.524-.856-2.074-.971-4.184-1.863-6.245-2.86-.521-.251-.911-.771-1.404-1.206l.869-1.305zM60.22 425.132c.814.585 1.644 1.292 2.575 1.826 1.58.91 3.223 1.713 4.844 2.553 2.134 1.107 3.259 3.026 4.119 5.145.176.432.076.546-.544 1.18-3.372.401-5.942-1.146-8.385-3.022-1.526-1.174-2.892-2.508-3.935-4.142-1.146-1.795-.801-2.792 1.326-3.54zm25.958.618c1.248.238 2.495.556 3.796.134.31-.1.89.128 1.118.398.567.669 1.16 1.352 1.231 2.323.032.449.275.88.372 1.33.135.626.187 1.252-.556 1.675-2.914.083-7.155-2.38-8.22-4.742.583-1.238.931-1.371 2.26-1.118zm18.215-5.145c.095.168.219.32.359.522v1.365c-.29.572-.792.676-1.373.695-2.254.075-4.361-.579-6.46-1.278-.547-.183-1.088-.412-1.6-.682-.36-.19-.665-.486-1.131-.838l.829-1.143h5.319l.217.005.435.022c.217.007.43.003.635-.044 1.324-.306 2.154.295 2.77 1.376zm-40.794-5.33c1.716.495 3.264.964 4.827 1.38.777.207 1.337.698 1.696 1.337.412.73.677 1.549.954 2.347.139.403.009.567-.623 1.165-2.016.143-3.624-.858-5.158-2.01-.684-.512-1.31-1.105-1.94-1.688-.475-.441-.78-.973-.578-1.808l.822-.722zm15.136-6.83c2.247.86 4.667.874 7.08 1.223 1.214 1.05 1.556 1.834 1.496 3.595-.652.73-1.503.621-2.199.384-2.043-.697-4.053-1.496-6.045-2.328-.669-.28-1.306-.722-1.51-1.475.002-.82.587-1.082 1.178-1.399zm-36.835-3.149c.605.101 1.27.132 1.882.327 1.617.517 3.212 1.108 4.816 1.66 2.102.725 3.787 3.354 3.649 5.638-.606.962-1.584.677-2.395.475-2.2-.55-4.055-1.739-5.614-3.394-.752-.797-1.56-1.54-2.313-2.334-.34-.356-.61-.777-.97-1.243l.945-1.129zm-28.85-2.608c1.03.433 2.092.872 3.148 1.326.391.168.75.429 1.153.545 1.457.42 2.187 1.511 2.688 2.821.22.576.445 1.158.582 1.756.087.379.016.795.016 1.294-2.599.115-4.724-.444-6.184-2.632-.6-.9-1.287-1.743-1.867-2.655-.275-.431-.39-.962-.582-1.459.433-.412.686-.652 1.045-.996zm45.306 1.124c2.661.997 4.13 2.955 4.671 5.936-.562 0-1.027.077-1.457-.013-1.945-.408-3.679-1.172-4.904-2.862-.835-1.153-.005-2.907 1.69-3.061zM12.413 387.08c1.99 1.422 4.013 2.812 5.971 4.288 1.161.875 1.946 2.105 2.623 3.376.175.328.126.775.203 1.33-2.22.077-3.89-.603-5.13-2.043-.989-1.15-1.901-2.366-2.799-3.593l-1.074-1.473c-.526-.721-.435-1.155.206-1.885zm24.75-2.028c.583.214 1.095.37 1.58.584 2.195.972 4.348 2.052 6.585 2.914 2.053.792 3.227 2.315 4.152 4.107-.22.72-.69.881-1.296.851-1.548-.077-2.994-.609-4.292-1.348-2.088-1.188-4.09-2.54-6.056-3.925-.726-.512-1.535-1.136-1.448-2.39l.774-.793zm-22.347-6.063c.721.434 1.433.864 2.146 1.291 1.158.693 2.293 1.43 3.482 2.067 1.764.945 2.204 2.558 2.457 4.283-.623.52-1.139.52-1.82.336-1.669-.45-2.898-1.362-3.879-2.78-1.008-1.46-2.183-2.805-3.3-4.218l.914-.979zm15.348-5.172c.822.34 1.632.734 2.485.971 1.455.404 2.237 1.47 2.884 2.698.143.272.158.614.31.878.38.655.177 1.103-.423 1.47-1.725.172-3.222-.475-4.582-1.408-1.023-.704-1.968-1.537-2.88-2.385-1.13-1.05-1.103-1.435-.032-2.608.815-.269 1.518.088 2.238.384zm-29.006-2.924c.53.174 1.075.253 1.509.516 1.125.679 2.248 1.38 3.279 2.19.596.468 1.139 1.098 1.485 1.769.457.886.755 1.869 1.016 2.838.255.945-.656 1.663-1.803 1.369-.931-.24-1.846-.59-2.713-1.005-.701-.335-1.243-.882-1.605-1.63-.71-1.464-1.501-2.89-2.326-4.46l1.158-1.587zm11.3-11.904c1.09 1.03 2.23 2.095 3.355 3.176.78.751 1.553 1.511 2.309 2.288.91.937 1.133 2.192 1.418 3.384.246 1.032-.387 1.637-1.466 1.362-.963-.246-1.88-.697-2.79-1.116-.882-.406-1.347-1.177-1.785-1.969l-.219-.396-.111-.196c-.926-1.61-1.87-3.21-2.75-4.719.368-1.079.835-1.786 2.04-1.814zm13.058 2.853c1.145.556 2.31 1.076 3.451 1.64 1.611.793 2.552 2.096 2.843 3.867.018.11-.003.234-.03.344-.019.072-.086.13-.184.27-3.19.53-8.114-3.472-7.585-6.15.504-.436.995-.219 1.505.03zm6.975-6.36c2.927 1.318 5.54 2.99 6.487 6.337.084.298.011.64.011 1.163-.732-.11-1.335-.155-1.916-.295-2.657-.641-4.507-2.338-5.913-4.597-.143-.23-.308-.46-.387-.712-.176-.562-.035-1.067.353-1.52.38-.442.9-.586 1.365-.376zM18.62 344.536c.862.518 1.744 1.017 2.542 1.623.61.464 1.262.996 1.614 1.649.545 1.01.86 2.145 1.247 3.237.056.16-.037.374-.072.654-.958.33-1.766.348-2.67.059-1.86-.595-3.352-1.574-4.287-3.333-.252-.476-.602-.9-.898-1.354-.983-1.505-.944-1.851.322-3.058.855-.294 1.534.12 2.202.523zm-16.11-9.308c.172.185.394.356.533.578 1.127 1.81 2.217 3.644 3.364 5.442.723 1.13 1.033 2.36.898 3.66-.09.87-.436 1.704-1.23 2.247-1.124-.455-1.97-1.177-2.537-2.184-1.35-2.405-2.57-4.868-3.205-7.58-.384-1.637.008-2.165 1.656-2.163h.52z" transform="translate(-138 -1919) translate(138 1584)"/>
            </g>
        </g>
    </g>
</svg>
