<svg xmlns="http://www.w3.org/2000/svg" width="72" height="72" viewBox="0 0 72 72">
    <defs>
        <radialGradient id="by76m25xob" cx="50%" cy="50%" r="62.01%" fx="50%" fy="50%" gradientTransform="matrix(0 -1 .96984 0 .015 1)">
            <stop offset="0%" stop-color="#FFE095" stop-opacity=".137"/>
            <stop offset="100%" stop-color="#FFCE59" stop-opacity=".552"/>
        </radialGradient>
        <radialGradient id="ng5manr3dc" cx="50%" cy="50%" r="62.01%" fx="50%" fy="50%" gradientTransform="matrix(0 -1 .96984 0 .015 1)">
            <stop offset="0%" stop-color="#FF9F99" stop-opacity=".2"/>
            <stop offset="99.935%" stop-color="#FF9F99"/>
        </radialGradient>
        <radialGradient id="k7pumhh08d" cx="50%" cy="50%" r="62.01%" fx="50%" fy="50%" gradientTransform="matrix(0 -1 .96984 0 .015 1)">
            <stop offset="0%" stop-color="#FFCC8D" stop-opacity=".2"/>
            <stop offset="100%" stop-color="#FFCC8D"/>
        </radialGradient>
        <linearGradient id="60phz0pana" x1="50%" x2="50%" y1="0%" y2="100%">
            <stop offset="0%" stop-color="#FFF" stop-opacity="0"/>
            <stop offset="100%" stop-color="#FFF" stop-opacity=".118"/>
        </linearGradient>
    </defs>
    <g fill="none" fill-rule="evenodd">
        <g>
            <g>
                <path fill="#FFF" d="M72 36c0 19.882-16.118 36-36 36S0 55.882 0 36 16.118 0 36 0s36 16.118 36 36" transform="translate(-80 -32) translate(80 32)"/>
                <path fill="#262626" d="M45 33.62l-.11.022c-.018.005-.04.008-.062.013l-.075.018-.088.02-.098.027c-.139.038-.305.092-.493.16-.187.07-.395.157-.617.264-.081.039-.164.08-.248.124-.38.195-.79.44-1.207.724-.51.347-1.031.752-1.535 1.178-.251.214-.498.433-.737.654-.239.22-.471.44-.691.658-.441.435-.84.855-1.175 1.22-.203.223-.382.425-.534.599l-.045.353c-.192 1.565-.294 3.245-.312 4.926-.013 1.12.036 2.764.147 4.931.224 2.436.363 3.862.416 4.277.157 1.246.564 1.198 1.087 2.183.523.985 1.702 1.916 1.716 2.002-.386.02-8.942.05-9.375 0-.008-.183 2.217-1.243 2.21-1.505-.024-.772 1.13-1.185 1.149-2.496.008-.656.05-3.645.11-4.46.058-.816.443-5.215.412-6.689-.03-1.474-.357-1.761-.61-2.767-.127-.502-.266-1.02-.418-1.543-.152-.523-.317-1.05-.494-1.574-.353-1.048-.76-2.078-1.198-3.016-.219-.47-.446-.916-.676-1.33-.231-.415-.464-.799-.694-1.144l-.07-.105c-.204-.303-.404-.574-.59-.812-.105-.13-.203-.254-.3-.364-.046-.055-.091-.109-.136-.159l-.128-.141c-.08-.09-.157-.166-.222-.235-.032-.034-.062-.065-.091-.093l-.078-.075c-.08-.08-.129-.126-.14-.137l.152.123.085.068.099.085c.07.061.154.13.243.213l.141.13c.05.046.099.096.152.147.106.1.215.216.334.338.198.21.41.45.632.72l.118.144c.263.328.535.694.806 1.094.18.264.36.544.539.835.038-.259.09-.574.154-.932.09-.499.205-1.078.35-1.694.071-.308.15-.625.236-.945.086-.32.18-.645.28-.966.195-.628.417-1.247.66-1.815.005-.015.012-.029.018-.043.248-.58.518-1.103.783-1.53.132-.214.262-.405.384-.567.122-.164.234-.301.332-.41l.068-.076.063-.066.054-.057.047-.046.08-.078-.077.082-.045.047-.051.059c-.02.021-.039.044-.06.068-.022.025-.043.052-.066.08-.093.111-.2.253-.315.42-.115.166-.236.36-.36.578-.246.434-.493.963-.718 1.547l-.022.059c-.217.568-.41 1.184-.579 1.807-.087.323-.167.648-.24.968-.073.32-.14.638-.199.945-.118.616-.212 1.194-.281 1.69-.07.497-.118.912-.147 1.202-.01.086-.016.16-.022.223.51.887 1.196 1.67 1.607 2.86.274.793.765 2.252 1.474 4.377.554-2.201.916-3.5 1.088-3.896.07-.162.884-2.224.955-2.377.187-.407.373-.78.55-1.117.127-.23.242-.445.359-.638.058-.098.11-.192.165-.28l.157-.25c.097-.16.193-.296.273-.416.04-.06.077-.117.113-.167l.097-.135.177-.246-.141.27-.077.147c-.028.054-.056.115-.088.18-.062.13-.137.278-.21.448l-.12.267-.123.298c-.087.205-.17.432-.26.672-.112.308-.225.643-.335 1.003-.065.208-.127.422-.189.645-.168.61-.325 1.276-.463 1.986-.078.402-.15.819-.214 1.247l.192-.197c.353-.357.772-.764 1.233-1.185.231-.21.473-.423.723-.636.25-.213.507-.424.768-.629.524-.41 1.066-.797 1.594-1.126.437-.274.866-.506 1.259-.69.08-.037.16-.073.239-.106.227-.098.44-.179.631-.24.192-.062.36-.11.5-.14.036-.01.069-.017.1-.024l.088-.017.077-.015.063-.01.11-.018z" transform="translate(-80 -32) translate(80 32)"/>
                <path fill="url(#by76m25xob)" stroke="url(#60phz0pana)" stroke-width="8" d="M43 24c2.21 0 4.21.895 5.657 2.343C50.105 27.791 51 29.791 51 32s-.895 4.21-2.343 5.657C47.209 39.105 45.209 40 43 40c-2.21 0-4.21-.895-5.657-2.343C35.895 36.209 35 34.209 35 32c0-2.21.895-4.21 2.343-5.657C38.791 24.895 40.791 24 43 24z" transform="translate(-80 -32) translate(80 32)"/>
                <path fill="url(#ng5manr3dc)" stroke="url(#60phz0pana)" stroke-width="8" d="M28 24c2.21 0 4.21.895 5.657 2.343C35.105 27.791 36 29.791 36 32c0 2.21-.895 4.21-2.343 5.657C32.209 39.105 30.209 40 28 40c-2.21 0-4.21-.895-5.657-2.343C20.895 36.209 20 34.209 20 32c0-2.21.895-4.21 2.343-5.657C23.791 24.895 25.791 24 28 24z" transform="translate(-80 -32) translate(80 32)"/>
                <path fill="url(#k7pumhh08d)" stroke="url(#60phz0pana)" stroke-width="8" d="M37 14c2.21 0 4.21.895 5.657 2.343C44.105 17.791 45 19.791 45 22c0 2.21-.895 4.21-2.343 5.657C41.209 29.105 39.209 30 37 30s-4.21-.895-5.657-2.343C29.895 26.209 29 24.209 29 22s.895-4.209 2.343-5.657C32.791 14.895 34.791 14 37 14z" transform="translate(-80 -32) translate(80 32)"/>
            </g>
        </g>
    </g>
</svg>
