<svg width="128" height="128" viewBox="10 -16 128 128" xmlns="http://www.w3.org/2000/svg" xmlns:xlink="http://www.w3.org/1999/xlink">
    <defs>
        <filter x="-31.2%" y="-14.6%" width="162.5%" height="162.5%" filterUnits="objectBoundingBox" id="a">
            <feOffset dy="1" in="SourceAlpha" result="shadowOffsetOuter1"/>
            <feGaussianBlur stdDeviation=".5" in="shadowOffsetOuter1" result="shadowBlurOuter1"/>
            <feComposite in="shadowBlurOuter1" in2="SourceAlpha" operator="out" result="shadowBlurOuter1"/>
            <feColorMatrix values="0 0 0 0 0 0 0 0 0 0 0 0 0 0 0 0 0 0 0.02 0" in="shadowBlurOuter1" result="shadowMatrixOuter1"/>
            <feOffset dy="2" in="SourceAlpha" result="shadowOffsetOuter2"/>
            <feGaussianBlur stdDeviation="1" in="shadowOffsetOuter2" result="shadowBlurOuter2"/>
            <feComposite in="shadowBlurOuter2" in2="SourceAlpha" operator="out" result="shadowBlurOuter2"/>
            <feColorMatrix values="0 0 0 0 0 0 0 0 0 0 0 0 0 0 0 0 0 0 0.02 0" in="shadowBlurOuter2" result="shadowMatrixOuter2"/>
            <feMorphology radius=".5" in="SourceAlpha" result="shadowSpreadOuter3"/>
            <feOffset dy="4" in="shadowSpreadOuter3" result="shadowOffsetOuter3"/>
            <feGaussianBlur stdDeviation="2" in="shadowOffsetOuter3" result="shadowBlurOuter3"/>
            <feComposite in="shadowBlurOuter3" in2="SourceAlpha" operator="out" result="shadowBlurOuter3"/>
            <feColorMatrix values="0 0 0 0 0 0 0 0 0 0 0 0 0 0 0 0 0 0 0.03 0" in="shadowBlurOuter3" result="shadowMatrixOuter3"/>
            <feMorphology radius="1" in="SourceAlpha" result="shadowSpreadOuter4"/>
            <feOffset dy="8" in="shadowSpreadOuter4" result="shadowOffsetOuter4"/>
            <feGaussianBlur stdDeviation="4" in="shadowOffsetOuter4" result="shadowBlurOuter4"/>
            <feComposite in="shadowBlurOuter4" in2="SourceAlpha" operator="out" result="shadowBlurOuter4"/>
            <feColorMatrix values="0 0 0 0 0 0 0 0 0 0 0 0 0 0 0 0 0 0 0.04 0" in="shadowBlurOuter4" result="shadowMatrixOuter4"/>
            <feMorphology radius="2" in="SourceAlpha" result="shadowSpreadOuter5"/>
            <feOffset dy="16" in="shadowSpreadOuter5" result="shadowOffsetOuter5"/>
            <feGaussianBlur stdDeviation="8" in="shadowOffsetOuter5" result="shadowBlurOuter5"/>
            <feComposite in="shadowBlurOuter5" in2="SourceAlpha" operator="out" result="shadowBlurOuter5"/>
            <feColorMatrix values="0 0 0 0 0 0 0 0 0 0 0 0 0 0 0 0 0 0 0.03 0" in="shadowBlurOuter5" result="shadowMatrixOuter5"/>
            <feMerge>
                <feMergeNode in="shadowMatrixOuter1"/>
                <feMergeNode in="shadowMatrixOuter2"/>
                <feMergeNode in="shadowMatrixOuter3"/>
                <feMergeNode in="shadowMatrixOuter4"/>
                <feMergeNode in="shadowMatrixOuter5"/>
            </feMerge>
        </filter>
        <filter x="-25%" y="-8.3%" width="150%" height="150%" filterUnits="objectBoundingBox" id="d">
            <feGaussianBlur stdDeviation="8" in="SourceAlpha" result="shadowBlurInner1"/>
            <feOffset in="shadowBlurInner1" result="shadowOffsetInner1"/>
            <feComposite in="shadowOffsetInner1" in2="SourceAlpha" operator="arithmetic" k2="-1" k3="1" result="shadowInnerInner1"/>
            <feColorMatrix values="0 0 0 0 0.984313725 0 0 0 0 0.91372549 0 0 0 0 1 0 0 0 0.24 0" in="shadowInnerInner1"/>
        </filter>
        <filter x="-6.2%" y="-3.7%" width="112.3%" height="110.4%" filterUnits="objectBoundingBox" id="g">
            <feOffset dy="2" in="SourceAlpha" result="shadowOffsetOuter1"/>
            <feGaussianBlur stdDeviation="2" in="shadowOffsetOuter1" result="shadowBlurOuter1"/>
            <feColorMatrix values="0 0 0 0 0 0 0 0 0 0 0 0 0 0 0 0 0 0 0.05 0" in="shadowBlurOuter1"/>
        </filter>
        <filter x="-8.4%" y="-5.6%" width="116.7%" height="114.1%" filterUnits="objectBoundingBox" id="k">
            <feGaussianBlur stdDeviation="4" in="SourceAlpha" result="shadowBlurInner1"/>
            <feOffset dy="3" in="shadowBlurInner1" result="shadowOffsetInner1"/>
            <feComposite in="shadowOffsetInner1" in2="SourceAlpha" operator="arithmetic" k2="-1" k3="1" result="shadowInnerInner1"/>
            <feColorMatrix values="0 0 0 0 1 0 0 0 0 1 0 0 0 0 1 0 0 0 0.5 0" in="shadowInnerInner1" result="shadowMatrixInner1"/>
            <feGaussianBlur stdDeviation="2" in="SourceAlpha" result="shadowBlurInner2"/>
            <feOffset dy="2" in="shadowBlurInner2" result="shadowOffsetInner2"/>
            <feComposite in="shadowOffsetInner2" in2="SourceAlpha" operator="arithmetic" k2="-1" k3="1" result="shadowInnerInner2"/>
            <feColorMatrix values="0 0 0 0 1 0 0 0 0 1 0 0 0 0 1 0 0 0 0.5 0" in="shadowInnerInner2" result="shadowMatrixInner2"/>
            <feMerge>
                <feMergeNode in="shadowMatrixInner1"/>
                <feMergeNode in="shadowMatrixInner2"/>
            </feMerge>
        </filter>
        <filter x="-12.1%" y="-7.4%" width="124.2%" height="120.6%" filterUnits="objectBoundingBox" id="l">
            <feOffset dy="2" in="SourceAlpha" result="shadowOffsetOuter1"/>
            <feGaussianBlur stdDeviation="2" in="shadowOffsetOuter1" result="shadowBlurOuter1"/>
            <feColorMatrix values="0 0 0 0 0 0 0 0 0 0 0 0 0 0 0 0 0 0 0.05 0" in="shadowBlurOuter1"/>
        </filter>
        <filter x="-16.4%" y="-11%" width="132.8%" height="127.9%" filterUnits="objectBoundingBox" id="p">
            <feGaussianBlur stdDeviation="4" in="SourceAlpha" result="shadowBlurInner1"/>
            <feOffset dy="3" in="shadowBlurInner1" result="shadowOffsetInner1"/>
            <feComposite in="shadowOffsetInner1" in2="SourceAlpha" operator="arithmetic" k2="-1" k3="1" result="shadowInnerInner1"/>
            <feColorMatrix values="0 0 0 0 1 0 0 0 0 1 0 0 0 0 1 0 0 0 0.5 0" in="shadowInnerInner1" result="shadowMatrixInner1"/>
            <feGaussianBlur stdDeviation="2" in="SourceAlpha" result="shadowBlurInner2"/>
            <feOffset dy="2" in="shadowBlurInner2" result="shadowOffsetInner2"/>
            <feComposite in="shadowOffsetInner2" in2="SourceAlpha" operator="arithmetic" k2="-1" k3="1" result="shadowInnerInner2"/>
            <feColorMatrix values="0 0 0 0 1 0 0 0 0 1 0 0 0 0 1 0 0 0 0.5 0" in="shadowInnerInner2" result="shadowMatrixInner2"/>
            <feMerge>
                <feMergeNode in="shadowMatrixInner1"/>
                <feMergeNode in="shadowMatrixInner2"/>
            </feMerge>
        </filter>
        <filter x="-22.5%" y="-12.5%" width="145.1%" height="135%" filterUnits="objectBoundingBox" id="q">
            <feOffset dy="2" in="SourceAlpha" result="shadowOffsetOuter1"/>
            <feGaussianBlur stdDeviation="2" in="shadowOffsetOuter1" result="shadowBlurOuter1"/>
            <feColorMatrix values="0 0 0 0 0 0 0 0 0 0 0 0 0 0 0 0 0 0 0.05 0" in="shadowBlurOuter1"/>
        </filter>
        <filter x="-30.6%" y="-18.7%" width="161.2%" height="147.5%" filterUnits="objectBoundingBox" id="u">
            <feGaussianBlur stdDeviation="4" in="SourceAlpha" result="shadowBlurInner1"/>
            <feOffset dy="3" in="shadowBlurInner1" result="shadowOffsetInner1"/>
            <feComposite in="shadowOffsetInner1" in2="SourceAlpha" operator="arithmetic" k2="-1" k3="1" result="shadowInnerInner1"/>
            <feColorMatrix values="0 0 0 0 1 0 0 0 0 1 0 0 0 0 1 0 0 0 0.5 0" in="shadowInnerInner1" result="shadowMatrixInner1"/>
            <feGaussianBlur stdDeviation="2" in="SourceAlpha" result="shadowBlurInner2"/>
            <feOffset dy="2" in="shadowBlurInner2" result="shadowOffsetInner2"/>
            <feComposite in="shadowOffsetInner2" in2="SourceAlpha" operator="arithmetic" k2="-1" k3="1" result="shadowInnerInner2"/>
            <feColorMatrix values="0 0 0 0 1 0 0 0 0 1 0 0 0 0 1 0 0 0 0.5 0" in="shadowInnerInner2" result="shadowMatrixInner2"/>
            <feMerge>
                <feMergeNode in="shadowMatrixInner1"/>
                <feMergeNode in="shadowMatrixInner2"/>
            </feMerge>
        </filter>
        <filter x="-131.2%" y="-81.2%" width="362.5%" height="362.5%" filterUnits="objectBoundingBox" id="v">
            <feOffset dy="1" in="SourceAlpha" result="shadowOffsetOuter1"/>
            <feGaussianBlur stdDeviation=".5" in="shadowOffsetOuter1" result="shadowBlurOuter1"/>
            <feComposite in="shadowBlurOuter1" in2="SourceAlpha" operator="out" result="shadowBlurOuter1"/>
            <feColorMatrix values="0 0 0 0 0 0 0 0 0 0 0 0 0 0 0 0 0 0 0.02 0" in="shadowBlurOuter1" result="shadowMatrixOuter1"/>
            <feOffset dy="1" in="SourceAlpha" result="shadowOffsetOuter2"/>
            <feGaussianBlur stdDeviation="1" in="shadowOffsetOuter2" result="shadowBlurOuter2"/>
            <feComposite in="shadowBlurOuter2" in2="SourceAlpha" operator="out" result="shadowBlurOuter2"/>
            <feColorMatrix values="0 0 0 0 0 0 0 0 0 0 0 0 0 0 0 0 0 0 0.02 0" in="shadowBlurOuter2" result="shadowMatrixOuter2"/>
            <feOffset dy="2" in="SourceAlpha" result="shadowOffsetOuter3"/>
            <feGaussianBlur stdDeviation="2" in="shadowOffsetOuter3" result="shadowBlurOuter3"/>
            <feComposite in="shadowBlurOuter3" in2="SourceAlpha" operator="out" result="shadowBlurOuter3"/>
            <feColorMatrix values="0 0 0 0 0 0 0 0 0 0 0 0 0 0 0 0 0 0 0.03 0" in="shadowBlurOuter3" result="shadowMatrixOuter3"/>
            <feMorphology radius=".5" in="SourceAlpha" result="shadowSpreadOuter4"/>
            <feOffset dy="4" in="shadowSpreadOuter4" result="shadowOffsetOuter4"/>
            <feGaussianBlur stdDeviation="2" in="shadowOffsetOuter4" result="shadowBlurOuter4"/>
            <feComposite in="shadowBlurOuter4" in2="SourceAlpha" operator="out" result="shadowBlurOuter4"/>
            <feColorMatrix values="0 0 0 0 0 0 0 0 0 0 0 0 0 0 0 0 0 0 0.04 0" in="shadowBlurOuter4" result="shadowMatrixOuter4"/>
            <feMorphology radius="1" in="SourceAlpha" result="shadowSpreadOuter5"/>
            <feOffset dy="8" in="shadowSpreadOuter5" result="shadowOffsetOuter5"/>
            <feGaussianBlur stdDeviation="6" in="shadowOffsetOuter5" result="shadowBlurOuter5"/>
            <feComposite in="shadowBlurOuter5" in2="SourceAlpha" operator="out" result="shadowBlurOuter5"/>
            <feColorMatrix values="0 0 0 0 0 0 0 0 0 0 0 0 0 0 0 0 0 0 0.03 0" in="shadowBlurOuter5" result="shadowMatrixOuter5"/>
            <feMerge>
                <feMergeNode in="shadowMatrixOuter1"/>
                <feMergeNode in="shadowMatrixOuter2"/>
                <feMergeNode in="shadowMatrixOuter3"/>
                <feMergeNode in="shadowMatrixOuter4"/>
                <feMergeNode in="shadowMatrixOuter5"/>
            </feMerge>
        </filter>
        <linearGradient x1="50%" y1="0%" x2="50%" y2="98.848%" id="c">
            <stop stop-color="#FBE9FF" stop-opacity=".16" offset="0%"/>
            <stop stop-color="#C234E5" stop-opacity=".16" offset="99.947%"/>
        </linearGradient>
        <linearGradient x1="50%" y1="100%" x2="50%" y2=".034%" id="i">
            <stop stop-color="#FFF" stop-opacity="0" offset="0%"/>
            <stop stop-color="#FFF" stop-opacity=".5" offset="100%"/>
        </linearGradient>
        <linearGradient x1="50%" y1="50%" x2="34.859%" y2="6.887%" id="j">
            <stop stop-color="#FFF" stop-opacity="0" offset="0%"/>
            <stop stop-color="#FFF" offset="100%"/>
        </linearGradient>
        <linearGradient x1="50%" y1="100%" x2="50%" y2=".034%" id="n">
            <stop stop-color="#FFF" stop-opacity="0" offset="0%"/>
            <stop stop-color="#FFF" stop-opacity=".5" offset="100%"/>
        </linearGradient>
        <linearGradient x1="50%" y1="50%" x2="34.445%" y2="6.887%" id="o">
            <stop stop-color="#FFF" stop-opacity="0" offset="0%"/>
            <stop stop-color="#FFF" offset="100%"/>
        </linearGradient>
        <linearGradient x1="50%" y1="100%" x2="50%" y2=".034%" id="s">
            <stop stop-color="#FFF" stop-opacity="0" offset="0%"/>
            <stop stop-color="#FFF" stop-opacity=".5" offset="100%"/>
        </linearGradient>
        <linearGradient x1="50%" y1="50%" x2="37.096%" y2="6.887%" id="t">
            <stop stop-color="#FFF" stop-opacity="0" offset="0%"/>
            <stop stop-color="#FFF" offset="100%"/>
        </linearGradient>
        <linearGradient x1="50%" y1="50%" x2="50%" y2=".034%" id="x">
            <stop stop-color="#FFF" stop-opacity="0" offset="0%"/>
            <stop stop-color="#FFF" stop-opacity=".5" offset="100%"/>
        </linearGradient>
        <path d="M40.147 0h15.706C69.067 0 74.415 1.485 79.63 4.274c5.214 2.789 9.307 6.882 12.096 12.096C94.515 21.585 96 26.933 96 40.147v15.706c0 13.214-1.485 18.562-4.274 23.777-2.789 5.214-6.882 9.307-12.096 12.096C74.415 94.515 69.067 96 55.853 96H40.147c-13.214 0-18.562-1.485-23.777-4.274-5.214-2.789-9.307-6.882-12.096-12.096C1.485 74.415 0 69.067 0 55.853V40.147C0 26.933 1.485 21.585 4.274 16.37c2.789-5.214 6.882-9.307 12.096-12.096C21.585 1.485 26.933 0 40.147 0z" id="b"/>
        <path d="M3.07 52.674C-3.59 74.157.607 99.212 15.436 116.037c7.415 8.411 17.488 14.384 28.287 17.177 10.8 2.795 22.324 2.413 32.642-1.88 23.49-9.778 36.342-36.702 37.095-62.311.13-4.456-.051-9-1.49-13.215C108.32 45.1 97.63 38.805 90.243 30.277c-6.662-7.693-10.82-17.512-18.38-24.31C59.235-5.393 43.699.921 30.488 12.756 17.277 24.59 6.393 41.948 3.07 52.674" id="h"/>
        <path d="M47.243 45.447c-6.67-3.898-14.112-.307-20.196 5.735-6.184 6.14-10.805 14.8-12.187 20.722-2.4 10.267-.42 21.857 6.455 29.949 3.434 4.042 8.04 7.043 13.03 8.68 4.964 1.615 10.248 1.653 15.24.45 4.529-1.091 8.825-2.952 12.255-6.319 2.246-2.198 4.06-4.919 5.527-7.808 2.6-5.158 4.113-11.216 4.413-17.28.112-2.276.06-4.594-.518-6.78-1.47-5.582-6.193-9.225-9.286-13.96-3.962-6.07-7.68-12.356-14.733-13.389" id="m"/>
        <path d="M40.493 100.678c3.094 1.208 6.72 1.63 9.68.133 1.954-.988 3.421-2.706 4.631-4.51 1.992-2.974 3.265-7.052 3.742-11.363.476-4.314.155-8.862-1.043-12.778-2.392-7.83-8.29-13.128-18.32-8.94-8.225 3.434-11.86 11.251-11.458 18.984.402 7.733 4.843 15.38 12.768 18.474" id="r"/>
        <path d="M25 28a8 8 0 1 1 0 16 8 8 0 0 1 0-16z" id="w"/>
        <rect id="e" x="0" y="0" width="94" height="94" rx="28"/>
    </defs>
    <g fill="none" fill-rule="evenodd">
        <g transform="translate(16)">
            <use fill="#000" filter="url(#a)" xlink:href="#b"/>
            <use fill="#FFC888" xlink:href="#b"/>
            <use fill="url(#c)" xlink:href="#b"/>
            <use fill="#000" filter="url(#d)" xlink:href="#b"/>
            <path stroke="#FFF" d="M40.147.5h15.706c13.079 0 18.378 1.454 23.54 4.215 5.127 2.742 9.15 6.765 11.892 11.891C94.046 21.77 95.5 27.068 95.5 40.147v15.706c0 13.079-1.454 18.378-4.215 23.54-2.742 5.127-6.765 9.15-11.891 11.892C74.23 94.046 68.932 95.5 55.853 95.5H40.147c-13.079 0-18.378-1.454-23.54-4.215-5.127-2.742-9.15-6.765-11.892-11.891C1.954 74.23.5 68.932.5 55.853V40.147c0-13.079 1.454-18.378 4.215-23.54 2.742-5.127 6.765-9.15 11.891-11.892C21.77 1.954 27.068.5 40.147.5z" stroke-linejoin="square"/>
        </g>
        <g transform="translate(17 1)">
            <mask id="f" fill="#fff">
                <use xlink:href="#e"/>
            </mask>
            <g mask="url(#f)">
                <g opacity=".5" transform="scale(-1 1) rotate(15 55.225 -460.96)">
                    <use fill="#000" filter="url(#g)" xlink:href="#h"/>
                    <use fill-opacity=".2" fill="#FFF" xlink:href="#h"/>
                    <use fill="url(#i)" xlink:href="#h"/>
                    <use fill="url(#j)" xlink:href="#h"/>
                    <use fill="#000" filter="url(#k)" xlink:href="#h"/>
                </g>
                <g opacity=".4" transform="scale(-1 1) rotate(15 41.333 -355.44)">
                    <use fill="#000" filter="url(#l)" xlink:href="#m"/>
                    <use fill-opacity=".2" fill="#FFF" xlink:href="#m"/>
                    <use fill="url(#n)" xlink:href="#m"/>
                    <use fill="url(#o)" xlink:href="#m"/>
                    <use fill="#000" filter="url(#p)" xlink:href="#m"/>
                </g>
                <g opacity=".4" transform="scale(-1 1) rotate(15 41.703 -358.25)">
                    <use fill="#000" filter="url(#q)" xlink:href="#r"/>
                    <use fill-opacity=".2" fill="#FFF" xlink:href="#r"/>
                    <use fill="url(#s)" xlink:href="#r"/>
                    <use fill="url(#t)" xlink:href="#r"/>
                    <use fill="#000" filter="url(#u)" xlink:href="#r"/>
                </g>
            </g>
        </g>
        <g transform="translate(16)">
            <use fill="#000" filter="url(#v)" xlink:href="#w"/>
            <use fill="#7C5CFF" xlink:href="#w"/>
            <path stroke="#FFF" stroke-width="2" d="M25 29c1.933 0 3.683.784 4.95 2.05A6.978 6.978 0 0 1 32 36a6.978 6.978 0 0 1-2.05 4.95A6.978 6.978 0 0 1 25 43a6.978 6.978 0 0 1-4.95-2.05A6.978 6.978 0 0 1 18 36c0-1.933.784-3.683 2.05-4.95A6.978 6.978 0 0 1 25 29z" stroke-linejoin="square" fill="url(#x)"/>
        </g>
    </g>
</svg>
