<svg width="32" height="32" viewBox="0 0 32 32" xmlns="http://www.w3.org/2000/svg">
    <g fill="none" fillRule="evenodd">
        <path stroke="#73757C" strokeWidth="1.5" strokeLinecap="round" d="M2 16h28"/>
        <path d="M16 7a9 9 0 1 1 0 18 9 9 0 0 1 0-18z"/>
        <path d="M16 7a9 9 0 1 1 0 18 9 9 0 0 1 0-18z" fill="#F859AC" fillRule="nonzero"/>
        <path d="M16 7a9 9 0 1 1 0 18 9 9 0 0 1 0-18z"/>
        <path d="M16 8c2.21 0 4.21.895 5.657 2.343A7.975 7.975 0 0 1 24 16c0 2.21-.895 4.21-2.343 5.657A7.975 7.975 0 0 1 16 24c-2.21 0-4.21-.895-5.657-2.343A7.975 7.975 0 0 1 8 16c0-2.21.895-4.21 2.343-5.657A7.975 7.975 0 0 1 16 8z" stroke="#FFF" strokeWidth="2"/>
        <path d="m13 18 1.529-2.482c.218-.353.623-.418.906-.145l1.175 1.157c.283.273.688.209.906-.136L19 14" stroke="#FFF" strokeWidth="2" strokeLinecap="round" strokeLinejoin="round"/>
    </g>
</svg>
