<svg width="24" height="22" viewBox="0 0 24 22" xmlns="http://www.w3.org/2000/svg">
    <path d="M18 6.918c-.426-.249-.974-.249-1.461 0l-3.412 2.057-2.315 1.308-3.35 2.057c-.427.249-.975.249-1.463 0l-2.62-1.62a1.526 1.526 0 0 1-.73-1.309V6.295c0-.498.243-.997.73-1.308L6 3.429c.427-.25.975-.25 1.462 0l2.62 1.62c.426.25.731.748.731 1.309v2.056l2.315-1.371V4.924c0-.498-.244-.997-.731-1.308L7.522.686c-.426-.248-.975-.248-1.462 0L1.064 3.679c-.487.25-.73.748-.73 1.246v5.858c0 .498.243.997.73 1.309L6 15.019c.427.25.975.25 1.462 0l3.351-1.994 2.315-1.37 3.35-1.995c.427-.249.976-.249 1.463 0l2.62 1.558c.426.25.73.748.73 1.309v3.115c0 .499-.243.997-.73 1.309L18 18.509c-.426.25-.974.25-1.461 0l-2.62-1.558a1.526 1.526 0 0 1-.731-1.309v-1.994l-2.315 1.371v2.057c0 .498.244.997.731 1.308l4.935 2.93c.426.248.974.248 1.462 0l4.935-2.93c.426-.249.73-.748.73-1.308v-5.92c0-.499-.243-.997-.73-1.309L18 6.918z" fill="#8247E5" fillRule="nonzero"/>
</svg>
