<svg xmlns="http://www.w3.org/2000/svg" width="28" height="28" viewBox="0 0 28 28">
    <defs>
        <filter id="er6gybup2a" color-interpolation-filters="auto">
            <feColorMatrix in="SourceGraphic" values="0 0 0 0 1.000000 0 0 0 0 1.000000 0 0 0 0 1.000000 0 0 0 1.000000 0"/>
        </filter>
    </defs>
    <g fill="none" fill-rule="evenodd">
        <g filter="url(#er6gybup2a)" transform="translate(-1134 -2693)">
            <g>
                <path fill="#1DA1F2" fill-rule="nonzero" d="M8.805 25.271c10.567 0 16.346-8.753 16.346-16.345 0-.248 0-.496-.017-.742C26.258 7.37 27.229 6.364 28 5.21c-1.048.465-2.16.77-3.3.904 1.2-.718 2.097-1.848 2.526-3.178-1.128.67-2.361 1.141-3.648 1.395-1.086-1.155-2.603-1.811-4.188-1.811-3.155 0-5.75 2.596-5.75 5.75 0 .438.05.874.148 1.3-4.616-.231-8.924-2.415-11.84-6.002-1.515 2.61-.73 5.993 1.78 7.669-.915-.027-1.81-.274-2.608-.72v.073c0 2.725 1.939 5.092 4.609 5.632-.846.23-1.733.264-2.594.098.75 2.335 2.915 3.944 5.367 3.99-2.034 1.598-4.548 2.466-7.134 2.464C.91 22.773.454 22.745 0 22.69c2.627 1.686 5.684 2.58 8.805 2.576" transform="translate(1134 2693)"/>
            </g>
        </g>
    </g>
</svg>
