<svg width="20" height="20" viewBox="0 0 20 20" xmlns="http://www.w3.org/2000/svg">
    <path d="M10 .833a9.167 9.167 0 1 1 0 18.334A9.167 9.167 0 0 1 10 .833zM5.877 10.834H2.546a7.507 7.507 0 0 0 5.56 6.425 13.597 13.597 0 0 1-2.229-6.425zm11.577 0h-3.33a13.584 13.584 0 0 1-2.23 6.425 7.508 7.508 0 0 0 5.56-6.425zm-5 0H7.548c.21 2.26 1.06 4.415 2.452 6.207a11.907 11.907 0 0 0 2.454-6.207zM8.106 2.74l-.211.06a7.507 7.507 0 0 0-5.35 6.367h3.33a13.584 13.584 0 0 1 2.23-6.427zM10 2.96a11.907 11.907 0 0 0-2.454 6.208h4.906A11.917 11.917 0 0 0 10 2.959zm1.892-.218.105.156a13.612 13.612 0 0 1 2.126 6.27h3.331a7.507 7.507 0 0 0-5.562-6.426z" fill="#52545A" fill-rule="nonzero"/>
</svg>
