<svg width="29" height="28" viewBox="0 0 29 28" xmlns="http://www.w3.org/2000/svg" xmlns:xlink="http://www.w3.org/1999/xlink">
    <defs>
        <path d="M8.575 12.315c0 .971.55 1.76 1.226 1.76.676 0 1.224-.789 1.224-1.76 0-.972-.548-1.76-1.224-1.76-.676 0-1.226.788-1.226 1.76z" id="a"/>
    </defs>
    <g transform="translate(2.25)" fill="none" fill-rule="evenodd">
        <path d="M15.152 0c.283 0 .572.046.883.141 1.011.308 1.409.891 1.647 1.412l.1.234.045.112c.164.412.293.738.72 1.03.322.218.613.28.936.306l.614.03.276.025c.568.07 1.216.278 1.788 1.011.624.804.579 1.495.444 2.047l-.067.244-.12.42c-.075.295-.1.572.023.925.143.411.384.628.69.859l.35.263c.483.375 1.019.913 1.019 1.973s-.536 1.596-1.018 1.972l-.216.163c-.37.273-.661.49-.825.96-.123.353-.097.629-.022.924l.087.305c.073.246.03.483-.062.759l-.113.305h-.283l.002-.036v-.386c0-.865-.723-1.582-1.642-1.663l-.175-.007c-.57 0-1.04-.384-1.11-.88l-.008-.126v-2.49c0-2.266-1.646-4.18-3.9-4.775a5.888 5.888 0 0 0-1.188-.185l-.31-.008h-2.935a5.89 5.89 0 0 0-1.498.193c-2.172.574-3.78 2.374-3.893 4.534l-.006.242v2.49c0 .512-.428.935-.98.997l-.14.008c-.94 0-1.718.665-1.807 1.51l-.008.16.001.422h-.283l-.05-.135c-.132-.352-.211-.634-.122-.929l.086-.305c.074-.296.1-.572-.023-.926-.122-.352-.317-.562-.563-.76l-.479-.363C.535 12.627 0 12.09 0 11.03c0-1.06.536-1.598 1.018-1.972l.216-.163c.37-.275.663-.49.825-.96.123-.354.097-.63.023-.926l-.154-.539c-.157-.57-.261-1.305.411-2.171.572-.734 1.22-.942 1.788-1.011l.276-.025.615-.03c.323-.025.612-.088.933-.305.375-.255.521-.537.662-.88l.152-.378c.233-.548.612-1.198 1.699-1.53A3 3 0 0 1 9.348 0c.577 0 1.016.195 1.378.402l.293.176c.39.244.702.438 1.231.438.463 0 .758-.149 1.088-.35l.144-.088c.413-.256.929-.578 1.67-.578z" fill="#FFF"/>
        <path d="M22.05 16.676c0 .945-.817 1.718-1.815 1.718-.618 0-1.12.462-1.12 1.032v4.599c0 1.953-1.674 3.538-3.739 3.538H9.124c-2.065 0-3.739-1.585-3.739-3.538v-4.599c0-.57-.5-1.032-1.12-1.032-.998 0-1.815-.773-1.815-1.718v-.397c0-.944.817-1.716 1.815-1.716.618 0 1.12-.462 1.12-1.034v-2.558c0-2.33 1.646-4.296 3.9-4.909a5.74 5.74 0 0 1 1.497-.198h2.935c.519 0 1.025.07 1.499.198 2.253.613 3.899 2.579 3.899 4.909v2.558c0 .57.5 1.034 1.118 1.034 1 0 1.817.772 1.817 1.716v.434-.037z" stroke="#FFF" stroke-width="1.5" stroke-linejoin="round"/>
        <path d="M14.7 16.421c-.103 1.312-1.16 2.345-2.45 2.345-1.29 0-2.347-1.033-2.45-2.346" stroke="#FFF" stroke-width="1.5" stroke-linecap="round" stroke-linejoin="round"/>
        <path d="M13.475 12.315c0 .971.55 1.76 1.226 1.76.676 0 1.224-.789 1.224-1.76 0-.972-.548-1.76-1.224-1.76-.676 0-1.226.788-1.226 1.76z" fill="#FFF"/>
        <use fill="#FFF" xlink:href="#a"/>
    </g>
</svg>
