<svg width="20" height="20" viewBox="0 0 20 20" xmlns="http://www.w3.org/2000/svg">
    <g transform="translate(1.25 1.25)" stroke="#52545A" stroke-width="1.5" fill="none" fill-rule="evenodd" stroke-linecap="round" stroke-linejoin="round">
        <path d="M15 12.5c-.639 3.333-1.889 5-3.75 5h-5c-1.861 0-3.111-1.667-3.75-5M7.5 17.5l-1.509-6.27M10 17.5l1.509-6.27"/>
        <path d="M13.261 5.003c2.442.93 4.235 2.58 4.235 4.572.043.779-.283 1.538-.896 2.09-.613.552-1.457.845-2.323.807-1.089.003-2.115-.457-2.768-1.242-.64.798-1.666 1.27-2.759 1.27s-2.12-.472-2.759-1.27c-.651.787-1.678 1.25-2.768 1.248-.867.038-1.712-.255-2.326-.809-.613-.553-.937-1.314-.893-2.094 0-1.996 1.793-3.65 4.23-4.575"/>
        <circle cx="8.75" cy="5" r="2.5"/>
        <path d="M8.75 2.5a2.5 2.5 0 0 1 2.5-2.5"/>
    </g>
</svg>
