<svg xmlns="http://www.w3.org/2000/svg" width="163" height="318" viewBox="0 0 163 318">
    <g fill="none" fill-rule="evenodd">
        <g fill="#FFBB7C">
            <g>
                <path d="M202.134 270.385l.987.988-52.076 52.076-.988-.988 52.077-52.076zm-105.43-10.117l.989.988-52.077 52.076-.987-.988 52.076-52.076zm169.597-2.697l.987.988-52.076 52.076-.987-.988 52.076-52.076zm-25.432-.246l.988.988-52.076 52.076-.987-.987 52.075-52.077zm22.102-9.263l.988.987-47.679 47.679-.987-.987 47.678-47.68zm-125.19-3.192l.987.988-47.679 47.679-.988-.988 47.68-47.679zm-27.415-11.1l.987.987-52.075 52.076-.988-.988 52.076-52.076zm85.854 4.014l.987.987-47.678 47.679-.988-.988 47.679-47.678zm-15.46 28.297l.989.988-13.757 13.756-.988-.987 13.757-13.757zm13.713-.874l.988.987-13.757 13.757-.987-.987 13.756-13.757zm-36.887-1.628l.988.987-13.757 13.757-.987-.987 13.756-13.757zm-25.43-.246l.987.988-13.757 13.756-.988-.987 13.757-13.757zm133.38-43.512l.987.987-52.076 52.077-.987-.988 52.076-52.076zm-106.88 29.85l.987.988-22.09 22.09-.987-.988 22.09-22.09zm-7.875-30.64l.987.988-52.076 52.076-.988-.987 52.077-52.076zm78.727 23.98l.987.988-22.09 22.089-.987-.988 22.09-22.09zm-21.373-4.304l.988.987-22.09 22.09-.988-.988 22.09-22.09zM84.69 208.093l.987.987L33.6 261.156l-.988-.987 52.077-52.076zm167.144-.247l.988.987-52.076 52.076-.988-.987 52.076-52.076zm-36.887-1.628l.988.987-52.076 52.077-.988-.988 52.076-52.076zm-25.43-.246l.987.988-52.076 52.076-.988-.987 52.077-52.077zm-65.438 26.923l.988.987-22.09 22.09-.988-.987 22.09-22.09zm-32.176 6.499l.988.987-13.757 13.757-.988-.988 13.757-13.756zm193.439-.864l.988.988-13.757 13.756-.987-.988 13.756-13.756zm8.491-34.168l.987.988-47.678 47.678-.988-.988 47.68-47.678zm-186.79-5.784l.987.988-52.077 52.076-.987-.988 52.076-52.076zm18.061-5.223l.987.988-52.076 52.076-.988-.988 52.077-52.076zm86.515 3.354l.987.988-47.678 47.678-.988-.988 47.679-47.678zm108.713-6.008l.988.987-52.076 52.077-.988-.988 52.076-52.076zm-163.51 35.128l.987.987-13.757 13.757-.988-.987 13.757-13.757zm125.649-35.781l.988.987-47.68 47.679-.987-.988 47.679-47.678zm-137.604-3.617l.987.987-47.678 47.679-.988-.988 47.679-47.678zm116.23-.687l.989.987-47.68 47.679-.987-.988 47.679-47.678zm77.208-.177l.988.987-47.679 47.679-.987-.988 47.678-47.678zm-114.71 24.842l.986.988-22.09 22.09-.986-.988 22.09-22.09zm-94.188 4.319l.988.987-13.757 13.757-.987-.988 13.756-13.756zm13.714-.875l.987.988-13.757 13.757-.987-.988 13.757-13.757zm71.061-45.385l.988.987-52.076 52.077-.988-.988 52.076-52.076zm78.728 23.98l.987.987-22.09 22.09-.987-.988 22.09-22.09zm-114.756-.79l.988.987-22.09 22.09-.987-.988 22.09-22.09zm-21.372-4.304l.987.987-22.089 22.09-.988-.988 22.09-22.09zm43.7-30.861l.987.987-52.077 52.076-.987-.987 52.076-52.076zm-81.292 4.261l.987.987-47.678 47.68-.988-.988 47.68-47.679zm161.765-7.705l.987.987-52.076 52.077-.988-.988 52.077-52.076zM103.73 189.05l.987.988-13.756 13.756-.988-.987 13.757-13.757zm201.067-34.168l.987.987-47.678 47.679-.988-.988 47.68-47.678zm-70.81 32.293l.989.988-13.757 13.757-.988-.988 13.757-13.757zm-145.684-8.374l.987.988-22.09 22.09-.987-.989 22.09-22.089zM242.48 153.01l.988.988-47.68 47.678-.987-.987 47.679-47.679zM73.75 142.002l.988.987-52.076 52.077-.988-.988 52.077-52.076zm86.255 3.613l.988.988-47.679 47.678-.988-.987 47.68-47.679zm108.974-6.267l.988.987-52.076 52.077-.988-.988 52.076-52.076zM152.478 165.98l.987.987-22.09 22.09-.987-.987 22.09-22.09zm-71.439 7.246l.988.988-13.757 13.757-.987-.988 13.756-13.757zm150.079-34.533l.987.988-47.679 47.679-.987-.988 47.679-47.679zm70.395 32.312l.987.987-13.756 13.757-.988-.987 13.757-13.757zm-170.408-9.329l.988.988-22.09 22.09-.987-.988 22.09-22.09zm78.64-27.286l.987.987-47.678 47.679-.988-.988 47.679-47.678zm77.207-.178l.988.988-47.679 47.679-.988-.988 47.68-47.679zm-114.711 24.844l.987.987-22.09 22.09-.987-.988 22.09-22.09zm146.218-30.674l.988.988-52.076 52.076-.988-.988 52.076-52.076zM107.345 159.76l.987.987-13.756 13.757-.988-.988 13.757-13.756zm-25.43-.246l.986.988-13.756 13.757-.988-.988 13.757-13.757zm26.499-13.661l.988.987-22.09 22.09-.988-.988 22.09-22.09zm133.143-4.76l.987.987-22.09 22.09-.987-.988 22.09-22.089zM79.792 148.8l.987.988-13.756 13.757-.988-.988 13.757-13.757zm125.649-35.781l.988.987-47.679 47.68-.987-.989 47.678-47.678zm-21.373-4.304l.988.987-47.679 47.68-.987-.988 47.678-47.68zm-37.504 24.666l.988.988-22.09 22.09-.988-.988 22.09-22.09zm18.142-30.98l.987.987-52.076 52.076-.987-.987 52.076-52.076zm-25.431-.246l.988.988-52.077 52.076-.987-.988 52.076-52.076zm90.326-.458l.988.987-52.077 52.077-.986-.988 52.075-52.076zm23.844 1.833l.987.988-47.678 47.678-.988-.987 47.679-47.679zm46.551 30.479l.988.987-13.757 13.757-.988-.987 13.757-13.757zm-30.142-8.373l.987.988-22.09 22.09-.987-.989 22.09-22.089zM137.152 91.44l.988.987-52.076 52.076-.988-.987 52.076-52.076zm24.225 1.451l.988.988-47.68 47.679-.987-.988 47.679-47.679zm26.002 25.351l.988.988-22.09 22.089-.987-.987 22.09-22.09zm-86.254-3.613l.987.987-22.09 22.09-.987-.987 22.09-22.09zM294.52 88.131l.988.988-47.68 47.678-.987-.988 47.679-47.678zm-6.5 32.175l.988.988-13.756 13.757-.988-.988 13.757-13.757zm-37.86-.653l.987.987-13.757 13.757-.988-.987 13.757-13.757zm-170.408-9.329l.988.988-22.09 22.09-.988-.988 22.09-22.09zm43.7-30.861l.987.987-52.077 52.076-.987-.987 52.076-52.076zm143.654-2.433l.987.987-52.076 52.076-.988-.987 52.077-52.076zm47.22 29.81l.988.987-22.09 22.09-.987-.988 22.09-22.09zM203.926 76.02l.988.987-52.077 52.076-.987-.988 52.076-52.076zm84.97 30.574l.988.987-13.757 13.757-.987-.987 13.756-13.757zm26.5-13.662l.988.988-22.09 22.089-.987-.987 22.09-22.09zm-7.874-30.64l.986.988-52.076 52.076-.987-.987 52.077-52.077zM206.42 99.2l.988.987-13.757 13.757-.988-.987L206.421 99.2zm-52.333-37.535l.988.987-47.68 47.679-.987-.987 47.679-47.68zm70.395 32.312l.987.987-13.757 13.757-.987-.987 13.757-13.757zM132.715 57.36l.988.987-47.68 47.68-.987-.988 47.679-47.679zM95.21 82.027l.987.987-22.09 22.09-.987-.987 22.09-22.09zM241.43 51.353l.987.988-52.076 52.076-.988-.988 52.077-52.076zm104.826-2.12l.988.987-52.076 52.076-.988-.987 52.076-52.076zM280.82 76.155l.987.988-22.09 22.09-.987-.988 22.09-22.09zm-97.072 7.203l.988.988-13.757 13.757-.987-.988 13.756-13.757zm8.491-34.167l.988.988-47.679 47.679-.988-.988 47.68-47.68zm56.405 33.463l.987.988-13.756 13.757-.988-.988 13.757-13.757zm15.139-40.815l.988.987-52.077 52.077-.987-.988 52.076-52.076zm18.062-5.224l.987.988-52.076 52.076-.988-.987 52.077-52.077zm-63.106-1.085l.987.987-52.076 52.076-.988-.987 52.077-52.076zm-54.212 28.535l.988.987-22.09 22.09-.987-.989 22.09-22.088zm72.184-33.67l.988.988-47.679 47.679-.987-.988 47.678-47.679zm64.896-.704l.988.988-47.679 47.678-.987-.987 47.678-47.679zm-149.035-5.025l.988.987-52.076 52.077-.988-.988 52.076-52.076zm23.843 1.834l.988.987-47.679 47.679-.987-.987 47.678-47.68zm109.733 31.488l.988.988-13.757 13.757-.988-.988 13.757-13.757zm13.713-.874l.987.987-13.756 13.757-.988-.987 13.757-13.757zm-76.894-.136l.988.987-13.757 13.757-.988-.987 13.757-13.757zM217.49 11.1l.987.988L170.8 59.767l-.988-.987 47.68-47.68zm-44.36 31.522l.987.988-13.757 13.757-.987-.988 13.757-13.757zM190.076 0l.988.988-52.077 52.076-.988-.987L190.076 0zm85.854 4.015l.987.987L229.24 52.68l-.988-.988L275.93 4.015z" transform="translate(-1277 -1687) translate(1256 1680.949)"/>
            </g>
        </g>
    </g>
</svg>
