<svg xmlns="http://www.w3.org/2000/svg" width="16" height="16" viewBox="0 0 16 16">
    <g fill="none" fill-rule="evenodd">
        <g fill="#15CB9D" fill-rule="nonzero">
            <g>
                <g>
                    <g>
                        <path d="M8 0c.552 0 1 .448 1 1v6h6c.552 0 1 .448 1 1s-.448 1-1 1H9v6c0 .552-.448 1-1 1s-1-.448-1-1V9H1c-.552 0-1-.448-1-1s.448-1 1-1h6V1c0-.552.448-1 1-1z"
                              transform="translate(-1216 -3028) translate(188 3004) translate(1016 12) translate(12 12)"/>
                    </g>
                </g>
            </g>
        </g>
    </g>
</svg>
