<svg width="146" height="17" viewBox="0 0 146 17" xmlns="http://www.w3.org/2000/svg"
     xmlns:xlink="http://www.w3.org/1999/xlink">
    <defs>
        <path id="a" d="M0 0h9.816v12.011H0z"/>
    </defs>
    <g fill="none" fill-rule="evenodd">
        <g transform="translate(.85)">
            <mask id="b" fill="#fff">
                <use xlink:href="#a"/>
            </mask>
            <path d="M8.101 5.612c-.08-.908-.309-1.848-.685-2.825-.318-.838-.533-1.258-.644-1.258-.66.432-1.329 1.065-2.004 1.9a16.949 16.949 0 0 0-1.81 2.767l5.143-.584zm1.575 1.987c.105 1.177.15 2.443.138 3.8-.014.216-.075.371-.183.468a.626.626 0 0 1-.428.144c-.4.001-.62-.225-.66-.676.01-.384.01-.824 0-1.321a21.105 21.105 0 0 0-.074-1.388l-.077-.863-.074-.83-5.972.618c-.356.873-.659 1.96-.91 3.263-.118.657-.367.985-.744.986a.75.75 0 0 1-.47-.144c-.126-.096-.198-.252-.217-.467-.044-.499.19-1.496.7-2.992.643-1.869 1.412-3.462 2.306-4.777C4.207 1.652 5.538.511 7.002 0c.488-.001 1.01.745 1.564 2.238.555 1.493.924 3.28 1.11 5.361z"
                  fill="#73757C" mask="url(#b)"/>
        </g>
        <path d="M21.614 5.696a.587.587 0 0 1-.121.434.478.478 0 0 1-.393.178l-1.755.177-.321 4.615a.526.526 0 0 1-.2.362.664.664 0 0 1-.419.132c-.353 0-.545-.175-.577-.526l.33-4.49-1.548.143c-.123 0-.253-.059-.391-.176-.138-.117-.212-.237-.224-.36-.016-.19.017-.344.101-.46.084-.118.21-.177.377-.178l1.784-.146.142-2.52c.005-.318.19-.477.553-.477.133 0 .265.056.396.17a.63.63 0 0 1 .222.44l-.139 2.241 1.561-.136c.134 0 .268.051.399.152a.58.58 0 0 1 .223.425M29.054 5.858c.027.305-.055.51-.245.612-.128.068-.335.102-.624.102-1.01.001-1.927.364-2.75 1.09-.628.556-.988 1.055-1.082 1.496l-.128 2.004c-.008.284-.194.426-.558.426a.665.665 0 0 1-.437-.156.571.571 0 0 1-.21-.404l.373-5.164c.035-.362.219-.544.552-.544.177 0 .32.05.429.153.109.101.174.265.194.492l-.049.951c.559-.578 1.085-.963 1.579-1.157.643-.25 1.404-.375 2.281-.376.422 0 .647.158.675.475M36.424 10.096c.031.351-.357.694-1.165 1.03-.809.334-1.574.502-2.295.503-1.732.002-2.666-.767-2.803-2.307-.087-.986.159-1.89.741-2.719.66-.929 1.546-1.395 2.656-1.396.71 0 1.295.146 1.754.44.459.294.705.622.738.984.06.68-.535 1.365-1.783 2.058-1.036.578-1.754.868-2.154.87-.199 0-.331-.046-.394-.137-.064-.09-.105-.238-.123-.442-.016-.18.538-.498 1.663-.953 1.126-.454 1.673-.85 1.643-1.19-.014-.159-.117-.283-.308-.374-.191-.09-.503-.135-.936-.135-.822.001-1.45.302-1.885.903-.394.555-.555 1.241-.483 2.056.035.396.171.7.406.908.235.21.602.314 1.101.313.488 0 .995-.115 1.519-.342.499-.249 1.004-.499 1.515-.749.355 0 .553.226.593.68M44.115 10.087c.032.351-.357.695-1.165 1.03-.809.335-1.574.503-2.295.503-1.731.002-2.665-.767-2.803-2.307-.087-.985.159-1.89.741-2.719.661-.929 1.547-1.394 2.657-1.395.71 0 1.295.146 1.754.44.459.294.705.622.737.983.061.68-.534 1.366-1.782 2.058-1.037.58-1.755.868-2.154.87-.2 0-.332-.046-.395-.137-.064-.09-.105-.237-.123-.44-.016-.182.538-.5 1.664-.955 1.125-.454 1.673-.85 1.643-1.19-.015-.159-.118-.283-.309-.374-.19-.09-.503-.135-.936-.134-.821 0-1.449.301-1.884.902-.395.556-.556 1.241-.483 2.056.035.396.17.7.405.908.235.21.603.314 1.102.313.488 0 .994-.114 1.518-.34.5-.25 1.004-.5 1.515-.75.355 0 .553.226.593.678M56.556 1.31a.642.642 0 0 1-.118.45c-.093.13-.246.195-.457.195-.81.001-1.413.4-1.809 1.192-.263.533-.43 1.223-.498 2.073l1.52-.138c.254 0 .433.034.533.101.1.068.161.216.181.442.027.306-.12.518-.443.638-.322.12-.95.18-1.882.18l-.355 4.621a.517.517 0 0 1-.16.352c-.097.094-.262.14-.495.14-.311.001-.487-.23-.528-.695l.348-4.315-1.123.103c-.4.001-.615-.18-.647-.543-.035-.384.172-.61.622-.68.474-.035.887-.068 1.239-.103.057-1.11.274-2.038.651-2.786.595-1.179 1.508-1.769 2.741-1.77.188 0 .345.054.472.161a.552.552 0 0 1 .208.382M61.179 7.996a1.836 1.836 0 0 0-.463-1.086c-.345-.385-.806-.577-1.383-.577-.644.001-1.167.24-1.569.716-.36.43-.518.906-.472 1.427.048.532.196.945.444 1.24.297.35.734.526 1.312.525.643 0 1.173-.228 1.587-.682.416-.453.596-.974.544-1.563zm1.114-.205c.093 1.042-.168 1.914-.783 2.617-.614.703-1.477 1.054-2.586 1.056-.855.001-1.537-.299-2.045-.898-.446-.52-.706-1.194-.779-2.02a2.908 2.908 0 0 1 .731-2.26c.644-.737 1.522-1.106 2.633-1.108.842 0 1.529.287 2.058.864.454.498.712 1.081.771 1.75zM69.643 5.812c.028.306-.054.51-.245.612-.127.07-.335.102-.623.102-1.011.002-1.927.365-2.75 1.091-.628.556-.989 1.054-1.083 1.496l-.127 2.003c-.009.284-.195.426-.559.426a.655.655 0 0 1-.436-.155.568.568 0 0 1-.21-.404l.373-5.164c.034-.363.218-.544.551-.544.177 0 .32.05.43.152.108.101.173.266.193.492l-.048.951c.559-.578 1.085-.963 1.578-1.156.644-.25 1.404-.375 2.281-.376.422 0 .647.157.675.474M81.275 10.046c.031.351-.357.694-1.165 1.03-.809.334-1.574.502-2.295.503-1.731.002-2.666-.767-2.803-2.308-.087-.985.16-1.89.741-2.718.661-.929 1.547-1.395 2.656-1.396.711 0 1.296.146 1.754.44.46.294.705.622.738.984.06.68-.534 1.365-1.783 2.058-1.036.578-1.753.868-2.153.868-.2 0-.332-.044-.395-.136-.064-.09-.104-.237-.122-.44-.017-.182.538-.499 1.663-.954 1.125-.454 1.672-.85 1.643-1.19-.014-.159-.117-.284-.309-.374-.191-.09-.503-.136-.936-.135-.821.001-1.449.302-1.884.903-.395.555-.556 1.24-.484 2.055.036.397.171.7.406.91.235.208.603.312 1.102.312.488 0 .994-.115 1.518-.342.499-.249 1.005-.499 1.515-.749.355 0 .553.226.593.68M88.495 5.86c-.38.962-1.025 2.135-1.935 3.517-.969 1.462-1.608 2.194-1.919 2.194-.3 0-.719-.814-1.258-2.445-.54-1.63-.839-2.785-.899-3.464-.036-.408.134-.612.511-.612.367 0 .664.51.894 1.528.229 1.02.534 2.038.912 3.057.352-.42.747-.975 1.185-1.667a21.467 21.467 0 0 0 1.517-2.787l.992.678M95.96 10.03c.031.35-.358.694-1.166 1.03-.808.333-1.573.501-2.294.502-1.732.002-2.666-.767-2.803-2.307-.088-.985.159-1.89.74-2.719.661-.929 1.547-1.395 2.657-1.395.71 0 1.295.146 1.754.44.459.293.705.622.737.983.061.68-.534 1.366-1.782 2.058-1.036.58-1.754.868-2.154.87-.2 0-.331-.046-.395-.137-.063-.09-.104-.237-.122-.442-.017-.18.538-.498 1.663-.953 1.126-.454 1.673-.85 1.643-1.19-.014-.159-.117-.283-.308-.374-.191-.09-.504-.135-.936-.134-.822 0-1.45.301-1.885.902-.395.556-.555 1.241-.483 2.056.035.396.17.7.406.908.235.21.602.314 1.101.313.489 0 .995-.114 1.518-.34.5-.25 1.005-.5 1.515-.75.356 0 .554.226.594.678M103.44 5.774c.028.306-.055.51-.245.612-.127.068-.335.102-.623.103-1.011.001-1.927.364-2.75 1.09-.628.556-.989 1.054-1.082 1.496l-.128 2.004c-.009.284-.195.425-.559.426a.663.663 0 0 1-.437-.156.573.573 0 0 1-.21-.404l.374-5.164c.034-.363.218-.544.551-.544.177 0 .32.05.43.152.108.102.173.266.193.493l-.048.95c.559-.578 1.084-.963 1.578-1.156.644-.25 1.404-.375 2.281-.376.422 0 .647.157.675.474M111.427 5.766l-4.081 10.23c-.09.238-.279.357-.567.357-.123 0-.242-.059-.357-.178-.117-.119-.184-.286-.204-.502-.009-.102.055-.328.19-.68.419-1.022.897-2.202 1.433-3.54-.847-1.78-1.577-3.135-2.193-4.064a96.753 96.753 0 0 1-1.118-1.717c-.037-.408.155-.613.575-.613.254 0 .76.593 1.518 1.78a33.528 33.528 0 0 1 1.771 3.135l1.894-4.65a.445.445 0 0 1 .236-.246.872.872 0 0 1 .4-.093c.289 0 .456.26.503.781M122.601 5.923a.58.58 0 0 1-.118.442c-.097.113-.238.17-.427.17-.078 0-.259-.05-.546-.152a2.888 2.888 0 0 0-.979-.152c-.855.001-1.568.343-2.14 1.026-.522.626-.754 1.263-.696 1.911.03.341.157.608.379.802.223.193.518.29.883.29.5-.002.962-.106 1.388-.314.412-.23.83-.462 1.254-.693.188 0 .335.054.439.163a.671.671 0 0 1 .179.42c.026.296-.266.632-.876 1.01a4.136 4.136 0 0 1-2.208.635 2.655 2.655 0 0 1-1.754-.628c-.504-.419-.786-.97-.847-1.65-.09-1.023.194-1.942.854-2.76.749-.933 1.785-1.4 3.105-1.4.544-.002 1.027.091 1.449.278.422.186.642.387.661.602M130.186 7.335c.095 1.062.057 2.016-.112 2.863-.168.848-.431 1.271-.786 1.272-.399 0-.616-.19-.651-.575.107-.553.2-1.126.281-1.718.08-.593.098-1.138.054-1.634-.04-.452-.091-.745-.153-.88-.062-.136-.176-.204-.343-.204-.299.001-.89.31-1.773.93-.883.617-1.333 1.08-1.349 1.385l-.169 2.242c-.006.306-.214.46-.625.46a.463.463 0 0 1-.383-.199.88.88 0 0 1-.175-.464l.758-9.885a.477.477 0 0 1 .172-.342.558.558 0 0 1 .376-.136.64.64 0 0 1 .62.611l-.424 5.707c.801-.6 1.388-.997 1.76-1.19.551-.295 1.082-.443 1.593-.443.345 0 .64.228.886.685.246.457.394.962.443 1.515M133.801 3.43c.023.261-.035.456-.172.586-.14.131-.325.196-.557.196a.786.786 0 0 1-.551-.195c-.144-.129-.228-.325-.251-.585-.023-.249.032-.442.164-.578a.668.668 0 0 1 .498-.204c.245 0 .445.067.601.203.157.136.246.328.268.577zm-.394 2.311c.019.204.014.521-.015.951a461.264 461.264 0 0 0-.316 4.315.434.434 0 0 1-.174.374.67.67 0 0 1-.413.137c-.122 0-.246-.054-.372-.162a.596.596 0 0 1-.212-.416c-.013-.147-.004-.424.026-.832.101-1.234.215-2.7.341-4.4.005-.317.191-.476.557-.476a.54.54 0 0 1 .406.161.566.566 0 0 1 .172.348zM137.574.98l-.771 9.99a.473.473 0 0 1-.194.352.738.738 0 0 1-.464.14.446.446 0 0 1-.358-.164.694.694 0 0 1-.161-.397l.743-9.989c.007-.293.195-.44.561-.44.154 0 .298.044.428.135.13.09.203.215.216.373M144.297 6.443c-.073-.069-.442-.102-1.109-.101-.978.001-1.72.341-2.226 1.021a2.712 2.712 0 0 0-.545 1.937c.029.318.167.555.414.713.176.113.366.17.565.17.467 0 1.007-.172 1.621-.512a5.414 5.414 0 0 0 1.065-.749l.215-2.479zm1.577-5.439-.735 10.091c-.009.272-.207.408-.596.41a.557.557 0 0 1-.396-.154c-.109-.102-.174-.265-.194-.492.029-.18.037-.329.028-.442a5.392 5.392 0 0 1-.789.494c-.637.33-1.222.494-1.754.494-.411.001-.824-.146-1.239-.44-.592-.418-.921-1.007-.989-1.765-.086-.962.196-1.846.847-2.65.77-.953 1.855-1.43 3.254-1.432.3 0 .528.011.685.033.159.024.287.046.39.068l.312-4.282a.408.408 0 0 1 .162-.348.68.68 0 0 1 .431-.127c.19 0 .34.073.453.22.077.102.12.21.13.322z"
              fill="#73757C"/>
    </g>
</svg>
