<?xml version="1.0" standalone="no"?>
<!DOCTYPE svg PUBLIC "-//W3C//DTD SVG 20010904//EN"
 "http://www.w3.org/TR/2001/REC-SVG-20010904/DTD/svg10.dtd">
<svg version="1.0" xmlns="http://www.w3.org/2000/svg"
 width="896.000000pt" height="896.000000pt" viewBox="0 0 896.000000 896.000000"
 preserveAspectRatio="xMidYMid meet">
<metadata>
Created by potrace 1.14, written by Peter Selinger 2001-2017
</metadata>
<g transform="translate(0.000000,896.000000) scale(0.100000,-0.100000)"
fill="#000000" stroke="none">
<path d="M3644 7840 c-5 -4 -29 -11 -54 -14 -64 -9 -108 -21 -168 -45 -61 -24
-178 -86 -197 -104 -7 -7 -32 -28 -56 -47 -23 -19 -54 -48 -68 -65 -14 -16
-36 -39 -47 -51 -12 -13 -19 -25 -16 -28 3 -3 0 -6 -6 -6 -7 0 -12 -5 -12 -11
0 -6 -6 -17 -12 -24 -30 -33 -43 -50 -41 -52 4 -6 -22 -63 -29 -63 -4 0 -5 -7
-2 -15 4 -8 1 -15 -7 -15 -7 0 -9 -3 -6 -7 4 -3 2 -12 -3 -19 -6 -6 -9 -18 -8
-25 2 -8 -2 -13 -8 -12 -5 1 -9 -11 -8 -26 1 -16 -2 -35 -7 -42 -5 -8 -9 -10
-9 -5 0 5 -6 4 -12 -1 -11 -9 -45 -20 -70 -23 -4 -1 -41 -16 -82 -35 -41 -18
-77 -31 -80 -28 -3 4 -6 2 -6 -4 0 -6 -15 -16 -32 -23 -18 -8 -41 -20 -50 -28
-10 -8 -18 -11 -18 -6 0 5 -4 4 -8 -1 -17 -24 -83 -65 -94 -59 -6 4 -8 3 -5
-3 4 -6 -5 -18 -19 -28 -26 -17 -184 -170 -184 -178 0 -6 -48 -64 -80 -95 -14
-14 -18 -21 -10 -17 13 8 13 7 0 -11 -8 -10 -19 -22 -25 -26 -5 -4 -7 -8 -3
-8 4 0 -5 -21 -21 -47 -15 -27 -34 -62 -42 -80 -7 -17 -17 -29 -21 -27 -4 3
-5 -1 -2 -9 3 -8 -1 -21 -8 -28 -7 -8 -14 -25 -16 -39 -1 -14 -5 -32 -9 -40
-3 -8 -7 -18 -8 -22 -2 -5 -4 -10 -5 -13 -4 -8 -7 -24 -9 -41 0 -8 -5 -13 -10
-10 -4 3 -6 -6 -3 -21 4 -19 2 -24 -8 -18 -9 6 -10 4 -3 -10 11 -18 6 -58 -6
-51 -3 2 -5 -13 -3 -35 3 -26 0 -39 -8 -39 -9 0 -10 -3 -2 -13 9 -10 7 -19 -4
-35 -13 -19 -13 -21 0 -16 11 4 13 0 9 -15 -5 -18 -8 -19 -22 -9 -10 8 -10 5
3 -10 14 -17 16 -22 5 -22 -9 0 -10 -3 -4 -8 6 -4 12 -20 14 -37 1 -16 4 -39
5 -50 1 -11 -2 -26 -7 -32 -6 -9 -5 -13 2 -13 7 0 9 -5 6 -10 -4 -6 -10 -8
-15 -5 -4 3 -10 2 -12 -3 -4 -9 -63 -52 -73 -52 -3 0 -3 5 1 12 4 7 3 8 -5 4
-6 -4 -9 -11 -6 -16 6 -10 -35 -36 -50 -31 -5 1 -7 -1 -3 -5 8 -8 -32 -41 -45
-36 -4 1 -6 -1 -5 -5 1 -5 -22 -33 -52 -63 -102 -102 -144 -155 -176 -217 -9
-18 -20 -33 -25 -33 -5 0 -9 -5 -9 -11 0 -6 -9 -24 -21 -40 -11 -16 -17 -29
-13 -29 3 0 2 -6 -4 -12 -16 -20 -73 -160 -67 -166 3 -3 1 -10 -4 -16 -12 -15
-41 -126 -47 -184 -7 -66 -9 -76 -16 -87 -3 -5 -2 -19 2 -29 3 -11 3 -37 0
-58 -4 -21 -5 -38 -1 -38 3 0 6 -21 5 -47 -1 -62 22 -198 46 -273 6 -19 13
-42 15 -50 2 -8 5 -22 7 -30 1 -8 6 -18 11 -21 4 -3 9 -14 11 -25 8 -40 137
-269 165 -294 4 -3 19 -23 35 -44 37 -50 183 -196 195 -196 5 0 11 -4 13 -8 4
-11 107 -86 155 -113 76 -44 203 -108 203 -103 0 2 15 -3 32 -13 18 -9 36 -17
40 -18 3 0 10 -3 14 -7 4 -5 13 -8 20 -8 7 0 25 -5 41 -12 29 -12 43 -16 68
-21 8 -2 18 -6 21 -10 4 -4 17 -7 29 -7 12 0 25 -3 29 -7 4 -4 19 -9 34 -11
14 -2 31 -7 37 -11 5 -4 17 -7 25 -6 8 1 26 -3 40 -8 14 -5 36 -11 49 -13 13
-3 50 -11 83 -19 32 -7 58 -11 58 -8 0 3 7 -1 17 -8 9 -8 18 -13 20 -11 1 1 4
2 6 1 1 0 13 -2 27 -4 14 -1 36 -6 50 -9 27 -6 59 -14 100 -22 14 -3 30 -7 35
-8 6 -2 24 -6 40 -10 17 -4 41 -11 55 -16 14 -4 45 -13 70 -20 54 -15 177 -57
205 -69 36 -16 60 -24 68 -23 4 1 7 -3 7 -8 0 -6 9 -10 20 -10 11 0 20 -4 20
-10 0 -5 8 -10 18 -10 10 0 23 -5 28 -10 6 -6 21 -12 33 -15 13 -2 30 -10 38
-17 8 -7 21 -13 29 -14 7 -1 27 -12 43 -23 16 -12 34 -21 40 -21 6 0 11 -4 11
-8 0 -5 8 -13 19 -18 61 -29 229 -192 289 -281 43 -63 122 -207 122 -222 0 -5
8 -26 17 -47 9 -22 18 -43 19 -49 2 -5 10 -31 18 -57 8 -27 12 -48 9 -48 -3 0
-1 -6 5 -12 11 -14 46 -189 57 -288 2 -19 7 -47 10 -62 3 -16 7 -40 9 -55 38
-269 71 -346 158 -360 61 -9 127 71 142 172 4 22 8 47 11 55 2 8 6 33 10 55 3
22 10 67 15 100 5 33 11 78 15 100 3 22 8 56 11 75 13 87 55 265 65 277 6 7 9
13 5 13 -10 0 41 128 91 228 25 50 50 92 55 92 4 0 8 7 8 15 0 8 5 15 10 15 6
0 10 4 10 10 0 14 25 44 115 134 71 72 100 97 153 131 9 6 24 17 34 26 19 16
98 57 203 104 33 15 78 36 101 46 22 11 47 19 55 19 8 0 19 4 25 9 9 9 198 72
224 75 9 1 20 5 25 8 6 3 28 9 50 13 22 5 47 10 55 12 8 2 25 6 37 8 12 2 26
6 31 9 5 3 22 7 38 10 16 3 81 17 144 31 63 15 124 28 135 31 43 9 61 13 94
23 19 6 38 8 42 5 5 -3 9 -1 9 3 0 5 8 9 18 10 9 1 71 20 136 42 66 22 124 37
129 34 6 -3 7 -1 3 5 -3 6 4 14 16 18 38 11 213 97 216 106 2 4 7 8 12 8 11 0
98 59 155 106 67 55 245 237 245 251 0 3 15 26 33 52 19 25 45 66 58 91 13 25
27 47 30 50 3 3 16 32 29 65 13 33 28 66 33 73 5 6 6 12 3 12 -4 0 -2 9 4 21
6 11 13 28 15 37 3 9 9 37 16 62 6 25 13 54 15 65 2 11 6 31 9 45 4 14 8 80
10 148 2 67 7 126 10 131 3 5 1 12 -5 16 -5 3 -10 23 -10 43 0 20 -5 55 -10
77 -5 22 -11 51 -14 65 -3 14 -9 40 -15 59 -6 19 -8 38 -5 42 3 5 0 9 -5 9 -6
0 -11 7 -11 15 0 8 -4 23 -9 33 -19 35 -55 118 -57 131 -2 8 -7 17 -11 20 -15
10 -55 81 -46 81 4 0 3 4 -3 8 -5 4 -23 25 -40 47 -37 50 -63 82 -91 111 -13
13 -23 29 -23 35 0 7 -2 10 -5 7 -3 -3 -26 15 -52 39 -25 25 -57 51 -69 60
-13 8 -21 20 -17 26 3 5 1 7 -5 3 -5 -3 -24 5 -40 19 -16 14 -35 25 -41 25 -6
0 -11 3 -11 8 0 4 -13 13 -30 20 -29 13 -41 32 -20 32 6 0 10 5 10 11 0 5 -4
8 -8 5 -7 -4 -8 33 -2 42 2 1 3 10 4 20 1 9 5 23 10 31 6 10 5 12 -2 7 -7 -4
-12 -4 -13 1 -6 95 -3 153 9 148 7 -2 10 0 7 5 -3 6 -14 10 -23 10 -13 0 -13
2 4 15 13 10 14 13 3 10 -12 -5 -15 1 -14 30 0 19 -3 35 -7 35 -13 0 -9 30 5
30 7 0 5 5 -5 10 -13 8 -30 49 -32 82 -1 3 -4 10 -8 14 -13 12 -9 26 5 18 6
-4 4 2 -6 13 -9 11 -14 23 -10 26 3 4 1 7 -6 7 -9 0 -11 8 -8 21 3 12 3 18 -1
15 -6 -7 -62 101 -62 121 0 7 -4 13 -8 13 -13 0 -44 59 -37 70 4 6 2 9 -3 8
-6 -2 -34 29 -63 67 -29 39 -59 74 -66 78 -7 4 -13 15 -13 22 0 8 -5 15 -10
15 -6 0 -30 19 -53 43 -24 23 -58 53 -76 67 -19 14 -44 35 -56 47 -13 12 -25
20 -28 17 -2 -2 -10 2 -17 11 -7 8 -19 15 -27 15 -8 0 -11 5 -8 10 4 6 3 9 -2
8 -14 -4 -53 13 -53 23 0 5 -3 8 -7 7 -7 -2 -102 39 -145 63 -10 5 -27 9 -37
9 -11 0 -23 5 -26 10 -4 6 -11 8 -16 5 -5 -4 -9 -1 -9 5 0 6 -4 9 -9 5 -5 -3
-21 0 -35 7 -19 8 -25 17 -20 30 3 10 0 18 -6 18 -7 0 -10 8 -7 20 3 11 1 20
-5 20 -5 0 -6 5 -3 10 3 6 1 10 -4 10 -6 0 -11 7 -11 16 0 8 -13 42 -29 75
-17 32 -28 59 -26 59 2 0 -12 17 -30 38 -19 20 -35 43 -35 50 0 7 -7 15 -15
18 -8 4 -12 10 -9 15 3 5 -3 9 -12 9 -10 0 -15 3 -11 6 3 3 -8 18 -24 32 -17
15 -44 39 -61 55 -16 15 -34 27 -40 27 -5 0 -6 6 -2 13 4 6 4 9 -1 5 -4 -4
-32 8 -61 27 -30 19 -54 31 -54 27 0 -4 -7 2 -16 13 -8 11 -18 19 -22 17 -11
-5 -112 29 -108 36 2 4 -10 7 -27 8 -18 1 -45 4 -62 8 -16 4 -66 9 -109 12
-44 3 -83 7 -88 10 -4 3 -8 1 -8 -5 0 -7 -8 -7 -24 -1 -13 5 -27 6 -30 2 -7
-6 -13 -7 -71 -17 -16 -2 -53 -11 -82 -19 -28 -7 -54 -11 -57 -8 -3 3 -6 0 -6
-6 0 -7 -4 -12 -9 -12 -18 0 -146 -63 -177 -86 -17 -13 -33 -24 -36 -24 -3 0
-29 -22 -58 -50 -29 -27 -57 -47 -64 -43 -6 3 -8 3 -4 -2 7 -8 -19 -48 -66
-102 l-20 -23 -17 27 c-10 15 -15 32 -12 37 3 6 3 8 -2 4 -9 -9 -35 16 -35 33
0 7 -2 10 -5 7 -3 -2 -25 15 -49 38 -55 52 -138 113 -191 139 -22 11 -43 24
-46 28 -3 5 -10 8 -15 8 -5 -1 -20 3 -34 8 -14 4 -27 9 -30 9 -3 0 -18 6 -35
12 -50 19 -98 29 -173 35 -31 3 -72 6 -90 8 -17 2 -37 0 -44 -4 -7 -4 -19 -4
-28 1 -10 5 -21 5 -26 0z"/>
<path d="M6075 7231 c-3 -5 -2 -12 3 -15 5 -3 9 1 9 9 0 17 -3 19 -12 6z"/>
<path d="M2816 7202 c-3 -5 1 -9 9 -9 8 0 12 4 9 9 -3 4 -7 8 -9 8 -2 0 -6 -4
-9 -8z"/>
<path d="M6086 7178 c3 -5 10 -6 15 -3 13 9 11 12 -6 12 -8 0 -12 -4 -9 -9z"/>
<path d="M6790 6720 c0 -5 5 -10 10 -10 6 0 10 5 10 10 0 6 -4 10 -10 10 -5 0
-10 -4 -10 -10z"/>
<path d="M7075 6201 c-3 -5 -2 -12 3 -15 5 -3 9 1 9 9 0 17 -3 19 -12 6z"/>
<path d="M1899 6148 c-5 -18 -6 -38 -1 -34 7 8 12 36 6 36 -2 0 -4 -1 -5 -2z"/>
<path d="M1850 5980 c0 -5 5 -10 11 -10 5 0 7 5 4 10 -3 6 -8 10 -11 10 -2 0
-4 -4 -4 -10z"/>
<path d="M7090 5979 c0 -5 5 -7 10 -4 6 3 10 8 10 11 0 2 -4 4 -10 4 -5 0 -10
-5 -10 -11z"/>
<path d="M7051 5954 c0 -11 3 -14 6 -6 3 7 2 16 -1 19 -3 4 -6 -2 -5 -13z"/>
<path d="M1890 5901 c0 -6 4 -13 10 -16 6 -3 7 1 4 9 -7 18 -14 21 -14 7z"/>
<path d="M7135 5880 c-3 -5 -1 -10 4 -10 6 0 11 5 11 10 0 6 -2 10 -4 10 -3 0
-8 -4 -11 -10z"/>
<path d="M1799 5813 c-12 -16 -12 -17 2 -6 9 7 20 9 24 5 5 -4 5 -1 1 6 -9 16
-11 15 -27 -5z"/>
</g>
</svg>
