<svg xmlns="http://www.w3.org/2000/svg" xmlns:xlink="http://www.w3.org/1999/xlink" width="123" height="119"
     viewBox="0 0 123 119">
    <defs>
        <path id="g5djpqjj4a"
              d="M62.32 0C49.025.041 41.522 10.476 37.006 22.166c-1.482 3.523-2.9 7.153-4.673 10.514-1.022 1.927-2.613 4.145-3.955 5.892-2.202 2.939-4.656 5.924-7.523 8.2-4.017 3.464-8.071 7.05-12.06 10.556C1.04 64.505-1.542 75.818.873 86.213c3.881 16.542 17.52 22.074 33.011 20.967 4.467-.301 8.824-1.575 13.269-2.073 6.202-.78 12.461.822 18.476 2.422 4.562 1.228 9.072 2.72 13.704 3.645 3.402.65 6.929.951 10.388.778 6.093-.03 12.779-2.312 10.653-9.97-.354-1.373-1.246-3.021-1.765-4.4-.54-1.046-1.223-1.947-1.724-2.996-.733-1.535-1.84-2.924-2.584-4.467-1.525-2.652-1.782-5.798-1.427-8.8.342-2.62 1.881-4.801 3.616-6.644.988-1.215 2.374-2.013 3.701-2.832 2.042-1.352 4.192-2.315 5.914-4.068 1.505-1.512 2.8-3.196 3.924-5.009.918-1.367 1.563-2.317 1.78-4.039.241-1.551.242-3.116.069-4.671-.197-2.478-.841-4.901-2.436-6.769-2.218-3.205-4.668-6.43-7.162-9.417-.462-.527-.973-1.037-1.528-1.462-1.72-1.214-3.283-2.615-5.147-3.58-.552-.273-1.202-.533-1.786-.733-.725-.373-1.642-.898-2.347-1.297-3.323-1.844-6.17-4.734-8.574-7.757-2.593-3.344-3.093-7.584-4.675-11.408-.893-2.339-1.97-4.52-3.58-6.4C71.554 1.837 66.922.016 62.318 0"/>
    </defs>
    <g fill="none" fill-rule="evenodd">
        <g>
            <g>
                <g>
                    <g transform="translate(-272 -2469) translate(188 2176) translate(64 280) translate(20 13)">
                        <mask id="tkelid2nrb" fill="#fff">
                            <use xlink:href="#g5djpqjj4a"/>
                        </mask>
                        <use fill="#DCD1FE" xlink:href="#g5djpqjj4a"/>
                        <path fill="#FFF"
                              d="M-.496 107.746l.45.378-.374.449c-.126.147-.255.291-.395.425-.027.026-.307-.212-.47-.326l.79-.926zm38.254-1.726l.171.108c0 .358.091.75-.026 1.066-.107.287-.44.49-.674.731l-.175-.202.704-1.703zm-40.032.739c-.362.329-.555.605-.812.69-.109.037-.538-.422-.503-.488.14-.263.38-.505.641-.656.08-.046.345.225.674.454zm13.944-2.63l.476.007.41 1.68-.361.245c-.293-.22-.79-.408-.831-.669-.064-.394.188-.84.306-1.263zm46.437.787c-.578.571-1.528.71-1.834.242-.138-.211-.141-.674.003-.869.339-.455 1.21-.15 1.831.627zM15.9 103.623c.32.042.601.37.899.579-.247.307-.446.7-.765.88-.126.07-.522-.337-.995-.664.415-.402.668-.82.861-.795zm63.525-2.536c1.015.625.933 1.398.595 2.38-.532-.762-1.186-1.35-.595-2.38zm-53.997.963l.153.07c.153.072.307.147.456.19-.686 1.368-.693 1.37-1.726.354.275-.871.686-.802 1.117-.614zm65.963-3.516c.967-.01 1.846 1.613 1.256 2.46-.307.44-.867.977-1.322.986-.85.016-.887-.832-.946-1.492-.096-1.08.367-1.946 1.012-1.954zm-75.862 1.802l-1.385 1.45c-.162-1.071.48-1.78 1.385-1.45zM3.771 97.064c.001.257.113.616-.016.754-.41.439-.909.729-1.505-.228l1.52-.526zm64.72-.896c.038-.017.17.177.31.385l.118.177.11.157c-.246.171-.47.416-.743.494-.273.077-.594-.013-1-.035-.088-.936.695-.95 1.206-1.178zm-54.953-1.48l1.701.479-1.067.759c-.177-.346-.355-.691-.634-1.238zm13.943-2.137c.177.06.499.108.505.182.022.26-.015.552-.126.788-.086.184-.314.301-.505.471-.033-.264-.104-.508-.082-.744.022-.237.135-.465.208-.697zm65.178-2.14c.894.017.92.7 1.096 1.597-.294.176-.648.55-1.035.587-.804.077-.821-.628-.849-1.175-.026-.512.075-1.022.788-1.009zm-10.75-1.556l1.14 1.016-.211.176-1.475-.137.546-1.055zm3.438-3.557l1.181.152.013.566-1.147.172-.047-.89zM.711 83.682c.844.166 1.324.607 1.117 1.461-.049.201-.562.503-.707.434-.914-.43-.633-1.169-.41-1.895zm2.325-3.896c.203.22.874.697.798.915-.17.486-.715.843-1.106 1.252-.32-.332-.836-.624-.913-1.004-.116-.574.173-1.127 1.221-1.163zm-8.468-2.069c.125.175.203.395.255.608.087.359.1.737.216 1.084.225.677-.039.984-1.039 1.035.018-.366.047-.722.049-1.079.002-.305-.048-.611-.036-.915.008-.217.042-.453.143-.638.048-.087.378-.143.412-.095zm41.878-.142l1.038.887-1.165 1.459-.557-1.586.684-.76zm-6.764.488l1.365.564-1.147.58-.448-.981.23-.163zm4.942-6.38l.646 1.146h-2.014l1.368-1.147zm21.318-1.6l.165.33c-.51 1.022-.51 1.022-1.604.544.55-.335.995-.604 1.44-.874zm1.972-1.542c.245.152.59.258.747.49.2.295.44.788.319 1.022-.156.303-.65.436-.997.642-.105-.432-.268-.86-.293-1.295-.017-.306.156-.623.224-.86zm10.055.207l.679 1-.39.385c-.253-.225-.596-.41-.72-.692-.061-.142.275-.457.43-.693zM44.36 66.824c.668.04 1.28.242 1.308 1.264-.317.364-.615 1.01-.953 1.031-.643.04-1.171-.453-1.167-1.184.003-.513.036-1.159.812-1.111zm-15.088.3c.02 1.299-1.29.693-1.8 1.449.028-1.365.845-1.931 1.8-1.449zm43.46-.516l1.412.63c-.043.054-.085.117-.126.182l-.124.198c-.104.162-.211.3-.336.319-.95.139-.514-.834-.827-1.329zm-36.93-.847l.684.64-.79.664c-.172-.21-.516-.46-.478-.62.063-.26.376-.459.583-.684zm14.731-.668l1.803.57-1.489.847-.314-1.417zm-32.864-.627c-.37.575-.615.959-.86 1.342l-.344-.068-.17-1.205 1.374-.07zm-4.224.2c-.62.386-.915.69-1.257.756-.557.107-.981-.245-.818-.797.114-.383.515-.8.886-.938.182-.068.59.466 1.189.979zm19.143-1.377c.086.027.19.349.138.406-.427.473-.816 1.048-1.714 1.004.409-.534.703-.964 1.05-1.345.095-.103.368-.115.526-.065zm-3.476.442l-1.264.701c-.344-.682-.09-1.166.416-1.447.108-.06.554.48.848.746zm11.268-1.663c.099.222.334.498.271.656-.223.558-.548 1.075-.835 1.608l-.498-.293.802-1.941.26-.03zm-31.79.271c.102.208.337.548.283.601-.259.257-.595.436-.904.642l-.354-.523.976-.72zm71.817-.496c.351.058.662.352.99.547l-.044.38c-.282.127-.636.424-.83.344-.329-.137-.557-.513-.828-.788.24-.174.508-.517.712-.483zm-7.509-2.331c.263.437.759.893.76 1.35.004.757-.63 1.109-1.462 1.14-.69-1.596-.648-1.777.702-2.49zM61.23 58.127c.385.382.431.9-.117 1.352-.23.189-.269.605-.428 1.003-.277-.369-.664-.672-.736-1.037-.089-.443-.004-.986.2-1.387.072-.139.877-.134 1.081.07zm-17.166.685c-.053.433-.053.883-.186 1.29-.05.15-.411.199-.63.294-.062-.255-.244-.567-.156-.753.15-.319.468-.558.716-.83h.256zm18.6-2.167c.448.21.858.5 1.325.792l-.762 1.09-.393.08c-.215-.48-.473-.95-.615-1.45-.036-.127.383-.541.445-.512zm-3.957-1.49c1.372.546 1.351 1.301.94 2.335-.359-.148-.985-.245-1.026-.455-.11-.558.034-1.166.086-1.88zm20.477-2.586c.965.692 1.313 1.628.774 2.23-.17.188-.765.238-1 .091-.98-.61-.941-.82.226-2.321zm-7.763-.321c1.038.524.23 1.346.451 2.14-.867-.905-.963-1.457-.451-2.14zm-57.015-.063c.331.356.868.684.925 1.08.04.28-.53.722-.914.937-.11.061-.526-.421-.967-.794l.956-1.223zm71.327-.026v1.168l-1.185-.823.016-.287 1.17-.058zM57.29 48.292c1.096.488 1.59 3.175.779 4.032-.62.654-1.928.34-2.303-.593-.18-.45-.232-.951-.379-1.591.286-.569.56-1.246.966-1.835.106-.153.666-.133.937-.013zm44.489 3.136l.221.92-1.754-.208.115-.331 1.418-.381zm-42.476-2.106c.109.202.193.416.272.604l.723-.14c-.23.312-.459.626-.878 1.198-.213-.718-.337-1.12-.437-1.528-.004-.02.314-.144.32-.134zm34.306-.056l.508.582-.683.874c-.104-.254-.314-.523-.284-.76.032-.248.296-.465.459-.696zm7.847-.84l.408 1.847-.33.084-.051-.064-.109-.128c-.365-.429-.724-.88.082-1.739zm-18.183-2.743c.342.309.841.562.977.942.108.304-.197 1.079-.37 1.095-.51.049-1.046-.177-1.572-.296l-.171-.394c.378-.45.757-.898 1.136-1.347zm-28.16-5.344l.233.132.21.995.664-.984c.233.932.602 1.715.564 2.478-.032.644-.425 1.368-.878 1.852-.215.229-1.11.168-1.41-.09-.8-.687-.638-1.688-.35-2.568.21-.641.637-1.213.967-1.815zm7.722-.044l.52.636-1.216.85-.396-.505 1.092-.98zm-12.357-1.734c.22.09.59.136.633.278.176.588.08 1.112-1.091 1.34l.458-1.618zm43.34 1.105l-.965.43v-1.223c.686-.157.686-.157.965.793zm-66.254-1.942c-.506.414-.78.793-1.11.852-.206.036-.75-.5-.705-.625.128-.357.428-.738.763-.9.156-.075.55.337 1.052.673zm64.053-2.459l1.284.238-1.088 1.106-.196-1.344zm-61.164.09c.112.769-.42 1.004-1.175 1.05-.226-.68-.39-1.3.412-1.531.202-.06.733.277.763.482zm39.352-.43l.033.418-1.705 1.011c-.04-.373-.18-1.034-.1-1.061.565-.195 1.175-.261 1.772-.368zm-48.501-1.831c.287.36.755.697.803 1.085.021.172-.154.369-.356.568l-.203.2c-.067.067-.13.133-.184.198l-1.029-1.059.969-.992zm53.972-3.844l1.128.844-.037.29-2.294-.391 1.203-.743zm-35.09-1.258l.79.861c-.29.174-.566.433-.877.484-.152.025-.532-.355-.516-.524.023-.24.316-.456.602-.821zm9.688-1.86l.316 1.382-.249.211c-.264-.334-.545-.66-.765-1.02-.015-.026.243-.215.516-.429l.182-.144zm-31.302-2.658c.046.326.207.701.096.96-.066.154-.561.126-.864.18l-.127-.266.534-.85.36-.024zm54.347-6.85c.348.104.846.108 1.012.344.162.23-.016.696-.045 1.06h-1.454l.487-1.405zm-12.906-.737c-.261.42-.543.888-.845 1.342-.06.091-.207.186-.304.177-.094-.01-.263-.172-.249-.228.075-.281.122-.651.322-.8.342-.255.79-.368 1.076-.49zm-15.775-.936c.186.245.564.54.516.723-.08.299-.438.524-.834.946-.223-.46-.513-.794-.437-.962.132-.29.491-.477.755-.707zm5.3-5.13c.041.055.09.113.143.172l.162.177c.16.177.297.348.262.47-.092.326-.502.562-.778.835l-.355-.147.231-1.406.335-.102zm-2.36-2.709c-.13.432-.271.862-.385 1.299-.026.1.02.237.074.336.099.183.227.35.343.523-.196.048-.394.086-.586.144-.316.094-.628.2-.94.3-.383-1.269-.088-2.203 1.495-2.602zm16.825-.043l-.134 1.752c-.989-.762-.974-.975.134-1.752zm-31.51-1.9c.617.3 1.485.449 1.636.859.203.555-.12 1.315-.29 1.969-.018.074-.623.143-.757.012-.351-.34-.722-.76-.838-1.212-.105-.404.12-.892.249-1.628zM64.04 2.84c.403.364.692.505.77.721.132.367.152.781.158 1.176 0 .044-.54.184-.575.127-.19-.311-.332-.662-.422-1.017-.052-.206.024-.445.069-1.007zm-25.407-.304c-.031.263-.005.532-.005.796-.58.071-1.148.213-1.705.182-.339-.02-.923-.28-.944-.48-.066-.617.04-1.295.864-1.442.257-.045.55.056.79-.022.99-.322 1.092.199 1 .966zm27.431-.706c.101.336.116.698.166 1.05l-.248.21c-.23-.382-.486-.754-.669-1.158-.035-.076.196-.357.346-.401.103-.03.364.162.405.3zM56.322-.617l-.172.42c-.278.21-.533.487-.847.596-.114.04-.56-.419-.526-.485.18-.354.415-.733.738-.94.128-.081.53.26.807.409zm-12.537-.934c-.11.368-.426.674-.8 1.197-.346-.447-.71-.748-.656-.882.14-.344.42-.692.739-.871.11-.063.751.44.717.556zm4.191-1.804c.211.122.405.497.377.738-.027.238-.34.442-.43.546l.23 1.052-.465.104c-.147-.714-.318-1.426-.405-2.147-.01-.08.556-.373.693-.293zm-3.76-.745c-.293.533-.613 1.295-.71 1.268-.552-.154-1.24-.417-1.062-1.172.084-.353.486-.772.829-.87.203-.059.57.451.943.774zm20.671-.239l-.758-1.13c1.024-.14 1.413.088.758 1.13zm-21.26-3.442c.179.09.28.505.25.754-.016.126-.39.26-.616.298-.304.05-.623.012-1.143.012.13-.416.158-.935.432-1.214.159-.16.756-.012 1.078.15z"
                              mask="url(#tkelid2nrb)"/>
                        <g fill="#353535">
                            <path d="M30.17 74.356l-.002-.024v.002l.002.022M30.168 74.332l-.002-.017.002.016v.001M83.188 15.92l.006-.01.018-.03-.024.04M83.182 15.93v0M84.504 14.152l.022-.021.004-.005c-.008.01-.017.018-.026.026M41.282 8.827l.024-.024.032-.031-.056.055M38.896 15.033v-.004-.002.006zM14.506 90.566l-.039.048-.028.036.067-.084M9.989 87.527l.008-.018-.004.01-.004.008M5.647 88.126c0 .012-.002.023-.003.035v.004l.003-.039M1.814 98.587l-.01-.006-.055-.032.065.038"
                                  transform="translate(16 1)"/>
                            <path d="M30.28 75.459l-.003-.02.003.02zM18.514 98.392c.115-.2.243-.394.372-.592.126-.19.268-.386.436-.6.279-.354.619-.752.93-1.096l.033-.04.031-.028.017-.023.037-.038.025-.028c.093-.097.183-.195.274-.293l.186-.2c.243-.239.508-.463.743-.66l.162-.138c.285-.244.585-.48.878-.71l.117-.092c.367-.291.74-.542 1.056-.75l.345-.23c.211-.14.424-.282.64-.418.23-.131.46-.259.693-.387l.501-.276c.418-.235.86-.455 1.2-.62l.637-.313c.164-.081.333-.154.502-.225l.144-.06c.363-.16.727-.3 1.13-.451l.091-.035.226-.087c.2-.078.4-.156.602-.226l.977-.344c.194-.069.39-.13.588-.192l.046-.015.195-.06c.19-.059.378-.124.565-.188l.221-.076.276-.084.275-.085c.116-.035.233-.065.35-.098.09-.023.18-.047.27-.073.347-.099.691-.209 1.037-.32l.304-.097c.185-.054.371-.106.558-.159l.098-.028c.197-.053.393-.108.588-.165.256-.074.511-.155.765-.235l.128-.042.059-.018.468-.15c.437-.135.832-.259 1.235-.4.213-.074.428-.148.642-.219.224-.073.446-.155.668-.24.19-.07.376-.152.533-.223 0 0 .007-.002.008-.001l-.002.01-.056.041-.057.043c-.303.23-.621.49-1 .82-.725.632-1.376 1.208-1.98 1.841-.331.346-.663.692-.985 1.046l-.12.129c-.111.122-.224.246-.33.372l-.459.543-.082.097c-.12.14-.235.278-.342.423-.095.13-.189.26-.282.392l-.111.157c-.245.343-.5.686-.754 1.02-.429.56-.856 1.094-1.273 1.586-.237.282-.475.562-.716.84-.175.2-.355.395-.536.589l-.088.094-.128.125c-.133.129-.27.262-.413.383l-.074.064c-.345.297-.702.604-1.097.859-.297.179-.62.344-.958.488l-.116.052c-.089.04-.177.08-.269.113l-.388.14c-.522.151-.917.274-1.282.395l-.343.114-.203.069-.103.031c-.071.023-.143.044-.21.07l-.376.152c-.063.026-.125.057-.186.088l-.093.046c-.09.045-.179.091-.268.138l-.082.045c-.165.087-.33.175-.498.255-.152.074-.315.138-.468.196l-.144.056c-.099.04-.198.082-.297.124-.172.074-.368.158-.562.223-.277.08-.57.138-.828.19l-.298.06c-.276.06-.548.148-.816.236l-.205.067c-.246.072-.493.118-.732.136-.284.003-.533-.018-.763-.065-.181-.047-.339-.105-.483-.177-.232-.133-.473-.28-.716-.439l-.048-.031-.045-.03c-.088-.058-.178-.117-.265-.178.31-.118.62-.24.928-.36.417-.161.824-.35 1.232-.534.196-.09.4-.165.6-.246.195-.079.394-.153.584-.24.4-.187.795-.38 1.19-.574.455-.223.903-.458 1.352-.693.413-.216.82-.445 1.23-.669.36-.196.712-.402 1.064-.613.28-.169.562-.336.843-.505.111-.068.226-.132.336-.204l1.336-.87c.907-.589 1.812-1.181 2.723-1.763.192-.123.21-.417.082-.589-.026-.034-.057-.064-.091-.088-.056-.04-.121-.067-.19-.075-.115-.015-.21.02-.304.081-.815.521-1.628 1.045-2.436 1.576-.38.248-.758.495-1.138.741l-.524.342c-.156.1-.32.192-.48.287-.39.234-.782.466-1.17.703-.813.446-1.628.886-2.45 1.314-.387.203-.786.389-1.178.581-.367.182-.744.337-1.122.49-.222.091-.446.178-.665.278-.203.091-.407.189-.613.276-.41.174-.823.332-1.238.491l-.318.117c.14-.429.32-.826.485-1.164zm3.362-18.255l-.021-.02c-.183-.184-.366-.369-.547-.558-.114-.121-.228-.243-.34-.367-.091-.104-.175-.22-.269-.347l-.04-.055c-.14-.191-.27-.398-.408-.62l-.063-.102c-.154-.246-.305-.496-.46-.753-.217-.386-.377-.704-.502-1-.193-.45-.333-.795-.455-1.12l-.11-.285c-.11-.284-.22-.569-.321-.857-.114-.32-.208-.65-.306-.999l-.017-.057-.045-.17c-.066-.244-.132-.487-.19-.734-.064-.268-.124-.568-.192-.947-.05-.288-.09-.577-.131-.867l-.01-.063c-.038-.282-.06-.562-.062-.86l-.004-.04V69.167l-.001-.176v-.083l.005-.079-.001-.05v.002l-.007.015.001-.053v-.197l.006-.172.007-.194c.007-.229.013-.46.03-.69.024-.382.054-.79.111-1.191.04-.296.103-.592.167-.877l.059-.278c.05-.238.109-.473.169-.708l.074-.292.126-.46c.178-.656.38-1.4.638-2.097.036-.1.074-.197.11-.294l.048-.123c.105-.27.212-.548.3-.826.134-.434.262-.867.39-1.302l.018-.063c.138-.47.276-.965.434-1.56.094-.35.178-.711.26-1.06l.015-.067.117-.498.275-.98.073-.255c.074-.265.14-.531.207-.8.035-.14.07-.28.107-.42l.118-.442.108-.407c.063-.235.123-.471.182-.705l.021-.08.035-.12.024-.092v.002l-.007.023.005-.022-.01.021c.045-.175.088-.351.132-.526l.02-.083.068-.28.077-.29.078-.297c.073-.275.169-.542.25-.748h.001l.004.005.019.135.019.136c.023.158.04.315.058.474l.008.083c.026.237.053.482.058.726-.004.434-.047.884-.085 1.282l-.032.343c-.033.377-.078.754-.123 1.13l-.006.045-.017.151-.046.366c-.043.338-.08.643-.103.95-.03.431-.041.865-.05 1.31l-.001.103c-.004.207-.007.423.013.631.02.232.046.461.079.69.025.178.061.353.097.528l.032.153c.038.194.084.395.143.616l.078.298.02.076c.201.762.41 1.55.578 2.334.162.762.316 1.583.333 2.428-.002.497-.039 1.022-.109 1.558-.014.119-.03.237-.046.356l-.01.068c-.035.27-.078.575-.104.875-.039.449-.008.9.093 1.338.105.46.297.885.52 1.354.152.316.285.569.418.797l.089.147c.133.223.27.453.375.693.212.473.48 1.099.68 1.747.072.28.12.556.165.84.045.275.09.568.099.863-.009.346-.051.683-.126 1.002-.08.27-.158.509-.238.727l-.06.17c-.071.207-.144.407-.228.598-.22.505-.442.96-.68 1.391-.14.234-.296.467-.456.705l-.042.06c-.097.143-.193.287-.285.434-.07.11-.148.232-.235.36-.034-.245-.074-.488-.125-.73-.041-.197-.066-.395-.1-.592-.04-.22-.083-.442-.125-.664-.078-.41-.164-.822-.266-1.227-.066-.266-.136-.53-.212-.794-.06-.212-.132-.42-.204-.63-.151-.45-.298-.903-.444-1.354-.067-.21-.14-.415-.224-.618-.074-.184-.167-.36-.226-.551l-.041-.128-.039-.139c-.065-.265-.13-.53-.193-.796-.023-.1-.044-.2-.064-.3-.026-.127-.058-.255-.077-.382-.04-.26-.08-.517-.113-.778-.029-.234-.04-.47-.051-.706.006-.437.026-.87.057-1.306.032-.455.089-.909.139-1.362.048-.44.102-.88.16-1.32.056-.429.128-.856.19-1.284.071-.495.142-.987.182-1.486.013-.16-.054-.313-.175-.4-.052-.037-.114-.063-.184-.072-.217-.028-.45.135-.468.363-.074.921-.25 1.826-.37 2.742-.057.44-.111.88-.16 1.32-.049.45-.107.9-.139 1.352-.027.373-.052.745-.057 1.119-.003.236 0 .47.01.706.01.182.03.365.053.545.096.772.26 1.536.469 2.285l-.031-.109c.052.188.102.377.168.56.054.145.12.287.182.428.141.324.242.668.35 1.004.102.316.204.63.311.943l.158.465c.042.123.075.25.11.375.214.847.404 1.703.538 2.566.06.375.145.744.198 1.12-.144-.118-.282-.252-.43-.396zm9.976-27.64l-.063-.04-.1-.066-.083-.059c-.128-.092-.25-.195-.405-.33-.167-.165-.328-.333-.49-.505-.152-.164-.294-.335-.438-.506l-.063-.077c-.288-.34-.538-.719-.78-1.087l-.03-.045c-.218-.348-.467-.767-.661-1.227l-.056-.132c-.155-.364-.349-.817-.497-1.26-.11-.393-.22-.786-.325-1.181-.104-.387-.178-.786-.25-1.18l-.018-.095c-.081-.448-.136-.846-.167-1.219l-.009-.101c-.032-.377-.064-.754-.088-1.133v-.047c-.004-.184-.007-.373.005-.56l.023-.362.025-.362c.012-.228.016-.459.018-.684l.001-.07V40.1c.002-.161.004-.323.01-.484.009-.196.026-.392.043-.586l.01-.09.038-.498.01-.136.009-.1c.033-.467.072-.896.117-1.312l.106-.968.046-.426c.016-.153.042-.303.072-.477l.037-.23c.024-.155.05-.309.08-.46l.055-.27c.032-.155.064-.31.1-.464l.021-.109-.001.005-.007.03.007-.03-.012.03.014-.067c.045-.212.086-.425.126-.638l.066-.338c.06-.28.127-.56.193-.839l.034-.145.055-.237c.058-.245.11-.49.158-.737.02-.107.036-.214.052-.321l.008-.054.014-.09.025-.15c.06-.37.144-.855.245-1.351.088-.443.126-.888.154-1.303.008-.143.026-.282.05-.449l.023-.164c.024-.19.052-.38.082-.57l.03-.21.032-.212c.035-.253.07-.506.117-.758.065-.28.158-.539.241-.755l.192-.506.123-.32c.002.001.006.015.007.016.005.15.018.298.031.447.01.102.018.205.026.308l.015.558.002.057c.006.242.012.484.026.725.012.243.034.486.056.73l.014.157.032.399.009.142c.01.17.02.342.041.51.012.1.027.201.043.31l.047.354c.03.253.055.504.079.757.017.179.043.356.07.533l.023.16c.029.206.061.41.094.617l.017.11c.024.146.046.291.068.437.058.394.12.786.188 1.178.056.327.129.694.229 1.156.026.121.063.242.101.362l.021.069.036.12c.039.135.081.269.124.403l.018.057.018.054c.151.495.318 1.024.496 1.535.157.441.304.88.453 1.344.066.224.113.414.145.6.034.195.047.39.057.557.01.333.013.67.012 1.003.001.292-.03.592-.095.917-.041.18-.083.361-.128.54-.06.242-.114.479-.126.717-.02.44 0 .87.02 1.286l.005.096c.018.329.052.632.104.928l.064.364.028.155c.027.156.054.312.079.467l.027.184.03.183c.027.188.055.376.089.563.047.27.1.591.122.911l.004.16c.006.203.012.414.036.62l.028.224c.021.164.043.329.052.493.007.23.007.457.007.686v.102c-.001.147-.002.293 0 .44 0 .11.003.222.006.333.003.152.005.303.003.455 0 .226-.023.454-.07.698-.023.112-.05.222-.076.332l-.012.05-.068.293c-.052.24-.124.463-.212.67-.118-.234-.23-.471-.335-.713-.18-.42-.317-.855-.454-1.29-.062-.236-.128-.471-.193-.706-.056-.207-.104-.417-.153-.626-.107-.44-.206-.884-.298-1.328-.179-.87-.312-1.748-.442-2.626-.066-.446-.14-.892-.179-1.342-.044-.513-.086-1.025-.12-1.54-.032-.462-.038-.926-.05-1.389-.012-.445-.02-.891-.03-1.337l-.012-.556c-.002-.104-.086-.216-.166-.275l-.006-.005c-.087-.062-.196-.089-.303-.072-.11.017-.208.077-.274.166-.071.1-.078.195-.075.313.02.944.027 1.889.07 2.83.019.447.045.893.084 1.338.04.457.078.913.144 1.367.14.957.287 1.913.457 2.865.079.445.18.887.282 1.328.096.42.198.84.312 1.255.126.463.257.922.415 1.374.146.413.316.814.506 1.206.085.173.177.34.271.507-.097-.062-.194-.125-.29-.19zM41.14 33.03c.023-.204.052-.405.088-.606.026-.15.061-.296.103-.468l.023-.092c.027-.115.064-.23.108-.365l.028-.091.037-.119c.036-.124.079-.245.122-.366l.046-.132c.076-.207.15-.412.233-.616.079-.193.168-.379.268-.586.17-.352.401-.693.586-.968l.018-.026c.237-.327.47-.61.712-.865.279-.29.589-.572.857-.813.16-.134.324-.263.488-.391l.049-.038.071-.056c.204-.162.402-.33.6-.5l.128-.11c.15-.128.306-.254.462-.381l.096-.079c.136-.111.272-.222.407-.336l.518-.448.184-.16.39-.338c.19-.163.378-.325.561-.495.182-.168.358-.336.536-.507l.283-.27.191-.181.428-.411c.126-.12.244-.248.362-.375l.106-.116c.15-.16.3-.32.447-.483.192-.212.378-.43.563-.65l.338-.397c.216-.246.45-.528.716-.865l.155-.193.159-.194.004-.001.003.006c-.07.192-.14.384-.202.579-.1.315-.181.642-.254.93l-.037.144c-.1.405-.163.802-.185 1.183-.009.172-.014.346-.02.518l-.002.087c-.005.178-.01.354-.019.532-.012.159-.032.318-.063.484-.034.193-.093.382-.146.544-.135.365-.29.728-.442 1.079l-.012.029c-.152.356-.325.758-.47 1.15-.14.385-.266.804-.381 1.282-.024.104-.05.207-.077.31l-.03.114-.057.221c-.027.105-.049.21-.072.316l-.008.034-.008.038c-.018.082-.035.165-.056.247-.04.17-.09.338-.143.506-.164.442-.355.866-.503 1.186-.16.341-.358.69-.607 1.065-.283.37-.605.72-.958 1.037-.22.173-.47.369-.742.51-.137.058-.286.103-.482.148-.171.039-.34.081-.51.126l-.046.013c-.32.085-.651.172-.991.238l-.122.024-.238.042-.103.018-.227.038c-.014.002-.028.005-.042.005h.028c-.176.035-.353.074-.53.114l-.123.028-.246.054-.065.007-.024.005.022-.005c-.157.015-.315.017-.46.018l.045.003-.05-.003H42.9l-.113-.007-.114-.01c-.223-.017-.443-.048-.652-.09-.082-.016-.163-.04-.245-.062l.326-.406c.18-.223.376-.433.573-.642.284-.296.572-.585.84-.894.26-.3.521-.596.79-.887.3-.284.605-.561.916-.833.308-.27.605-.551.912-.821.64-.564 1.334-1.063 2.028-1.556.186-.133.198-.422.062-.592-.024-.03-.052-.056-.081-.077-.15-.108-.35-.095-.506.015-.741.528-1.486 1.059-2.16 1.673-.332.303-.668.6-1.003.9-.18.162-.36.323-.535.489-.183.172-.354.353-.524.537-.17.183-.33.376-.493.563-.155.18-.314.354-.475.527-.33.342-.66.683-.97 1.046-.12.141-.236.287-.352.433l.007-.11.01-.112zm14.971.463l-.063-.088c-.114-.16-.236-.332-.342-.508l-.058-.095c-.11-.18-.218-.36-.32-.545-.104-.193-.21-.388-.313-.583-.151-.322-.322-.697-.454-1.091-.133-.403-.252-.818-.354-1.232-.19-.907-.277-1.713-.269-2.463.017-.266.047-.534.082-.83l.02-.188.022-.187.026-.253.027-.253.004-.05c.028-.271.055-.542.09-.812.04-.314.096-.632.153-.95.023-.121.044-.242.065-.362l.049-.29.014-.09c.014-.09.03-.179.046-.266l.029-.164.028-.162c.014-.082.034-.163.054-.244l.03-.124c.02-.082.043-.163.068-.243l.03-.098c.124-.383.242-.768.359-1.152l.015-.048c.069-.228.139-.455.21-.681.064-.201.132-.401.204-.601.058-.161.13-.323.194-.465l.049-.108c.095-.213.188-.427.28-.643.061-.146.114-.297.166-.448l.014-.038.053-.153.103-.3.055-.163c.096-.284.192-.569.299-.848.052-.139.112-.272.172-.406l.019-.043.078-.175c.08-.182.152-.368.223-.553l.022-.052c.144-.377.263-.772.378-1.152l.012-.038c.044-.148.088-.296.14-.463l.014-.041.024-.077.033-.106.013-.022.002-.007-.009.013.026-.083c.136-.412.266-.845.41-1.361l.111-.42.02-.072c.071-.268.142-.537.224-.801.124-.338.252-.674.38-1.01.042-.106.085-.21.128-.314l.042-.105.052-.114h.002l.005.005c.031.228.04.47.05.682l.008.189.008.19.002.06c.003.092.008.184.014.275.006.112.02.224.035.336l.02.16.036.358.007.07c.02.191.04.384.066.574.03.231.07.478.126.782l.041.195v-.024l.017.078.011.051.016.069.008.037.01.048.008.037c.032.152.065.305.107.456.046.167.1.333.154.498.122.365.264.75.432 1.178.056.14.113.28.173.417l.021.053.068.16c.052.118.102.236.146.355.067.18.129.361.189.544.053.159.108.333.154.53l.088.408.012.083.009.04.001-.018.056.296.027.145c.033.18.055.32.067.47.006.085.01.171.012.258l.003.064c.006.287.006.57-.001.87-.017.234-.053.48-.11.754l-.041.185-.025.107c-.03.132-.067.262-.105.394l-.053.188c-.107.394-.182.756-.23 1.104-.055.395-.11.79-.156 1.186-.038.333-.053.668-.067 1.041l-.011.12-.004.09.005-.019-.009.2c-.014.33-.03.673-.12.997-.054.16-.112.316-.171.473l-.099.263-.07.197c-.082.226-.164.452-.251.676-.095.245-.198.504-.329.747-.153.279-.286.51-.427.74-.105.164-.215.334-.312.51-.099.175-.194.364-.283.56-.072.16-.141.326-.209.492l-.02.046c-.075.187-.152.375-.238.56-.108.24-.233.473-.354.7-.076.141-.152.284-.225.428-.19.375-.325.79-.401 1.23-.005-.282-.01-.564-.013-.845-.004-.162.008-.324.015-.487l.034-.87c.008-.186.032-.372.048-.557l.067-.764c.022-.24.056-.479.084-.718.02-.175.04-.35.066-.524.05-.338.089-.679.149-1.015l-.008.044v.005l-.012.058.02-.108-.008.044.033-.183-.003.017.01-.058.004-.02.002-.008c.009-.03.014-.06.016-.092l.03-.162c.013-.075.036-.156.045-.236.006-.026.01-.052.012-.08v-.001l.005-.028.016-.088c.005-.03.01-.061.017-.092l-.004.022-.009.048.008-.044-.003.018v-.003c.005-.02.008-.042.012-.063l.006-.033-.017.095c.08-.343.152-.687.24-1.027.102-.4.205-.798.315-1.195.212-.767.436-1.53.663-2.293.052-.177-.013-.368-.157-.472-.034-.023-.071-.043-.113-.056-.212-.07-.46.052-.525.27-.231.777-.459 1.554-.673 2.334-.108.39-.209.784-.31 1.177-.04.157-.075.314-.111.471-.044.194-.095.387-.133.582l-.005.031-.024.13-.016.088-.003.016-.002.008c-.01.03-.015.063-.017.095l-.029.16c-.013.074-.035.155-.045.235-.006.026-.01.052-.012.08v.002c0-.002 0-.005.002-.008l-.002.008v.002l-.018.097.002-.012-.003.016-.015.085c-.041.231-.071.465-.106.699-.028.193-.06.386-.083.58-.054.459-.111.917-.152 1.377-.028.3-.054.602-.08.903-.015.173-.017.347-.023.52l-.034.845c-.007.169.003.34.005.509l.01.754c0 .105.001.21.005.315-.081-.102-.162-.209-.245-.325zm19.201-18.525l.008-.013.019-.028.008-.012-.045.07.01-.017zm.031-.048l.014-.021-.008.013-.008.01.002-.002zm12.463.713l-.002.001-.032.019-.006.003.04-.023zM56.343 46.755c.533-.562.986-.985 1.424-1.33.203-.16.425-.31.648-.458l.154-.102c.281-.19.564-.376.85-.558l.053-.031c.133-.08.266-.16.399-.236l.066-.04c.057-.034.115-.07.173-.097l.157-.076.156-.075c.151-.073.3-.143.455-.207l.36-.146.359-.146c.096-.04.193-.075.29-.11l.042-.014.153-.055.138-.05c.124-.047.25-.094.377-.135l1.107-.347c.171-.048.346-.09.518-.134l.07-.018.04-.009c.21-.051.418-.103.625-.164.39-.114.81-.225 1.246-.33l.117-.03c.441-.106.882-.213 1.323-.328.474-.124.949-.245 1.425-.366 1.589-.404 3.168-.874 4.696-1.328l.584-.173.59-.172.121-.034.255-.074c.202-.058.405-.109.608-.16l.134-.032h.003l-.001.01-.35.195-.61.339-.484.27-.243.136-.486.273-.155.089c-.177.1-.356.202-.529.31-.185.117-.367.237-.548.36-.201.135-.4.276-.597.417-.039.028-.076.059-.114.09l-.027.02-.062.05-.063.05-.028.023c-.054.042-.108.085-.16.131-.188.165-.37.332-.548.505-.16.153-.31.317-.456.477l-.033.036-.058.064c-.272.296-.526.602-.83.973-.264.324-.55.654-.93 1.071-.754.79-1.34 1.369-1.9 1.88-.364.334-.67.61-1.013.865-.377.281-.758.559-1.139.836-.205.149-.416.289-.627.429l-.148.098-.08.054-.119.08c-.16.106-.318.212-.48.317l-.086.048c-.107.06-.215.12-.327.173-.298.14-.568.263-.856.357-.29.079-.594.122-.898.165l-.229.033-.153.022c-.288.044-.588.088-.885.107-.273.003-.562-.02-.938-.078-.115-.018-.229-.042-.343-.066l-.046-.01c-.463-.116-.95-.247-1.395-.465-.102-.058-.2-.12-.3-.183l-.136-.084c-.178-.11-.36-.193-.542-.246-.136-.04-.28-.065-.426-.086.343-.132.691-.25 1.036-.374.493-.177.984-.357 1.476-.533.431-.145.865-.286 1.292-.443.417-.152.824-.33 1.239-.49.411-.157.827-.3 1.235-.465.219-.088.443-.166.658-.263l.662-.303c.084-.038.165-.088.248-.132.137-.074.275-.147.412-.222.184-.1.364-.205.546-.308.416-.239.833-.479 1.247-.723.1-.058.175-.134.212-.247.032-.105.024-.22-.025-.316-.03-.061-.076-.114-.132-.154-.123-.088-.292-.116-.426-.036-.414.245-.832.484-1.248.722-.181.106-.362.211-.545.31l-.413.22c-.083.046-.165.096-.25.136-.223.1-.445.202-.667.304-.216.098-.443.177-.663.265-.414.166-.837.312-1.254.472-.226.086-.448.182-.673.272-.241.096-.484.188-.727.277-.428.144-.857.284-1.282.437-.422.15-.842.305-1.262.456-.42.15-.845.29-1.257.458l-.069.03c.043-.093.089-.184.137-.276.174-.31.342-.583.516-.832.202-.292.426-.562.639-.812zm15.12-3.543c.005-.007.01-.013.016-.018l.003-.003c-.005.006-.012.014-.02.02zm-8.107 33.851c.116-.064.207-.18.232-.312.014-.077.017-.175-.01-.252-.021-.063-.048-.14-.082-.195-.063-.101-.135-.186-.217-.262.064-.02.132-.051.186-.081.116-.065.204-.152.275-.265.103-.164.076-.416-.04-.563-.067-.084-.13-.147-.214-.211l-.097-.07c.08-.05.156-.109.23-.177.113-.105.164-.251.177-.402.01-.125-.043-.252-.113-.351-.059-.083-.13-.152-.21-.21-.17-.121-.377-.188-.584-.212-.129-.014-.242-.01-.369.01l-.199.033c-.135.022-.269.047-.404.075-.398.087-.792.196-1.18.32-.203.065-.404.132-.603.205-.223.081-.436.187-.65.29-.048.022-.09.065-.122.115-.588-.09-1.177-.178-1.767-.254-.445-.058-.888-.141-1.33-.218-.42-.07-.842-.124-1.262-.184-.224-.032-.449-.06-.67-.097-.228-.038-.456-.078-.685-.111-.471-.071-.943-.131-1.419-.172-.47-.04-.94-.095-1.408-.153-.432-.053-.867-.085-1.3-.13-.197-.02-.39-.043-.586-.075-.172-.03-.342-.073-.513-.114-.235-.062-.47-.122-.7-.192-.13-.039-.26-.079-.384-.131-.18-.074-.359-.148-.534-.232.074-.034.148-.067.221-.103.46-.221.916-.447 1.37-.678.832-.425 1.643-.89 2.457-1.347.341-.193.68-.388 1.018-.587.39-.23.782-.453 1.166-.69l1.924-1.186c.017.012.033.024.052.033.06.03.12.063.183.091.115.049.239.08.359.114.15.041.303.064.453.103.135.036.27.078.407.106.199.041.406.057.608.08.24.026.481.02.723.02.085.001.17.003.255-.001.138-.009.274-.043.404-.086.12-.04.243-.083.35-.154.048-.032.091-.076.133-.114.06-.054.115-.113.144-.19.035-.093.06-.196.045-.296-.007-.04-.016-.074-.027-.107.046-.018.09-.038.135-.06.046-.024.088-.05.127-.084.087-.079.13-.13.191-.231.046-.075.067-.183.061-.27-.009-.138-.077-.239-.17-.334-.093-.095-.265-.129-.385-.165-.09-.027-.182-.048-.273-.072l-.022-.005.003-.004c.076-.122.105-.293.058-.432-.021-.063-.077-.153-.132-.195l-.026-.02c-.066-.047-.108-.063-.194-.09-.136-.043-.3-.049-.44-.047-.124.002-.25.037-.369.066l-.036.01c.038-.105.062-.214.06-.328-.003-.17-.049-.308-.174-.426-.1-.096-.236-.113-.366-.117-.147-.007-.304.077-.43.143-.102.055-.203.112-.3.175-.192.127-.37.273-.53.44-.14.148-.258.321-.374.489-.093.133-.18.27-.265.407-.105.166-.198.35-.195.542L53.1 68.057c-.37.228-.74.453-1.115.673-.372.22-.742.443-1.118.654l-1.475.832c-.375.213-.757.411-1.135.616l-.14.073c.13-.293.274-.58.43-.858.241-.418.51-.819.796-1.205.316-.429.667-.828 1.028-1.217l.926-.917c.16-.159.335-.305.502-.455l.559-.508c.147-.132.307-.252.46-.376l.626-.514c.162-.131.334-.25.5-.373l.487-.362.234-.172c.07.028.138.038.212.048.136.02.27.053.406.076.402.067.813.026 1.217-.001.188-.013.376-.018.563-.04.209-.023.414-.06.619-.107.352-.081.705-.159 1.041-.296l.528-.216c.22-.09.421-.215.54-.428.098-.174.078-.394-.033-.556-.078-.112-.2-.189-.322-.244l-.03-.013c.203-.166.424-.415.405-.696-.007-.12-.042-.205-.1-.308-.058-.107-.168-.174-.265-.237-.08-.051-.186-.08-.277-.102-.021-.005-.043-.01-.065-.012l.06-.07c.126-.146.248-.33.28-.524.02-.123 0-.252-.07-.356-.063-.094-.18-.178-.294-.193-.148-.02-.29.007-.433.051-.28.089-.554.227-.803.384l-.025.016.078-.194c.084-.214.168-.429.195-.658.02-.161-.002-.337-.094-.475-.03-.043-.082-.099-.135-.137-.02-.014-.04-.025-.058-.033-.086-.036-.152-.046-.246-.05-.115-.003-.237.073-.322.14-.062.047-.12.103-.177.157-.084.077-.163.157-.244.237-.247.245-.482.501-.705.769-.238.288-.429.62-.626.938-.176.288-.35.58-.47.896-.07.186-.134.374-.196.564-.047.146-.092.29-.117.443-.009.053-.005.105.005.155-.565.418-1.13.835-1.694 1.254-.133.1-.26.208-.389.314l-.697.57c-.117.096-.225.2-.337.3l-.696.631c-.266.242-.515.503-.77.756-.153.15-.308.298-.454.455-.386.415-.752.847-1.087 1.306-.67.92-1.206 1.935-1.596 3.007-.378.183-.756.364-1.148.52-.203.08-.408.158-.611.239-.388.132-.774.268-1.162.4-.238.082-.475.162-.715.234-.225.067-.451.128-.677.19-.44.122-.892.215-1.34.305-.429.087-.865.137-1.299.193-.429.055-.855.13-1.283.19-.49.069-.98.124-1.472.18-.434.049-.866.096-1.298.148-.238.028-.473.06-.709.095-.226.034-.448.078-.672.12-.342.066-.68.148-1.023.211-.364.067-.73.14-1.08.261-.234.08-.464.169-.694.26l.776-.862c.15-.166.295-.334.448-.498.57-.608 1.137-1.218 1.707-1.827.93-.995 1.89-1.96 2.842-2.932.887-.906 1.806-1.781 2.684-2.698l1.9-1.987c.093-.098.182-.195.27-.297.29-.331.577-.665.866-.997l.93-1.071c.136-.157.28-.309.409-.473L46.18 59.4l.512-.652c.15-.192.286-.395.427-.594l1.57-2.196c.081-.112.156-.227.23-.344.258-.398.514-.798.772-1.197l.752-1.17c.095-.145.191-.29.28-.44l.702-1.176 1.695-1.02c.144-.086.29-.169.436-.25.195-.11.39-.227.59-.33l.207-.11c.198.097.434.116.648.151.267.043.536.066.802.118.11.031.214.07.317.118.121.07.238.145.355.22.192.124.404.226.618.307.219.085.439.159.664.224.492.142.998.253 1.509.302.657.064 1.312-.067 1.959-.16.133-.019.267-.037.4-.058.31-.051.608-.132.903-.24.17-.062.334-.139.497-.215.1-.046.201-.09.298-.144.127-.071.257-.138.378-.217l.32-.207c.17-.11.336-.227.505-.34.37-.248.735-.503 1.097-.766.377-.275.75-.553 1.115-.843.162-.13.316-.273.47-.413.179-.164.357-.33.532-.496.686-.656 1.347-1.336 1.988-2.035.282-.308.539-.637.807-.958.29-.347.588-.685.893-1.02.18-.176.36-.35.55-.518.185-.164.38-.318.573-.473.09-.073.19-.136.286-.204.09-.064.18-.128.273-.19.176-.119.353-.238.532-.35.795-.469 1.602-.912 2.41-1.355.401-.22.798-.45 1.199-.675.207-.116.413-.237.612-.365l.298-.193.142-.093c.152-.102.347-.213.413-.397.012-.042.022-.086.026-.13.02-.146-.057-.3-.178-.387-.059-.042-.127-.068-.2-.07-.257-.005-.517.061-.769.106-.208.039-.415.084-.622.134-.441.11-.878.233-1.32.346-.88.228-1.75.495-2.623.753-.908.269-1.819.532-2.731.79-.837.235-1.682.438-2.523.657-.485.128-.97.25-1.459.367-.422.1-.846.202-1.263.324-.228.066-.455.13-.686.187-.206.051-.414.096-.618.155-.481.135-.957.291-1.434.442-.208.065-.409.142-.612.217-.181.065-.362.13-.54.202l-.777.315c-.068.028-.132.062-.198.095l-.406.196c-.18.086-.352.2-.525.303-.206.122-.41.248-.61.378-.38.247-.762.496-1.13.76-.367.26-.703.555-1.031.863-.342.318-.67.655-.972 1.01-.289.34-.537.703-.78 1.078-.137.213-.25.442-.368.666-.092.179-.176.37-.24.562-.04.122-.056.246-.062.372l-.245.127c-.192.1-.379.209-.566.315-.16.09-.322.18-.48.275l-.454.273c.168-.29.336-.58.5-.872.717-1.27 1.435-2.538 2.14-3.814.72-1.304 1.44-2.608 2.15-3.919.23-.42.459-.841.687-1.262.108-.199.22-.396.324-.597l1.103-2.115c.25-.48.505-.959.748-1.443.424-.84.846-1.681 1.268-2.521.636-1.262 1.227-2.546 1.832-3.822.113-.239.221-.48.327-.722.04-.012.077-.03.111-.056.339-.265.677-.53 1.008-.803.364-.3.716-.62 1.074-.926.36-.309.71-.63 1.052-.958.327-.316.666-.618.994-.932.144-.136.278-.285.415-.43.154-.16.308-.321.46-.483.318-.334.628-.676.943-1.014.344-.368.69-.734 1.042-1.095.227-.234.456-.465.685-.697.08.032.16.061.245.084.098.028.202.035.304.044.251.022.505.007.754-.033.28-.046.555-.113.83-.177.21-.05.421-.095.632-.142.439-.091.881-.173 1.318-.277.436-.106.86-.235 1.288-.37.434-.138.872-.266 1.307-.398.432-.132.856-.29 1.28-.445.66-.24 1.327-.458 1.982-.71.322-.124.642-.26.963-.39h.004c.036.034.078.064.125.085.136.06.288.076.433.088.176.015.353.012.53.026.211.017.419.036.631.035.192-.001.381-.036.57-.058.204-.024.409-.034.614-.052.188-.017.374-.047.56-.074.184-.025.368-.03.552-.049.207-.02.41-.058.616-.088.183-.028.369-.04.55-.07.2-.034.394-.084.589-.135.193-.046.388-.081.58-.137.214-.064.384-.21.49-.407.067-.128.1-.294.033-.43-.045-.093-.103-.176-.192-.23-.08-.048-.153-.09-.242-.116-.114-.034-.23-.06-.347-.08-.172-.03-.345-.056-.517-.084-.194-.03-.388-.068-.585-.073-.032-.002-.064-.002-.096-.002l.182-.084c.177-.085.355-.167.534-.25.097-.045.189-.1.282-.15.12-.066.239-.13.355-.2.252-.152.302-.56.044-.734-.12-.082-.215-.09-.352-.09-.035.001-.069.004-.103.007-.187.018-.37.067-.552.109l-.197.041.088-.068c.112-.086.223-.173.33-.266.103-.088.2-.184.29-.283.096-.105.16-.232.176-.373.012-.11-.011-.218-.077-.307-.027-.037-.058-.068-.094-.093-.025-.018-.052-.033-.08-.046-.069-.028-.14-.037-.212-.03-.074.003-.144.024-.216.042-.072.018-.144.036-.216.056-.114.031-.226.067-.337.104-.102.034-.201.085-.298.13-.12.053-.234.114-.347.179l-.156.09c.155-.232.299-.47.412-.722.038-.086.076-.19.09-.284.01-.037.014-.076.011-.116l.001-.107c-.012-.051-.025-.102-.04-.154-.041-.146-.226-.265-.368-.285-.096-.014-.194.008-.285.036-.166.052-.313.155-.457.25-.29.193-.544.442-.792.685l.08-.078-.154.15c-.124.124-.246.25-.356.389-.113.144-.225.288-.335.435-.23.308-.446.626-.641.957l-.012.02-.09.154.055-.097c-.178.302-.368.61-.502.936-.116.28-.239.578-.253.883-.29.11-.58.222-.867.338-.394.158-.784.326-1.183.466-.453.159-.907.312-1.36.475-.422.153-.843.305-1.268.448-.245.083-.496.151-.745.223-.252.074-.503.154-.755.235-.258.082-.517.171-.78.238-.242.063-.485.121-.73.175-.67.134-1.338.279-2.004.435-.275.054-.546.094-.824.092l.02-.021c.18-.184.348-.378.522-.567.127-.139.248-.282.37-.427.14-.166.288-.329.421-.502.303-.394.605-.789.9-1.189.265-.358.514-.726.766-1.093.212-.31.417-.625.622-.939l-.026.04c.175-.264.35-.53.523-.795l-.008.012.007-.01-.004.007c.183-.28.365-.56.547-.842l-.017.025.022-.032.04-.062-.026.04c.245-.372.48-.752.723-1.127.368-.559.74-1.115 1.122-1.664.075-.01.15-.03.223-.04l-.06.007.065-.01c.161-.02.324-.033.483-.074.154-.041.307-.094.46-.142.155-.048.314-.08.468-.138.12-.045.237-.096.351-.154.095-.047.184-.102.279-.147.2-.079.4-.15.598-.231.155-.065.303-.15.45-.232.157-.088.32-.169.473-.263.168-.104.324-.228.49-.335l.28-.18c.116-.074.22-.168.325-.26.203-.18.44-.36.564-.606.062-.124.09-.248.103-.386.01-.124.003-.257-.073-.361-.079-.108-.178-.21-.312-.242-.085-.02-.171-.03-.258-.034-.178-.01-.352-.006-.529.022l.064-.083c.108-.143.213-.286.304-.442.032-.056.068-.136.087-.195.019-.06.024-.123.031-.186.009-.078-.026-.22-.074-.283-.056-.075-.08-.11-.16-.16-.068-.042-.148-.058-.226-.062-.056-.002-.114.008-.169.023-.036.01-.073.024-.108.04.036-.057.072-.115.107-.174.047-.077.075-.165.108-.247.03-.074.03-.155.04-.232.01-.07-.03-.188-.06-.248-.025-.049-.055-.094-.097-.129-.022-.017-.04-.032-.059-.045-.044-.032-.086-.054-.149-.071-.048-.015-.101-.02-.152-.014-.068.008-.131.015-.194.04-.2.077-.377.184-.555.304-.152.103-.3.207-.442.323.028-.081.049-.164.066-.248.024-.123.054-.28.013-.405-.028-.085-.057-.153-.117-.221-.067-.076-.14-.11-.234-.145-.206-.077-.408.08-.557.202-.083.067-.159.14-.235.214-.169.164-.31.351-.453.538-.546.71-.905 1.543-1.23 2.373-.084.215-.162.435-.235.655-.07.208-.14.414-.198.625-.124.462-.252.927-.337 1.397-.02.115-.018.217.041.32l.011.016-.026.037c-.543.814-1.088 1.624-1.613 2.45-.046.073-.092.147-.14.22l.063-.094c-.181.273-.36.549-.537.824l-.013.02.008-.014c-.203.31-.408.621-.61.932l.043-.068c-.233.353-.467.706-.706 1.055-.133.192-.26.39-.399.578l-.493.67c-.236.318-.475.637-.73.94l-.534.634c-.151.18-.32.348-.48.522-.282.307-.579.601-.872.899-.35.355-.7.711-1.047 1.07-.294.302-.581.614-.867.926-.31.338-.623.671-.939 1.003-.188.196-.372.393-.562.587-.195.201-.4.39-.607.58-.376.345-.743.7-1.117 1.048-.385.338-.772.676-1.162 1.008-.057.05-.117.096-.175.144l.19-.432c.133-.303.248-.616.37-.924.457-1.138.875-2.29 1.295-3.442.19-.519.365-1.043.529-1.57.088-.287.18-.572.26-.861l.254-.917c.322-1.172.635-2.344.856-3.54.112-.607.209-1.217.277-1.832.061-.566.11-1.132.167-1.698.184-1.36.422-2.713.554-4.08.049-.506.09-1.01.134-1.516l.03-.023c.12-.1.236-.205.356-.307.168-.14.34-.276.509-.417.093-.079.182-.162.263-.252.107-.118.202-.245.305-.367.155-.162.32-.312.468-.481.158-.182.299-.377.458-.557l-.004.004c.13-.148.253-.301.361-.468.114-.174.232-.347.33-.532.107-.205.18-.424.272-.636.047-.11.079-.215.104-.333.026-.123.025-.237.018-.363-.008-.14-.03-.268-.084-.4-.033-.08-.086-.152-.14-.217-.032-.04-.07-.074-.112-.104-.092-.066-.203-.108-.315-.117-.164-.013-.322.051-.462.132-.07.04-.137.085-.203.132.012-.16.016-.32-.001-.481-.015-.15-.081-.319-.18-.434-.112-.133-.276-.178-.443-.162-.253.024-.435.267-.573.456-.043.059-.085.12-.125.181-.003-.176-.006-.354-.072-.52-.045-.113-.116-.19-.206-.27-.047-.04-.162-.078-.221-.081-.092-.007-.152.006-.237.038-.116.045-.201.151-.274.246-.133.17-.23.362-.327.555-.088.176-.152.365-.22.55-.022.058-.043.116-.063.175-.066-.208-.147-.415-.26-.6-.08-.132-.174-.267-.313-.34l-.095-.05c-.05-.013-.101-.024-.152-.033-.112-.023-.269.045-.353.118-.102.089-.16.225-.204.35-.044.127-.067.261-.09.392-.031.19-.031.386-.028.577.006.247.025.492.042.738.006.11.032.22.049.33.013.09.027.177.045.267.049.232.103.462.161.692.056.219.132.435.205.649.065.193.134.387.214.574.165.391.358.773.564 1.143.044.078.106.139.177.18-.056.625-.11 1.25-.17 1.874-.116.95-.259 1.897-.4 2.844-.141.957-.215 1.92-.319 2.882-.133.883-.275 1.768-.486 2.637-.125.51-.253 1.018-.388 1.525-.12.45-.245.899-.37 1.348-.24.869-.505 1.734-.814 2.582-.344.942-.692 1.884-1.042 2.824-.22.552-.43 1.11-.668 1.653l-1.045 2.384c-.064.145-.135.29-.204.434l-.632 1.334c-.194.407-.385.814-.578 1.22-.07.15-.14.301-.216.449-.627 1.243-1.238 2.493-1.88 3.727-.338.647-.674 1.295-1.013 1.942-.129-.464-.249-.931-.364-1.4-.129-.519-.216-1.045-.274-1.577l-.002-.036c.046-.013.09-.031.123-.061.155-.137.29-.282.367-.48.08-.209.107-.424.134-.644.049-.392.091-.782.2-1.161.106-.309.26-.592.411-.879.159-.298.315-.596.455-.903.129-.284.234-.576.359-.861.13-.3.28-.592.452-.871l-.002.003c.226-.362.444-.727.648-1.102.097-.179.17-.37.246-.56.086-.214.166-.431.245-.648.077-.209.152-.418.225-.628.08-.225.171-.445.239-.675.06-.202.076-.408.09-.616.019-.231.031-.463.04-.694.012-.215.022-.43.03-.644.033-.442.092-.88.152-1.32.057-.423.12-.84.229-1.254.15-.572.324-1.135.374-1.727.023-.262.03-.531.025-.793l-.01-.421c-.006-.246-.033-.485-.078-.726-.036-.19-.068-.38-.11-.568l.025.11-.074-.337c-.026-.124-.047-.252-.082-.374-.058-.213-.115-.426-.184-.636-.062-.189-.126-.376-.203-.56-.073-.177-.148-.353-.22-.53-.314-.758-.622-1.53-.806-2.33l-.024-.116.002.017-.022-.106-.015-.071v.004l.004.014-.001-.004v.001l-.005-.021-.002-.01.001.004c-.084-.408-.156-.817-.197-1.232-.044-.443-.109-.885-.135-1.329-.027-.428-.025-.856-.08-1.282-.017-.137-.051-.272-.098-.402-.05-.14-.13-.26-.233-.365-.056-.06-.113-.112-.178-.159-.043-.031-.09-.059-.143-.083-.167-.08-.374-.044-.521.06-.156.112-.24.307-.318.476-.048.109-.092.218-.138.328-.271.651-.534 1.311-.723 1.992-.175.63-.335 1.263-.526 1.89-.038.111-.075.224-.11.337l-.016.049-.007.023-.001.005-.002.004c-.007.014-.01.031-.016.047l-.011.04-.003.007.012-.038c-.005.015-.011.027-.014.043v.004l-.024.073c-.115.363-.222.728-.335 1.092-.143.411-.294.817-.47 1.215-.093.212-.187.423-.27.64-.08.211-.151.426-.225.641-.14.415-.27.837-.44 1.24-.182.432-.388.853-.548 1.294-.214.59-.378 1.199-.562 1.8-.14.432-.284.86-.387 1.302-.102.443-.16.898-.238 1.344-.076.443-.154.884-.21 1.33-.054.429-.085.86-.133 1.288-.053.47-.116.939-.12 1.412-.004.446.045.895.107 1.336.03.22.063.439.102.658.046.256.104.509.166.761.105.427.24.846.39 1.258.121.33.265.657.428.967.16.302.313.607.49.899l.333.552c.031.052.07.1.106.15l.223.316c.096.136.203.265.308.395.115.146.243.283.385.403.092.078.196.144.3.208l.003.043v-.026c.022.33.05.66.105.986.057.345.124.684.208 1.024.08.324.163.648.25.97.041.159.083.318.129.477.057.198.144.387.227.575.016.037.04.069.065.097-.171.323-.344.645-.518.966-.71 1.304-1.418 2.608-2.136 3.906-.723 1.308-1.45 2.612-2.184 3.915-.285.502-.56 1.011-.855 1.508l-1.383 2.334-.405.682c-.124.21-.264.412-.396.618-.488.755-.974 1.513-1.462 2.268-.066.102-.136.2-.207.297l-.666.931c-.385.54-.77 1.08-1.157 1.618-.46.588-.92 1.176-1.382 1.764l-.623.796c-.116.147-.243.284-.365.425l-1.813 2.088c-.373.43-.777.831-1.17 1.241l-.982 1.028c-.134.14-.266.282-.404.42l-1.825 1.825c-.939.94-1.862 1.893-2.79 2.842-.17.172-.331.353-.496.53l-1.072 1.148c-.365.391-.731.783-1.09 1.18L30.28 75.46c-.021-.214-.045-.428-.067-.642l-.043-.461.002.024-.004-.046v-.003l-.007-.064.005.049c-.037-.403-.063-.81-.072-1.215-.009-.438.017-.872.076-1.306.039-.198.09-.391.125-.588.048-.27.084-.543.118-.815.066-.521.13-1.042.201-1.563.044-.248.094-.494.162-.737.08-.282.16-.566.233-.85.142-.544.238-1.098.351-1.647.117-.572.256-1.136.44-1.69.095-.287.198-.57.296-.857.099-.287.185-.577.266-.87.072-.265.127-.536.19-.803.07-.293.14-.585.214-.878.146-.582.352-1.147.528-1.72.178-.581.335-1.167.517-1.746.082-.265.163-.531.26-.791.11-.291.22-.583.332-.874.22-.577.425-1.16.587-1.758.16-.59.31-1.18.46-1.773.148-.586.33-1.166.5-1.746.174-.596.34-1.194.495-1.795.155-.596.319-1.19.486-1.782.086-.304.165-.608.236-.915.067-.293.118-.588.168-.884.206-1.22.356-2.45.471-3.682.055-.594.1-1.188.146-1.783.035-.437.079-.873.111-1.31.194-.143.383-.293.552-.467l-.05.053c.324-.34.65-.682.95-1.045.29-.354.576-.713.866-1.065.266-.323.555-.626.83-.939.204.068.41.131.616.177.28.06.57.088.855.109h-.003.01-.007l.016.001.044.003h-.005l.116.007c.286.018.57.005.853-.052.24-.047.476-.105.715-.159l.208-.04h.003l.071-.015-.07.014c.198-.035.397-.069.594-.106.194-.037.387-.077.578-.12.207-.045.409-.108.613-.163.205-.056.414-.099.62-.151.262-.068.509-.178.736-.328.195-.128.382-.266.566-.41.2-.156.374-.342.55-.524.146-.151.294-.305.422-.473.155-.202.297-.412.432-.628.22-.348.403-.723.566-1.1.08-.189.166-.375.244-.565.097-.239.182-.48.254-.727.061-.21.112-.422.156-.636.044-.214.1-.426.156-.64.107-.403.198-.811.328-1.21.13-.366.28-.726.43-1.085.16-.382.334-.76.48-1.147.091-.239.17-.48.239-.727.056-.205.085-.417.107-.628.043-.44.034-.885.055-1.327l.002-.035c.03-.364.099-.718.186-1.07.095-.385.195-.764.315-1.141.152-.422.331-.838.437-1.274.054-.223.089-.45.137-.675.041-.193.1-.38.163-.566l.003-.01c.025-.041.05-.083.073-.125.113-.203.186-.446.062-.66-.026-.046-.061-.084-.104-.114-.078-.056-.178-.085-.272-.079-.155.009-.27.1-.348.23-.064.106-.102.23-.147.347l-.006.015-.066.102c-.066.102-.134.205-.202.306-.248.346-.504.688-.77 1.02-.28.349-.558.699-.842 1.043-.286.35-.585.686-.877 1.03-.29.34-.584.672-.89.997-.165.176-.327.356-.5.523-.18.17-.362.339-.54.511-.352.338-.703.675-1.06 1.007-.36.302-.713.613-1.067.924-.254.215-.512.423-.768.634-.292.238-.577.485-.862.73l.081-.07c-.342.285-.697.553-1.039.84-.357.299-.693.627-1.015.962-.321.336-.592.711-.854 1.095-.242.355-.464.723-.64 1.116-.169.373-.321.753-.452 1.142-.064.19-.134.378-.192.57-.06.204-.13.405-.18.612-.052.217-.1.432-.138.653-.037.199-.058.402-.07.603-.009.12-.018.24-.024.361-.013.247-.029.51.09.736.005.01.01.017.016.025l-.203.223c-.151.167-.3.336-.447.506-.287.332-.554.682-.833 1.022-.22.268-.45.528-.687.781l-.115.12c.01-.402.017-.805.013-1.208-.006-.641 0-1.282-.008-1.923-.006-.626-.037-1.253-.055-1.878-.018-.623-.014-1.246-.006-1.87.008-.563.028-1.127.042-1.69.015-.612.04-1.222.103-1.831.064-.616.117-1.233.187-1.848.07-.606.15-1.21.228-1.814.036-.28.079-.56.119-.84.047-.324.078-.653.115-.98.066-.582.146-1.163.231-1.743l-.002.013c.035-.212.07-.424.11-.635.046-.237.094-.474.137-.712.091-.505.178-1.012.281-1.514.051-.246.107-.492.17-.736l.041.001c.07 0 .13-.038.19-.069.067-.034.134-.07.2-.108.098-.056.198-.107.3-.154.097-.044.198-.079.296-.12.148-.062.288-.143.431-.213.165-.082.343-.14.518-.195.18-.056.356-.121.535-.181.197-.066.394-.133.589-.207.188-.071.373-.156.56-.231.205-.08.411-.156.61-.25.253-.122.482-.299.714-.456.15-.1.305-.194.447-.307.16-.126.297-.28.437-.428.127-.136.26-.262.359-.421.18-.288.23-.623.12-.947-.06-.175-.225-.312-.388-.383-.1-.042-.21-.063-.316-.07-.253-.021-.49.027-.73.1-.104.03-.204.07-.301.115.032-.07.06-.14.082-.213.044-.135.09-.278.106-.421.02-.172.027-.36-.031-.528-.036-.101-.101-.204-.192-.268l-.006-.005c-.13-.09-.27-.119-.428-.102-.083.008-.168.04-.246.064-.072.022-.142.047-.207.082-.116.063-.235.128-.343.205-.225.16-.442.335-.65.518.085-.315.146-.634.16-.963.008-.202-.007-.401-.1-.581-.069-.134-.153-.24-.288-.309-.097-.05-.197-.06-.304-.058-.114.002-.23.047-.333.097-.12.059-.212.137-.305.226-.157.155-.304.316-.445.487-.161.197-.286.42-.41.64-.2.355-.372.721-.54 1.092.01-.464-.004-.93-.065-1.39-.029-.213-.065-.423-.115-.63-.034-.14-.077-.268-.144-.396-.08-.148-.187-.307-.346-.376-.31-.137-.64.032-.846.27-.075.086-.133.195-.186.294-.07.124-.126.252-.165.388-.068.236-.108.473-.142.717-.063.46-.104.923-.069 1.388.035.438.133.866.233 1.293.053.224.117.444.182.665.06.207.119.415.193.62.056.152.116.304.176.457.079.2.154.427.28.604v0l.001.002-.002.101c.002.105.014.193.086.303l.005.006c-.047.179-.091.358-.134.538-.07.295-.12.596-.176.894l-.153.846c-.051.29-.117.578-.166.867-.106.632-.203 1.264-.28 1.899-.078.64-.146 1.281-.239 1.918-.089.605-.162 1.213-.236 1.82-.07.576-.124 1.155-.183 1.734-.033.339-.067.677-.093 1.017-.024.306-.037.61-.051.916-.014.315-.015.632-.023.947-.007.29-.018.578-.024.868-.012.61-.017 1.22-.005 1.83.011.606.04 1.213.053 1.82.007.338.011.676.015 1.014.003.271-.005.542-.003.814.005.64.001 1.28-.01 1.92-.014.633-.08 1.265-.136 1.896-.053.615-.09 1.234-.148 1.85-.055.591-.114 1.181-.186 1.772-.076.642-.173 1.28-.268 1.92-.048.28-.1.558-.155.837-.06.3-.144.595-.225.89-.161.593-.33 1.183-.486 1.777-.15.567-.298 1.132-.463 1.694-.18.61-.365 1.22-.528 1.834-.15.564-.285 1.133-.438 1.696-.066.244-.137.487-.212.728-.05-.04-.099-.081-.146-.124-.22-.225-.403-.472-.572-.738-.053-.083-.103-.167-.155-.251.044-.065.087-.13.128-.196.13-.21.23-.443.301-.679.054-.178.093-.358.139-.538.052-.207.1-.414.142-.623.041-.198.072-.395.08-.597.01-.213.003-.425-.003-.639-.009-.372-.001-.744-.004-1.116-.001-.266 0-.532-.025-.798-.027-.276-.073-.55-.089-.83-.013-.337-.022-.675-.072-1.011-.053-.355-.124-.709-.177-1.065-.05-.342-.109-.683-.168-1.025-.06-.342-.118-.686-.14-1.033-.002-.032-.004-.064-.004-.097v.036c0-.022-.001-.045-.003-.067l.003.031-.003-.046v-.006-.002c-.01-.224-.02-.449-.021-.674-.003-.272-.001-.542.046-.812.089-.4.198-.794.263-1.201.067-.421.048-.851.04-1.278-.009-.445-.007-.9-.107-1.337-.105-.45-.262-.887-.407-1.325-.163-.483-.339-.963-.495-1.449-.063-.205-.126-.41-.19-.613-.125-.402-.252-.804-.34-1.215-.1-.46-.178-.923-.259-1.387-.072-.415-.119-.836-.185-1.253-.074-.457-.155-.913-.199-1.374-.028-.305-.053-.611-.1-.914-.042-.286-.076-.57-.097-.859-.038-.57-.095-1.136-.128-1.707 0-.271-.006-.544-.017-.815-.013-.324-.04-.645-.066-.968V23.325l-.001-.038v.02c0-.015 0-.03-.002-.045 0-.016 0-.033-.002-.05-.012-.301-.004-.604-.03-.906-.01-.137-.027-.274-.05-.41-.012-.062-.027-.124-.044-.185-.041-.15-.086-.336-.22-.432-.012-.009-.025-.017-.04-.024-.059-.041-.126-.065-.2-.071-.106-.01-.224.025-.303.098-.104.096-.158.224-.21.352l-.117.296c-.07.181-.143.361-.207.545-.07.203-.132.409-.207.612-.073.19-.145.382-.216.573-.075.2-.152.396-.219.598-.073.226-.126.456-.165.692-.07.425-.125.854-.191 1.28-.057.363-.107.732-.13 1.098-.024.372-.062.749-.135 1.113-.074.373-.143.745-.208 1.12-.063.362-.116.726-.182 1.087-.097.423-.194.848-.295 1.27-.112.472-.197.948-.29 1.424-.064.304-.125.608-.186.913l.023-.105c-.055.254-.092.51-.135.765-.031.184-.062.365-.081.55l-.167 1.52c-.046.427-.078.857-.11 1.285-.033.456-.085.911-.102 1.369-.016.45-.008.9-.036 1.35-.028.465-.066.928-.035 1.393.031.479.074.957.113 1.434.038.443.126.885.206 1.322.038.205.076.41.12.612.048.224.113.446.174.665.125.455.237.915.4 1.358.077.21.164.416.25.621.081.199.16.4.248.595.188.42.42.815.663 1.204.24.384.503.751.77 1.116.06.084.133.159.198.237l.26.31c.134.16.286.308.428.46.16.17.332.334.513.48.178.146.36.277.55.405.25.168.507.336.78.461.093.043.19.072.288.095.093.021.186.04.28.038.023 0 .045-.003.068-.003l.049.073c.224.325.522.59.829.831.016.014.035.024.053.034l-.068.188c-.228.593-.459 1.186-.648 1.793-.178.573-.34 1.148-.51 1.724-.08.268-.17.533-.255.8-.095.298-.183.599-.27.901-.159.558-.276 1.13-.41 1.694-.136.564-.347 1.101-.529 1.65-.184.556-.345 1.118-.462 1.692-.1.486-.194.972-.303 1.456-.103.463-.237.918-.361 1.377-.135.498-.19 1.019-.253 1.53-.055.468-.108.939-.181 1.404-.055.293-.13.58-.173.875-.044.303-.06.61-.07.916-.01.29.008.586.026.877.02.321.043.642.077.962l-.012-.112c.028.297.06.592.091.889l-.006-.053.04.416c.01.158.015.315.019.474 0 .058.012.114.032.165l-.477.567-.873 1.04c-.11.13-.221.257-.326.392l-1.633 2.086-.496.633c-.148.19-.282.391-.42.586-.53.74-1.06 1.483-1.588 2.224-.131-.255-.24-.522-.32-.798-.037-.142-.068-.286-.083-.433-.021-.199-.03-.398-.037-.598-.005-.139-.014-.277-.024-.415.23-.3.436-.616.644-.932.113-.171.22-.347.335-.519.104-.157.216-.31.32-.467.243-.367.458-.754.652-1.15.184-.373.361-.748.507-1.14.147-.39.288-.783.404-1.184.13-.445.187-.911.18-1.375-.004-.425-.08-.85-.158-1.266-.045-.242-.096-.483-.168-.717-.067-.218-.148-.429-.226-.642-.116-.32-.247-.634-.381-.945-.14-.325-.317-.627-.496-.93-.178-.305-.339-.616-.49-.935-.154-.322-.301-.65-.407-.993-.037-.144-.069-.288-.092-.436-.022-.148-.03-.296-.033-.445.009-.41.07-.815.123-1.222.059-.446.112-.89.138-1.34.028-.512.04-1.034-.025-1.546l-.094-.716c-.014-.093-.036-.186-.053-.277l-.081-.425c-.042-.225-.095-.448-.143-.673-.086-.396-.194-.79-.294-1.183-.095-.381-.2-.76-.3-1.14-.103-.39-.178-.786-.25-1.182-.067-.366-.107-.74-.112-1.112.003-.43.02-.858.036-1.286.016-.44.081-.88.137-1.318.114-.9.197-1.802.27-2.707.034-.404.025-.81-.018-1.212-.02-.2-.036-.402-.064-.601-.078-.543-.144-1.095-.3-1.622-.035-.116-.112-.233-.209-.307l-.007-.006c-.13-.094-.306-.1-.45-.034-.185.087-.263.29-.345.466-.08.173-.15.352-.221.529-.16.392-.296.794-.404 1.203l.005-.02-.151.57-.001.005-.01.04.007-.029-.01.04-.007.026c-.076.287-.144.578-.215.868-.077.29-.15.582-.224.873l-.247.93-.01.036.004-.014-.007.028.003-.012-.01.034c-.081.308-.156.618-.234.926-.077.275-.154.55-.233.824-.068.241-.142.481-.2.725-.118.495-.233.991-.354 1.486-.227.846-.475 1.685-.723 2.527-.13.442-.294.87-.46 1.299-.154.401-.293.81-.415 1.223-.135.462-.263.925-.389 1.388-.06.216-.115.433-.169.65-.057.229-.121.457-.17.688-.098.472-.202.944-.267 1.422-.057.41-.083.828-.099 1.24-.01.288-.028.576-.03.864l.001.03v-.001.015-.002V68.58l.001.265v-.024l.001.017v.181c0 .028 0 .057.002.085V69.175l-.001-.025.001.208v-.029.085c.007.438.06.868.121 1.302.062.431.13.867.23 1.29.114.484.242.961.376 1.44.125.443.256.889.424 1.319.17.433.333.867.506 1.299.078.197.164.392.247.587.083.195.172.393.272.58.222.41.46.81.706 1.207.23.368.45.749.725 1.086.303.372.64.717.981 1.054.189.185.375.37.572.547.102.092.21.179.327.252.112.072.232.118.356.155.007.08.015.162.02.244l.031.679c.012.223.036.447.09.665.126.501.311.977.584 1.417.02.03.047.055.078.078l-.398.611c-.509.774-1.018 1.549-1.525 2.324-.268.406-.52.821-.778 1.233l-1.518 2.43c-.233.371-.454.75-.677 1.128l-1.519 2.565c-.204.348-.408.695-.601 1.05-.46.84-.918 1.682-1.376 2.523l-.92 1.687c-.08.143-.147.295-.219.442l-.589 1.192-1.331 2.692c-.18.364-.36.727-.532 1.094l-.118.25-.216-.591c-.167-.461-.304-.934-.449-1.402-.12-.393-.235-.791-.33-1.191-.117-.487-.224-.973-.33-1.462-.1-.466-.189-.934-.273-1.403-.033-.186-.063-.371-.094-.557.048-.034.09-.077.122-.13.246-.408.422-.857.604-1.296l.255-.615c.105-.254.193-.516.288-.775.314-.854.605-1.717.918-2.57.096-.26.194-.517.29-.776.067-.006.134-.026.188-.053.019-.01.037-.025.055-.037.184-.131.37-.257.54-.411.071-.066.136-.137.208-.203.074-.066.152-.128.229-.191.144-.118.302-.231.423-.376.08-.096.15-.2.224-.3.067-.09.137-.177.202-.267l.05-.068.01-.013c.148-.18.3-.355.446-.535.107-.135.197-.273.276-.428.079-.155.162-.308.241-.462.086-.165.162-.335.214-.513.053-.187.084-.388.044-.58-.076-.363-.456-.617-.817-.506.017-.104.031-.209.045-.312.02-.154.013-.314-.054-.455-.04-.082-.1-.158-.176-.212-.038-.028-.08-.05-.125-.063-.382-.118-.62.275-.816.532l-.016.021c-.015-.046-.034-.091-.057-.136-.04-.077-.108-.137-.175-.19-.077-.057-.149-.078-.243-.091-.163-.021-.272.056-.393.148-.117.088-.217.226-.291.354l-.031.056c-.038-.088-.08-.172-.132-.252-.104-.158-.26-.305-.459-.312-.166-.006-.297.079-.42.179-.118.097-.183.238-.242.375-.035.079-.046.169-.062.253-.016.085-.031.17-.042.257-.027.217-.035.435-.026.652.013.261.035.521.058.783.024.283.075.562.137.838.055.245.11.49.175.733.07.253.143.505.214.757.01.035.024.068.04.099-.07.211-.14.423-.216.633-.073.205-.153.407-.231.61-.092.238-.176.479-.264.718-.14.382-.27.766-.405 1.15-.17.475-.341.95-.515 1.425l-.068.184c-.113.278-.228.554-.344.83l-.087.202c-.05-.357-.1-.715-.152-1.073-.067-.473-.118-.95-.176-1.423-.103-.827-.186-1.655-.255-2.485-.09-1.071-.177-2.144-.247-3.218l.044-.004c.118-.02.213-.115.302-.19.059-.049.116-.1.172-.151.167-.152.303-.335.402-.538.054-.106.104-.212.169-.31.065-.098.134-.193.197-.292.137-.214.228-.448.329-.68l-.023.05.027-.058.017-.039-.013.028.03-.065-.027.06c.068-.147.154-.282.222-.427.093-.2.158-.4.207-.616.043-.195.091-.402.08-.602-.01-.185-.049-.359-.14-.521-.144-.255-.436-.404-.725-.33l-.036.01c-.006-.147-.024-.293-.064-.435-.054-.2-.164-.415-.334-.537-.082-.059-.178-.096-.288-.101-.298-.014-.54.205-.677.453-.026-.045-.058-.087-.088-.124-.065-.079-.172-.178-.275-.2-.09-.019-.158-.03-.25-.013-.045.008-.11.033-.141.05-.052.028-.1.066-.146.103-.065.054-.116.126-.163.196-.034.052-.064.109-.09.165-.027.058-.054.117-.078.178-.06-.086-.124-.169-.194-.244-.146-.158-.383-.299-.604-.246-.113.027-.224.104-.284.204-.052.085-.07.179-.083.275-.012.09-.017.177-.022.267-.01.169.006.339.026.506.024.21.063.417.113.622.104.43.264.848.463 1.242.156.31.353.598.561.875.156.208.31.415.5.593.05.893.118 1.785.182 2.677.052.712.116 1.423.185 2.134-.158-.216-.317-.432-.47-.65-.113-.162-.226-.323-.33-.492-.103-.17-.196-.345-.287-.521-.08-.155-.164-.31-.242-.467-.08-.162-.153-.326-.225-.49-.191-.462-.397-.92-.55-1.397-.076-.237-.15-.475-.222-.713.014-.03.027-.062.037-.094.028-.091.034-.19.041-.283l.018-.223.001-.01.016-.156c.025-.278.035-.553.042-.831.005-.16-.007-.32-.003-.48.005-.2-.025-.395-.06-.592-.023-.154-.044-.308-.085-.458-.046-.168-.117-.339-.206-.487-.043-.07-.102-.135-.17-.183-.02-.016-.043-.03-.066-.041-.109-.057-.237-.067-.355-.033-.055.014-.1.038-.14.067l-.014-.034c-.056-.144-.117-.247-.222-.36-.157-.17-.433-.188-.62-.065-.16.105-.24.289-.278.469-.089-.049-.184-.07-.286-.07-.098.001-.208.047-.287.104-.084.062-.166.14-.205.24-.047.12-.067.24-.06.37l.002.016c-.063-.041-.126-.082-.192-.117-.062-.032-.131-.054-.198-.074-.082-.026-.175-.01-.255.006-.132.023-.268.131-.317.258-.033.08-.053.14-.05.23.002.05.012.108.023.155.006.03.016.06.026.09.039.117.096.23.156.335.227.4.54.736.85 1.07.248.269.502.53.779.768.151.129.313.242.475.356.2.14.408.281.644.354.059.018.12.017.177.004.036.118.072.237.11.356.076.24.156.476.243.713.077.214.169.422.257.63.097.23.191.459.29.686.088.198.187.391.286.585.102.198.206.396.314.592.099.18.214.352.333.52.231.33.471.655.708.98.248.342.506.675.74 1.028l.01.087c.06.476.11.951.178 1.425.134.95.26 1.902.428 2.847.085.469.172.937.266 1.405.085.425.17.85.27 1.272.06.246.118.492.177.739.005.022.013.045.019.068-.092-.046-.182-.093-.273-.14-.23-.118-.46-.236-.692-.352-.209-.102-.411-.216-.61-.336-.182-.109-.353-.23-.523-.357l-.595-.476c-.252-.204-.508-.407-.743-.63-.255-.242-.489-.515-.716-.782-.15-.178-.3-.356-.446-.537-.156-.224-.306-.45-.46-.676.006-.02.01-.041.012-.063.007-.137.037-.27.038-.407.002-.187-.012-.36-.051-.543-.042-.2-.06-.406-.102-.607-.064-.302-.09-.607-.192-.902-.024-.07-.044-.144-.064-.217.01.034.018.069.027.104-.04-.155-.079-.306-.142-.452-.055-.13-.117-.258-.178-.384-.067-.138-.145-.276-.245-.392-.061-.073-.123-.137-.196-.19-.03-.02-.06-.04-.093-.056-.125-.064-.302-.068-.428-.001-.08.042-.151.096-.211.158-.023-.025-.048-.05-.073-.074-.133-.13-.358-.159-.526-.093-.175.068-.278.244-.304.424-.013.093-.008.195.006.295-.073-.04-.147-.066-.236-.084-.158-.033-.34.051-.435.175-.126.165-.111.367-.049.561-.13-.04-.258-.057-.395-.046-.138.009-.27.096-.36.196-.066.074-.112.18-.121.28-.01.114.014.2.045.308.032.112.104.217.17.31.057.08.117.157.178.233.105.128.225.246.344.362.097.097.2.189.307.273.245.193.49.38.758.538.265.153.536.298.827.395.174.058.347.106.525.15.124.03.246.062.373.08.098.147.197.292.298.437l.236.339c.08.115.177.222.265.332.126.156.258.31.392.462.285.325.57.646.898.928.173.15.355.292.533.436.182.147.366.293.55.44.185.15.383.299.586.422.198.12.396.236.6.341.192.098.384.193.575.291.197.1.39.204.587.302.115.056.235.115.356.156.085.028.171.045.258.057.086.289.175.576.27.862.206.62.441 1.23.656 1.847.005.014.011.026.017.039-.42.887-.837 1.774-1.233 2.672-.64 1.45-1.274 2.902-1.902 4.358-.496 1.149-.994 2.297-1.484 3.447-.045.107-.07.204-.038.32.03.106.102.199.197.252.097.054.212.069.318.038.096-.027.21-.102.25-.198 1.151-2.7 2.322-5.389 3.504-8.072.21-.476.433-.945.654-1.414.389-.83.777-1.658 1.167-2.486.186-.398.384-.787.579-1.18.451-.913.902-1.827 1.355-2.74l.01-.02c.037-.004.074-.01.11-.025.44-.168.89-.307 1.333-.464.481-.17.962-.343 1.443-.515l.68-.242.052.053-.019-.018.024.023.016.016-.009-.009.011.01.036.035-.029-.028c.249.227.533.409.816.592.155.1.315.192.474.286.196.117.392.224.608.296.402.13.809.18 1.228.167.236-.007.47-.035.698-.09.221-.054.44-.13.655-.2l.143-.047c.401-.117.812-.186 1.218-.28.189-.042.372-.094.556-.154.197-.064.388-.153.58-.233.194-.08.391-.156.585-.238.22-.093.435-.19.645-.305.2-.111.404-.214.61-.315.405-.2.843-.325 1.27-.47.156-.05.313-.102.469-.154.181-.055.362-.11.546-.163.256-.076.507-.16.758-.25.096-.034.19-.081.286-.122.09-.039.178-.078.266-.12.394-.192.78-.39 1.144-.637.346-.233.657-.515.972-.786.181-.154.348-.322.518-.486.184-.177.352-.37.527-.554.155-.166.3-.34.448-.51.575-.666 1.142-1.34 1.674-2.037.284-.372.563-.746.837-1.124.24-.33.466-.665.728-.977.24-.286.474-.578.725-.855.257-.284.514-.565.775-.846l-.004.004.004-.004.005-.005-.002.002.006-.007.008-.009.019-.02-.006.006c.13-.136.26-.275.392-.408.157-.16.31-.326.476-.477.335-.312.666-.63 1.011-.93.34-.295.674-.6 1.025-.883.17-.136.341-.27.514-.4.18-.136.36-.27.526-.42.172-.157.335-.323.492-.492.1-.107.195-.217.282-.337.088-.123.16-.27.168-.424.005-.088-.01-.168-.053-.244-.04-.069-.091-.135-.157-.182-.053-.038-.116-.063-.186-.064-.062 0-.122 0-.183.015-.047.012-.096.03-.144.045-.048.014-.094.033-.141.05-.109.04-.216.082-.325.123-.191.077-.387.146-.574.23-.194.087-.385.182-.579.265-.229.098-.455.19-.689.277-.434.163-.876.302-1.313.454-.336.118-.675.22-1.015.325-.391.121-.782.244-1.173.37-.352.1-.704.193-1.056.294-.376.108-.747.232-1.12.354-.165.051-.331.101-.5.146-.206.056-.412.109-.616.17-.244.076-.49.143-.731.226-.203.07-.402.142-.605.206-.452.144-.903.287-1.35.444-.465.164-.926.334-1.388.508-.165.063-.33.127-.495.193-.23.091-.464.176-.692.274-.21.092-.43.175-.636.277l-.57.279c-.44.217-.878.44-1.312.674-.173.091-.342.192-.514.285-.216.118-.433.233-.647.355-.388.221-.754.483-1.127.729-.381.25-.763.501-1.12.784-.356.28-.714.556-1.058.85-.344.295-.701.576-1.011.91l-.393.427.03-.033-.045.049-.05.052.008-.009-.02.022-.044.047.006-.006-.021.022c-.312.33-.599.683-.89 1.032-.133.16-.263.322-.385.491-.131.18-.25.367-.372.552-.253.386-.44.804-.624 1.225-.085.195-.155.396-.217.598-.054.17-.09.344-.125.519-.47.169-.943.336-1.414.505-.274.097-.548.2-.825.291l-.34.114c.044-.09.087-.182.136-.27l1.084-1.988 1.292-2.368c.21-.386.439-.76.663-1.138.504-.852 1.007-1.704 1.512-2.555.214-.364.433-.724.657-1.083.521-.833 1.041-1.668 1.563-2.501.237-.379.473-.757.719-1.132l1.274-1.94.58-.886c.083-.124.161-.253.247-.375.707-.986 1.408-1.976 2.113-2.961.458-.582.912-1.165 1.368-1.747.331-.424.657-.85 1.002-1.262l1.62-1.926c.028-.016.055-.033.083-.053l.02-.015c.197-.135.397-.254.61-.361.075-.037.152-.07.229-.106.153-.071.309-.138.464-.205.278-.12.561-.231.845-.336.193-.064.385-.12.582-.17.206-.051.414-.086.622-.126.463-.092.925-.194 1.39-.281.19-.036.383-.064.576-.09.064.088.13.168.21.248.074.075.153.147.232.216.145.13.308.242.475.342.405.247.826.47 1.25.68.401.2.806.394 1.208.592.38.188.755.386 1.136.57.425.207.855.396 1.292.574.403.163.815.31 1.224.46.2.074.402.14.602.215.201.074.401.149.605.216.488.159.976.31 1.467.46.35.106.696.22 1.042.338.016.075.063.135.108.194l.135.177c.1.13.206.256.301.39.102.141.207.284.32.419.1.114.21.219.308.334.07.088.138.177.213.26.074.08.152.155.231.23.143.135.259.294.403.428.075.07.158.13.238.191l.111.088c.045.036.091.073.139.105.066.042.139.067.213.092.067.023.17.03.237.032.064.001.132-.002.19-.02.11-.034.202-.086.28-.171.122-.138.18-.342.158-.525-.007-.059-.016-.115-.028-.17.057.011.114.019.173.023.217.015.447-.077.558-.274.05-.09.07-.18.072-.283.001-.105-.042-.192-.085-.284.091-.025.178-.061.256-.118.113-.083.194-.187.233-.322.032-.108.022-.206 0-.315-.021-.102-.086-.205-.161-.285.114-.046.214-.12.306-.203.052-.046.092-.115.12-.177.04-.084.05-.157.054-.248.003-.143-.075-.285-.168-.386-.04-.043-.085-.081-.133-.116-.064-.046-.134-.086-.2-.125-.192-.113-.41-.183-.62-.245-.134-.04-.27-.067-.408-.088-.18-.027-.364-.051-.547-.052-.309-.001-.617.03-.923.064-.33.037-.658.112-.981.186-.273.063-.552.148-.801.278-.046.024-.083.058-.112.098-.368-.124-.738-.244-1.11-.357-.474-.144-.945-.295-1.416-.45-.176-.056-.347-.128-.521-.189-.235-.082-.47-.166-.703-.252-.409-.15-.817-.3-1.22-.465-.414-.168-.817-.352-1.217-.548-.393-.193-.781-.396-1.174-.59-.406-.2-.815-.397-1.22-.599-.278-.138-.55-.285-.82-.439-.149-.09-.298-.18-.436-.287l-.05-.041 1.008-.113c.454-.052.909-.102 1.36-.174.447-.07.893-.139 1.343-.195.246-.03.49-.067.734-.106.223-.037.445-.084.665-.129.45-.09.894-.21 1.335-.333.408-.113.809-.25 1.21-.388.456-.158.916-.308 1.366-.485l.086-.034.034.036.157.153c.058.053.15.095.217.132.066.036.134.07.203.103.157.075.321.14.484.206.182.074.37.132.56.184.456.125.913.256 1.38.335.24.04.483.058.725.082.215.024.432.043.648.064.438.044.872.102 1.31.146.468.048.939.09 1.407.142.43.048.854.141 1.282.202.475.068.95.135 1.424.206.433.063.863.14 1.295.208.553.087 1.11.155 1.664.236.192.028.383.058.575.088.043.06.088.119.136.176.086.102.194.183.29.274.115.11.213.237.325.351.122.127.254.242.373.373.062.07.124.139.19.206.07.072.15.133.227.198.172.145.327.305.509.438.142.104.293.202.446.29.093.053.2.09.303.118.154.04.324.057.48.019.166-.042.317-.154.397-.307.06-.116.071-.242.05-.366.124-.002.246-.027.356-.088zM19.683 95.501l.014-.014-.014.014"
                                  transform="translate(16 1)"/>
                            <path d="M38.404 90.082l-.006.006c0 .002-.002.004-.003.005l.01-.01M57.092 12.366l-.007.023.002-.009.005-.014M57.103 12.333l.001-.003-.001.003M57.105 12.325v0M60.534 12.042l-.001-.005v.005M45.244 34.411l-.017.003-.088.017.105-.02M42.921 34.778l-.068-.006-.04-.002.108.008M33.265 42.478v0M16.561 69.105v-.002-.006.008M21 50.5l.006-.023.003-.016-.01.039M16.558 68.556v-.002.002M57.8 26.52l-.005.023-.003.019.007-.041M57.805 26.491l-.002.012.002-.012M56.99 26.346l.011-.064.008-.043-.02.107M56.848 27.127l-.016.087.016-.087M56.828 27.236l.001-.006.001-.006-.002.012M56.817 27.299l-.005.028.002-.012.003-.018v.002M57.624 27.485v-.002.002M56.817 27.295v.002l.011-.06-.01.058M56.817 27.295l.002-.012-.002.012M76.536 14.606l.018-.028-.013.02-.005.008"
                                  transform="translate(16 1)"/>
                        </g>
                        <text fill="#212121" font-family="Moranga-Medium, Moranga" font-size="18" font-weight="400">
                            <tspan x="103" y="91">1</tspan>
                        </text>
                    </g>
                </g>
            </g>
        </g>
    </g>
</svg>
