<svg xmlns="http://www.w3.org/2000/svg" xmlns:xlink="http://www.w3.org/1999/xlink" width="117" height="115" viewBox="0 0 117 115">
    <defs>
        <path id="nrx47dtgya" d="M42.359 18.62c4.056 11.197-25.79 35.636-28.869 40.91-5.6 9.598-6.789 21.643 1.244 31.987 8.205 10.565 24.524 15.174 36.83 16.404 12.95 1.294 18.223-13.611 27.57-18.888 9.349-5.277 23.651 5.367 32.663-7.134 13.508-18.737-1.407-50.255-20.48-66.841C81.624 6.63 65.305-1.233 52.756.16c-4.3.478-12.334 2.794-14.336 6.871-2.383 4.848 2.42 7.392 3.938 11.588z"/>
        <path id="iu88qhk8ec" d="M0 0L74 0 74 61 0 61z"/>
    </defs>
    <g fill="none" fill-rule="evenodd">
        <g>
            <g>
                <g>
                    <g transform="translate(-274 -2631) translate(188 2176) translate(64 440) translate(22 15)">
                        <mask id="ksv1atfbcb" fill="#fff">
                            <use xlink:href="#nrx47dtgya"/>
                        </mask>
                        <use fill="#FFE3BC" xlink:href="#nrx47dtgya"/>
                        <path fill="#FFF" d="M23.198 96.81l.424.359c-.236.282-.461.576-.725.83-.025.023-.29-.202-.443-.31l.744-.878zm36.13-1.637l.16.102c0 .34.086.712-.024 1.011-.102.273-.416.466-.636.694l-.166-.191.665-1.616zm-37.81.7c-.34.313-.523.575-.766.656-.103.035-.508-.401-.475-.464.133-.25.36-.478.606-.621.076-.044.325.212.636.43zm13.17-2.494l.45.006.387 1.595-.341.232c-.277-.21-.745-.388-.785-.635-.06-.374.178-.796.29-1.198zm43.858.747c-.546.541-1.443.674-1.732.229-.13-.2-.134-.64.003-.824.32-.432 1.142-.143 1.729.595zm-39.863-1.227c.301.04.567.352.848.549l-.098.13-.19.267c-.127.177-.262.34-.434.437-.119.067-.493-.319-.94-.63.392-.38.63-.778.814-.753zm59.996-2.406c.958.592.88 1.327.561 2.257-.502-.722-1.12-1.28-.561-2.257zm-50.947.936l.15.07c.126.06.252.119.375.153-.648 1.3-.655 1.3-1.631.337.27-.861.68-.754 1.106-.56zm62.247-3.358c.914-.01 1.744 1.53 1.187 2.333-.29.418-.819.928-1.249.936-.804.015-.837-.79-.893-1.416-.091-1.025.346-1.846.955-1.853zm-71.647 1.71l-1.308 1.376c-.153-1.017.454-1.69 1.308-1.377zm-11.104-3.105c.002.244.106.585-.015.715-.387.417-.858.692-1.421-.216l1.436-.5zm61.125-.85c.028-.013.111.098.21.242l.121.182c.062.094.124.186.176.258-.232.163-.444.395-.701.469-.258.073-.56-.012-.945-.034-.082-.887.657-.9 1.14-1.117zm-51.9-1.404l1.606.454-1.008.72-.599-1.174zm13.168-2.027c.167.057.47.102.477.172.02.247-.015.524-.119.748-.081.174-.297.285-.477.447-.032-.25-.098-.483-.078-.706.02-.225.128-.441.197-.661zm61.557-2.03c.845.015.869.663 1.035 1.514-.278.167-.612.522-.977.557-.76.073-.776-.596-.802-1.114-.025-.486.07-.97.744-.957zm-10.153-1.477l1.078.964-.2.167-1.393-.13.515-1zm3.247-3.374l1.116.144.012.537-1.083.163-.045-.844zM24.338 73.98c.797.158 1.251.576 1.055 1.386-.046.191-.53.477-.667.413-.864-.408-.598-1.11-.388-1.799zm2.196-3.696c.192.209.826.661.753.869-.16.46-.674.799-1.044 1.187-.302-.315-.79-.592-.862-.952-.11-.545.163-1.07 1.153-1.104zm-7.997-1.963c.118.167.19.375.24.578.082.34.095.699.204 1.028.213.642-.036.933-.981.981.017-.346.044-.685.046-1.023.002-.29-.045-.58-.034-.869.008-.205.04-.43.135-.604.045-.083.357-.136.39-.09zm39.551-.134l.98.841-1.1 1.384-.526-1.505.646-.72zm-6.388.462l1.289.536-1.083.549-.424-.93.218-.155zm4.667-6.053l.61 1.088h-1.902l1.292-1.088zm20.134-1.518l.156.314c-.481.97-.481.97-1.516.516l1.36-.83zm1.862-1.462c.232.144.557.244.705.464.19.28.415.748.302.97-.147.288-.613.414-.942.609-.099-.41-.253-.815-.276-1.228-.016-.29.147-.59.21-.815zm9.497.196l.64.948-.368.367-.107-.09-.224-.175c-.147-.117-.281-.24-.348-.392-.058-.135.259-.434.407-.658zm-22.298-1.825c.63.038 1.209.23 1.235 1.2-.298.344-.58.957-.9.977-.607.038-1.106-.43-1.102-1.123.003-.486.035-1.1.767-1.054zm-14.25.285c.02 1.231-1.218.657-1.7 1.374.027-1.295.798-1.832 1.7-1.374zm41.045-.49l1.334.597c-.183.231-.34.632-.553.663-.897.133-.485-.79-.78-1.26zM57.48 56.98l.647.606-.747.63c-.162-.199-.487-.437-.45-.588.059-.246.354-.435.55-.648zm13.913-.634l1.703.54-1.406.804-.297-1.344zm-31.038-.595l-.393.616-.218.34-.201.317-.325-.065-.16-1.143 1.297-.065zm-3.99.19c-.584.366-.864.654-1.187.717-.526.102-.926-.233-.772-.756.108-.363.486-.76.837-.89.172-.064.557.442 1.122.928zm18.08-1.307c.082.026.18.331.13.386-.403.448-.77.994-1.618.952.386-.507.663-.914.992-1.276.09-.098.347-.109.497-.062zm-3.671.029l.16.165c.08.083.16.163.229.226l-1.194.665c-.325-.647-.085-1.107.392-1.373.06-.033.228.127.413.317zm11.03-1.187c.094.21.316.472.257.622-.211.53-.519 1.02-.79 1.526l-.47-.278.758-1.842.245-.028zm-30.023.257c.096.197.317.52.267.57-.245.244-.562.414-.854.61l-.334-.497.921-.683zm67.827-.47c.331.054.625.333.935.518l-.042.36c-.267.121-.6.403-.784.327-.177-.074-.324-.222-.465-.385l-.21-.246c-.034-.04-.07-.08-.107-.117.227-.164.48-.49.673-.458zm-7.092-2.212c.248.414.717.847.718 1.28.003.719-.596 1.053-1.381 1.082-.652-1.514-.612-1.686.663-2.362zm-11.02-1.314c.362.363.406.854-.112 1.282-.216.18-.253.575-.404.952-.261-.35-.627-.637-.695-.983-.083-.421-.004-.936.19-1.316.067-.132.827-.128 1.02.065zm-16.214.65c-.05.41-.05.837-.175 1.223-.047.143-.388.19-.596.28-.057-.242-.23-.538-.146-.715.14-.302.442-.529.676-.787h.241zM82.85 48.33c.423.199.81.474 1.25.752-.302.435-.51.734-.72 1.033l-.37.077c-.203-.456-.447-.901-.581-1.377-.034-.12.361-.513.42-.485zm-3.738-1.414c1.296.518 1.277 1.235.887 2.215-.338-.14-.93-.232-.968-.43-.103-.53.032-1.107.081-1.785zm19.34-2.453c.91.656 1.24 1.544.73 2.115-.16.18-.722.226-.945.087-.924-.579-.888-.777.215-2.202zm-7.332-.305c.98.498.217 1.278.426 2.03-.82-.858-.91-1.382-.426-2.03zm-53.847-.06c.312.339.819.65.873 1.025.038.265-.5.686-.863.889-.104.058-.497-.4-.914-.753l.904-1.16zm67.364-.024v1.108l-1.12-.78.015-.273 1.105-.055zm-26.862-3.668c1.035.462 1.502 3.01.735 3.824-.585.621-1.82.324-2.174-.562-.171-.427-.22-.903-.358-1.51.27-.539.53-1.182.912-1.74.1-.145.63-.127.885-.012zm42.017 2.974l.209.873-1.657-.198.11-.313 1.338-.362zm-40.116-1.997c.103.19.182.394.257.573l.683-.134-.83 1.137c-.2-.681-.318-1.063-.412-1.45-.004-.018.296-.137.302-.126zm32.4-.054l.48.553-.645.829c-.099-.242-.297-.496-.268-.722.03-.234.28-.441.433-.66zm7.412-.797c.157.715.27 1.234.385 1.752l-.311.08-.105-.127-.108-.127c-.32-.386-.578-.811.139-1.578zm-17.173-2.602c.323.293.794.533.922.894.102.288-.186 1.023-.35 1.039-.481.046-.987-.169-1.484-.28l-.162-.375 1.074-1.278zm-26.596-5.07l.22.125.198.944.627-.934c.22.885.569 1.628.533 2.351-.03.612-.401 1.298-.83 1.758-.202.217-1.047.159-1.332-.086-.755-.651-.601-1.601-.33-2.436.2-.609.602-1.15.914-1.722zm7.293-.041l.491.603-1.149.806-.374-.479 1.032-.93zM71.34 31.173c.208.086.558.129.598.264.166.558.075 1.055-1.03 1.272l.432-1.536zm40.933 1.049l-.912.408v-1.16c.648-.15.648-.15.912.752zm-62.574-1.843c-.478.393-.736.752-1.048.808-.194.035-.708-.474-.666-.592.121-.34.405-.701.721-.854.148-.072.519.32.993.638zm60.495-2.332l1.212.225-1.027 1.05-.185-1.275zm-57.766.085c.106.729-.398.952-1.11.996-.213-.646-.369-1.233.389-1.453.191-.056.692.263.72.457zm37.165-.408l.032.397-1.61.959c-.038-.355-.17-.981-.096-1.008.534-.185 1.111-.247 1.674-.348zm-45.806-1.738c.271.341.713.661.758 1.03.034.273-.448.608-.7.916l-.973-1.004.915-.942zM94.76 22.34l1.065.8-.035.276-2.166-.371 1.136-.705zM61.62 21.146l.747.818c-.275.164-.536.41-.83.458-.143.024-.501-.337-.486-.497.022-.228.298-.433.569-.78zm9.15-1.764l.298 1.311-.234.2c-.25-.317-.516-.625-.723-.969-.018-.029.35-.29.66-.542zM41.206 16.86c.044.31.196.665.091.911-.062.146-.53.12-.815.17l-.12-.252.504-.807.34-.022zm51.329-6.5c.328.1.799.104.956.327.153.218-.016.661-.043 1.007h-1.374l.461-1.333zm-12.19-.698c-.246.399-.512.843-.797 1.274-.057.086-.196.175-.287.167-.09-.009-.25-.163-.235-.216.07-.267.115-.618.303-.759.324-.242.747-.35 1.017-.466zm-14.898-.888c.176.233.533.513.487.686-.075.283-.413.497-.788.898-.21-.438-.484-.753-.412-.913.124-.275.464-.452.713-.67zm5.006-4.868c.194.264.59.585.535.779-.087.308-.474.532-.735.792l-.335-.14.218-1.334.317-.097zm-2.229-2.569c-.123.41-.257.818-.364 1.232-.024.095.02.226.07.32.093.173.214.331.324.496-.185.045-.372.081-.554.136-.298.09-.592.19-.888.285-.36-1.204-.082-2.09 1.412-2.469zm15.89-.04l-.127 1.662c-.933-.723-.92-.926.127-1.663zM54.354-.507c.584.284 1.403.426 1.545.814.192.527-.112 1.249-.272 1.868-.019.07-.59.136-.716.012-.332-.323-.682-.721-.792-1.15-.098-.383.113-.846.235-1.544zm29.795-2.21c.38.346.653.48.727.684.125.348.143.741.15 1.116 0 .042-.51.175-.544.12-.179-.295-.313-.628-.398-.964-.028-.11-.018-.228.004-.402l.03-.24c.01-.092.021-.195.03-.314zm-23.995-.288c-.03.25-.005.504-.005.755-.549.067-1.085.202-1.61.172-.32-.018-.872-.265-.892-.454-.063-.586.038-1.23.816-1.368.243-.044.52.052.746-.022.935-.305 1.031.189.945.917zm25.907-.67c.095.319.109.662.156.995l-.234.2-.333-.541c-.109-.182-.212-.365-.299-.557-.033-.073.185-.34.327-.38.097-.03.344.153.383.283zM76.474-6.24l.197.13c.066.044.13.084.188.115l-.162.4c-.263.199-.504.46-.8.564-.107.038-.528-.397-.497-.46.171-.336.393-.696.697-.891.067-.043.214.038.377.142zm-11.455-.64c-.104.348-.402.639-.756 1.135-.326-.424-.67-.71-.62-.836.133-.327.397-.658.699-.827.105-.06.71.418.677.528zm3.959-1.712c.199.116.382.471.356.7-.026.225-.322.42-.407.518l.218.998-.44.099c-.138-.678-.3-1.353-.382-2.037-.009-.077.525-.354.655-.278zM65.426-9.3c-.276.506-.579 1.229-.671 1.203-.52-.146-1.17-.396-1.002-1.111.079-.336.459-.734.783-.827.191-.055.538.429.89.735zm19.523-.227l-.716-1.072c.967-.132 1.335.084.716 1.072zm-20.078-3.265c.168.085.263.48.235.715-.015.12-.368.246-.582.283-.287.048-.588.012-1.079.012.123-.396.149-.888.408-1.152.15-.153.714-.012 1.018.142z" mask="url(#ksv1atfbcb)"/>
                        <g>
                            <g transform="translate(0 17)">
                                <mask id="2st5ymf81d" fill="#fff">
                                    <use xlink:href="#iu88qhk8ec"/>
                                </mask>
                                <path fill="#000" d="M51.544 45.936c-11.007 2.686-22.464-.17-32.645-4.557-4.377-1.886-8.485-4.33-11.29-8.096 2.827 2.588 6.393 4.444 9.833 5.951 4.88 2.136 10.013 3.64 15.287 4.371 9.726 1.35 19.77-.03 28.48-4.701 3.526-1.89 6.758-4.294 9.559-7.146.075.078.145.156.213.235-3.964 7.188-11.554 12.022-19.437 13.943m11.724 5.774c-1.38 2.145-2.56-.702-2.767-1.378-.254-.83-.309-1.708-.324-2.572-.018-1.175.066-2.347.066-3.52 1.583 1.528 4.271 5.534 3.025 7.47m-19.327 1.203c.463.995 1.218 2.01 1.222 3.129.002 1.216-.278 2.767-1.354 3.494-1.914 1.29-3.19-.645-3.204-2.473-.006-1.108.181-2.242.4-3.323.312-1.56.846-3.031 1.39-4.51.38 1.266 1.01 2.524 1.546 3.683M24.035 49.94c-.031.882-.027 1.819-.247 2.68-.108.424-.247.894-.485 1.26-.638.987-2.426 1.517-2.82-.07-.378-1.515.621-3.655 1.338-4.903.716-1.25 1.592-2.4 2.397-3.591-.126 1.533-.126 3.086-.183 4.624m-4.102-27.418c4.127-1.615 8.458-2.794 12.857-3.42-1.922 1.687-2.56 4.98-2.625 7.43-.115 4.306.033 9.09 2.622 12.73.898 1.262 2.027 2.293 3.303 2.997-5.528-.429-11.002-1.764-16.157-3.78-5.069-1.981-9.448-4.824-13.845-7.979 4.397-3.155 8.776-5.998 13.845-7.978m30.65 11.888c1.695-4.131 3.356-9.411 2.2-13.939 6.322 1.927 12.154 5.321 16.8 10.029-5.367 5.437-12.312 9.126-19.772 10.821-1.858.423-3.736.717-5.622.893 3.042-1.6 5.087-4.623 6.393-7.804M18.9 19.62c10.18-4.387 21.638-7.243 32.645-4.557 7.883 1.92 15.473 6.755 19.437 13.943-.068.08-.138.157-.213.235-2.8-2.852-6.033-5.256-9.56-7.146-8.709-4.67-18.753-6.05-28.479-4.701-5.274.73-10.408 2.235-15.287 4.371-3.44 1.507-7.006 3.363-9.833 5.951 2.805-3.766 6.913-6.21 11.29-8.096m2.922-7.528c-.717-1.248-1.716-3.388-1.339-4.904.395-1.586 2.183-1.056 2.82-.068.239.365.378.835.486 1.258.22.862.216 1.8.247 2.681.057 1.538.057 3.09.183 4.624-.805-1.192-1.68-2.342-2.397-3.591M41.004 7.26c-.218-1.08-.405-2.215-.399-3.323.013-1.828 1.29-3.762 3.204-2.473 1.076.727 1.356 2.278 1.354 3.494-.004 1.12-.759 2.134-1.222 3.129-.535 1.159-1.166 2.417-1.545 3.682-.545-1.478-1.079-2.949-1.392-4.509m19.497 3.408c.207-.676 1.387-3.523 2.767-1.378 1.246 1.936-1.442 5.942-3.025 7.47 0-1.173-.084-2.345-.066-3.52.015-.864.07-1.741.324-2.572M6.721 40.342C2.703 47.25.53 44 .767 43.25c-.02-.563.302-1.292.554-1.737.511-.909 1.254-1.618 2.075-2.238.765-.578 1.58-1.063 2.405-1.55.503-.298 2.166-1.614 2.721-1.386.025.011.049.014.073.011-.615 1.339-1.131 2.712-1.874 3.99M8.522 24.66c-.555.228-2.218-1.088-2.72-1.385-.825-.488-1.641-.973-2.406-1.551-.82-.62-1.564-1.33-2.075-2.238-.252-.445-.574-1.174-.554-1.737-.236-.749 1.936-4 5.954 2.91.743 1.278 1.259 2.651 1.874 3.99-.024-.003-.048 0-.073.01m59.2 13.374c1.502-1.606 2.816-3.388 3.894-5.302.408-.727.783-1.469 1.123-2.231-.34-.762-.715-1.504-1.123-2.231-1.078-1.914-2.392-3.696-3.894-5.302 1.665-1.507 4.069-1.832 5.427-3.84.745-1.103 1.462-3.308.013-4.18-1.552-.933-3.693.292-4.496 1.668-.569.975-.875 2.127-1.252 3.184-.285.797-.56 1.517-.536 2.306-.884-.869-1.824-1.684-2.814-2.428-1.023-.771-2.083-1.467-3.17-2.094 1.274-.776 2.745-3.729 3.104-4.575.626-1.474 1.087-4.195-.538-5.271-1.449-.96-2.94.372-3.515 1.664-1.01 2.257-.586 5.144-.191 7.557-2.721-1.425-5.61-2.442-8.591-3.093.31-.436.89-.833 1.246-1.205.54-.57 1.047-1.168 1.534-1.786.741-.94 1.623-1.934 1.877-3.135.38-1.806-.084-4.028-2.135-4.383-1.817-.314-3.23 1.084-3.742 2.728-.71 2.289-.15 5.224.274 7.588-2.426-.465-4.904-.702-7.391-.724-.003-.002 0-.005-.003-.009.827-1.451 1.315-3.144 2.064-4.648.554-1.108 1.255-2.06 1.266-3.333.022-2.043-.87-4.54-3.142-4.914-2.626-.432-3.47 2.406-3.27 4.487.26 2.698 1.047 5.585 2.476 7.932-.022.102-.046.203-.064.303-.01.067-.002.126.018.182-2.52.013-5.043.24-7.526.656.796-2.779 1.352-5.923.675-8.772-.408-1.717-1.866-3.944-3.927-3.483-2.062.46-1.983 2.945-1.469 4.52.818 2.512 1.971 5.909 3.775 7.854.046.053.12.025.143-.03-.004.017-.006.035-.008.052-.36.067-.72.136-1.079.209-2.61.54-5.203 1.252-7.746 2.116v-.007c.064-1.564-.03-3.144-.068-4.708-.029-1.23-.011-2.515-.401-3.698-.477-1.442-1.956-3.135-3.652-2.428-1.823.76-1.248 3.308-.785 4.737.765 2.364 2.37 4.562 4.044 6.41-2.295.81-4.549 1.739-6.738 2.78-.6-2.98-.97-6.388-2.816-8.905-.915-1.247-3.12-3.053-4.494-1.274-1.266 1.64.778 4.667 1.733 5.952.864 1.158 1.885 2.193 2.966 3.148.46.405 1.094 1.09 1.737 1.502-.255.126-.509.253-.763.381-2.381 1.212-4.743 2.71-6.652 4.607-.8-2.617-2.165-5.36-4.154-7.263-1.05-1.002-3.588-2.894-4.675-.875-1.11 2.058 1.206 4.677 2.67 5.793 1.226.935 2.642 1.631 3.985 2.373.558.308 1.113.838 1.669.497-1.24 1.338-2.254 2.867-2.902 4.62-.092.114-.19.225-.28.343-.101.13-.101.308-.04.445-.061.137-.061.315.04.445.09.118.188.229.28.344.648 1.752 1.663 3.281 2.902 4.62-.556-.342-1.111.188-1.67.496-1.342.742-2.758 1.438-3.984 2.373-1.464 1.116-3.78 3.735-2.67 5.793 1.087 2.019 3.625.127 4.675-.875 1.989-1.903 3.354-4.646 4.154-7.263 1.91 1.897 4.271 3.395 6.652 4.607.254.128.508.255.763.38-.643.413-1.276 1.098-1.737 1.503-1.08.955-2.102 1.99-2.966 3.148-.955 1.285-2.999 4.312-1.733 5.952 1.374 1.779 3.579-.027 4.494-1.274 1.845-2.517 2.216-5.925 2.816-8.905 2.19 1.041 4.443 1.97 6.738 2.78-1.674 1.848-3.279 4.046-4.044 6.41-.463 1.43-1.038 3.977.785 4.737 1.696.707 3.175-.986 3.652-2.428.39-1.183.372-2.468.4-3.698.038-1.564.133-3.144.07-4.708v-.007c2.542.864 5.135 1.576 7.745 2.116.36.073.72.142 1.079.209.002.017.004.035.008.053-.024-.056-.097-.084-.143-.031-1.804 1.945-2.957 5.342-3.775 7.854-.514 1.575-.593 4.06 1.469 4.52 2.061.46 3.519-1.766 3.927-3.483.677-2.85.121-5.993-.675-8.772 2.483.417 5.005.643 7.526.656-.02.056-.029.115-.018.182.018.1.042.201.064.303-1.429 2.347-2.216 5.234-2.476 7.932-.2 2.08.644 4.919 3.27 4.487 2.271-.374 3.164-2.871 3.142-4.914-.011-1.272-.712-2.225-1.266-3.333-.75-1.504-1.237-3.197-2.064-4.648.003-.004 0-.007.003-.009 2.487-.022 4.965-.26 7.39-.724-.422 2.364-.983 5.3-.273 7.588.512 1.644 1.925 3.042 3.742 2.728 2.051-.355 2.514-2.577 2.135-4.383-.254-1.2-1.136-2.196-1.877-3.135-.487-.618-.994-1.216-1.534-1.786-.355-.372-.935-.769-1.246-1.205 2.981-.651 5.87-1.668 8.59-3.093-.394 2.413-.818 5.3.192 7.557.576 1.292 2.066 2.624 3.515 1.664 1.625-1.076 1.164-3.797.538-5.27-.36-.847-1.83-3.8-3.104-4.576 1.087-.627 2.147-1.323 3.17-2.094.99-.744 1.93-1.56 2.814-2.428-.024.789.251 1.509.536 2.306.377 1.057.683 2.21 1.252 3.184.803 1.376 2.944 2.601 4.496 1.669 1.449-.873.732-3.078-.013-4.181-1.358-2.008-3.762-2.333-5.427-3.84" mask="url(#2st5ymf81d)"/>
                            </g>
                            <path fill="#FFF" d="M46.783 29.852c-1.021 3.236-3.339 8.775-7.367 9.096-3.998.319-5.45-4.968-6.172-7.933-.96-3.948-.83-8.356 1.707-11.567.08.054.183.071.281.013 1.69-.997 3.226-1.374 5.187-1.513 1.759-.125 3.785-.25 5.34.728 3.429 2.155 2.002 8.08 1.024 11.176m.436-11.184c-1.605-1.707-4.1-1.811-6.29-1.687-1.419.081-3.334.146-4.723.88-.03-.01-.064-.008-.096.013-3.891 2.51-4.617 7.435-3.921 11.675.57 3.477 1.951 9.485 6.203 10.2 4.445.749 7.315-4.658 8.662-8.002.936-2.323 1.516-4.808 1.685-7.307.135-1.985-.09-4.252-1.52-5.772" transform="translate(0 17)"/>
                            <path fill="#FFF" d="M42.57 30.628c-.545 1.242-1.429 3.375-3.02 3.357-1.807-.021-2.457-2-2.883-3.429-.423-1.416-.743-2.89-.66-4.374.078-1.44.542-2.89 1.535-3.969.204-.22.417-.41.639-.575.005-.003.01-.003.015-.007 1.206-.843 3.052-.607 4.103.363 1.057.975 1.459 2.447 1.439 3.841-.023 1.635-.515 3.303-1.169 4.793m1.64-7.101c-.425-1.245-1.357-2.307-2.458-2.836-.006-.012-.013-.023-.026-.03-.259-.12-.52-.201-.78-.252-.042-.01-.085-.017-.128-.024l-.006-.002c-.514-.091-1.042-.06-1.557.122-1.521.46-2.834 1.841-3.398 3.264-1.083 2.729-.397 6.27.873 8.833.517 1.043 1.423 2.015 2.655 2.125 1.345.12 2.273-.907 2.922-1.945 1.598-2.56 2.925-6.265 1.904-9.255" transform="translate(0 17)"/>
                            <path fill="#FFF" d="M41.083 26.136c-.516-1.115-2.343-.9-2.4.408-.024.546.295 1.104.807 1.292.02.008.041.01.062.016 1.016.466 2.003-.696 1.531-1.716" transform="translate(0 17)"/>
                        </g>
                        <text fill="#212121" font-family="Moranga-Medium, Moranga" font-size="18" font-weight="400">
                            <tspan x="78" y="110">2</tspan>
                        </text>
                    </g>
                </g>
            </g>
        </g>
    </g>
</svg>
