<svg xmlns="http://www.w3.org/2000/svg" xmlns:xlink="http://www.w3.org/1999/xlink" width="116" height="104"
     viewBox="0 0 116 104">
    <defs>
        <path id="u4i5z7j9qa"
              d="M1.289 15.757c-1.963 6.294-1.706 13.399.92 19.489 5.026 9.587 21.818 13.7 23.456 25.684l-.004-.053c1.402 9.613-6.77 16.484-10.115 24.752-4.007 7.878-.656 16.808 10.12 18.371 3.4-.048 11.255-1.61 24.914-2.768 13.66-1.159 23.047.895 28.416.575 9.972-.545 20.168-8.45 20.777-19.094.735-3.341-.823-6.414-2.723-9.015-4.536-6.785 1.187-13.979 2.247-20.837.096-.695.196-1.49.29-2.184l-.006.016c2.59-16.404-7.063-24.884-22.575-25.435l.098.017c-6.97-1.179-14.4-2.323-20.594-5.909-2.333-1.463-3.424-4.166-5.02-6.333C44.268 5.06 33.05.458 22.48 0 13.065.443 3.02 5.474 1.29 15.757z"/>
        <path id="g9e65tyiec" d="M0 0L0.895 0 0.895 0.894 0 0.894z"/>
    </defs>
    <g fill="none" fill-rule="evenodd">
        <g>
            <g>
                <g>
                    <g transform="translate(-274 -2796) translate(188 2176) translate(64 600) translate(22 20)">
                        <mask id="rqh4gi4o9b" fill="#fff">
                            <use xlink:href="#u4i5z7j9qa"/>
                        </mask>
                        <use fill="#FFBADA" xlink:href="#u4i5z7j9qa"/>
                        <path fill="#FFF"
                              d="M37.231 100.737l.84.509-.48.754-.24-.113-.12-1.15zm40.306-3.57c.116.117.259.275.264.42.008.249-.082.5-.167.938-.202-.376-.352-.584-.425-.817-.045-.146.005-.336.057-.49.016-.047.231-.09.271-.05zm-53.28-.455c.57.357.468.838.153 1.36-.745-.188-.773-.703-.672-1.239.015-.077.406-.192.52-.121zm31.41-3.932c.478.394.975.981 1.09 1.566.282 1.44-.508 2.108-1.986 1.871-.092-.015-.194.037-.404.082-.149-.69-.377-1.324-.39-1.961-.007-.41.205-.938.5-1.21.289-.265.998-.507 1.19-.348zm-36.226-1.523l.363.005.314 1.308-.276.19c-.224-.171-.604-.317-.636-.52-.049-.307.144-.653.235-.983zm35.54.613c-.442.444-1.168.552-1.403.188-.105-.165-.108-.525.003-.676.259-.355.925-.118 1.4.488zm-32.304-1.007c.245.033.46.289.688.45-.19.24-.34.546-.585.685-.097.055-.4-.261-.762-.516.318-.313.511-.639.66-.619zm48.62-1.973c.777.486.714 1.088.455 1.851-.407-.592-.907-1.05-.455-1.851zm-40.861.95c-.525 1.066-.53 1.068-1.321.277.309-.997.844-.412 1.32-.276zm50.02-2.937c.74-.008 1.413 1.255.961 1.914-.235.343-.664.761-1.012.768-.651.012-.679-.648-.724-1.161-.074-.841.28-1.515.774-1.52zm-58.063 1.402l-1.06 1.13c-.124-.835.368-1.386 1.06-1.13zm65.838-2.375l.6.365-.529.846-.425-.225.354-.986zm-25.301-.868c.045-.02.27.363.41.56-.187.133-.359.323-.568.384-.208.06-.454-.01-.765-.028-.067-.728.532-.739.923-.916zM20.87 83.91l1.302.373-.817.59-.485-.963zm10.672-1.663c.135.047.381.084.386.142.017.202-.012.43-.096.613-.066.143-.24.234-.387.367-.025-.206-.08-.396-.063-.58.017-.184.104-.361.16-.542zm49.885-1.665c.684.013.704.544.838 1.242-.224.138-.495.429-.791.457-.616.06-.629-.489-.65-.914-.02-.398.057-.795.603-.785zm-8.228-1.21l.873.79-.162.137-1.129-.107.418-.82zm2.632-2.769l.903.118.01.441-.878.134-.035-.693zm16.622-3.232L93 74.99l-.546.225-.133-.21c-.311-.488-.585-.957-.189-1.533l.32-.102zm-54.05-2.778l.63.547.164.143-.385.49-.506.645-.427-1.234.524-.59zm-5.177.38l1.045.439-.878.45-.343-.762.176-.127zm3.783-4.966l.494.893h-1.541l1.047-.893zm16.316-1.244l.126.256c-.39.796-.39.796-1.228.424l1.102-.68zm1.509-1.2c.188.118.451.2.572.38.153.23.336.614.244.796-.12.237-.497.34-.763.5-.08-.336-.206-.669-.224-1.008-.013-.238.12-.484.17-.668zm7.696.16l.52.779-.3.3c-.193-.175-.456-.32-.55-.539-.047-.11.21-.355.33-.54zm-18.07-1.496c.511.032.98.188 1.001.983-.242.284-.47.786-.729.803-.492.03-.897-.353-.894-.922.003-.399.028-.902.622-.864zm-11.547.233c.014 1.01-.988.54-1.378 1.128.021-1.063.646-1.503 1.378-1.128zm33.262-.4l1.08.489c-.148.189-.276.518-.448.544-.726.108-.393-.65-.632-1.034zM37.91 61.4l.524.497-.605.517c-.132-.163-.395-.358-.365-.482.048-.202.287-.357.446-.532zm11.275-.52l1.38.443-1.14.66-.24-1.103zm-25.154-.488l-.657 1.044-.264-.053-.13-.937c.314-.016.563-.03 1.051-.054zm11.42-.916c.065.021.145.271.105.316-.327.368-.624.816-1.312.781.313-.416.538-.75.804-1.046.072-.08.281-.09.402-.05zm-2.66.344l-.969.546c-.263-.531-.068-.908.319-1.127.083-.046.424.374.65.581zm8.623-1.294c.075.172.256.387.208.51-.171.434-.42.837-.64 1.252l-.38-.228.613-1.511.199-.023zm30.636-.176c.268.046.506.275.757.426l-.034.296c-.216.099-.486.33-.635.267-.252-.106-.426-.398-.633-.612.183-.136.388-.403.545-.377zm-5.747-1.813c.2.34.58.694.582 1.05.002.59-.484.863-1.12.887l-.125-.3c-.39-.97-.281-1.131.663-1.637zm-8.932-1.078c.295.297.33.7-.09 1.052-.175.147-.205.47-.327.78-.212-.287-.508-.522-.563-.806-.068-.345-.004-.768.153-1.08.055-.108.67-.104.827.054zm-13.138.533c-.04.337-.04.687-.143 1.003-.037.118-.314.156-.482.23-.047-.199-.186-.442-.12-.587.115-.247.36-.433.55-.645h.195zm14.236-1.686c.343.163.656.389 1.014.616l-.584.848-.3.063c-.165-.374-.362-.739-.471-1.13-.028-.098.293-.42.341-.397zm-3.029-1.16c1.05.425 1.035 1.013.719 1.817-.274-.115-.753-.19-.785-.353-.083-.435.026-.908.066-1.464zm15.673-2.012c.738.538 1.005 1.266.592 1.734-.13.148-.585.186-.766.072-.749-.475-.72-.638.174-1.806zm-5.942-.25c.794.408.176 1.048.346 1.665-.664-.704-.738-1.134-.346-1.665zm10.954-.07v.91c-.46-.326-.684-.483-.907-.64l.012-.225c.299-.014.597-.03.895-.045zm-21.769-3.008c.84.38 1.218 2.47.596 3.137-.474.51-1.475.265-1.762-.461-.138-.35-.177-.74-.29-1.239.219-.442.429-.97.74-1.427.08-.12.51-.104.716-.01zm34.05 2.44l.17.715-1.343-.161.089-.258 1.085-.296zm-32.51-1.639c.084.157.149.324.21.47l.553-.11-.672.933c-.163-.559-.259-.871-.335-1.189-.003-.015.24-.112.245-.104zm26.258-.044l.388.454c-.216.282-.37.48-.522.68-.08-.199-.24-.407-.218-.592.025-.193.227-.362.352-.542zm6.006-.653l.312 1.437-.252.066c-.3-.385-.77-.735-.06-1.503zm-13.917-2.135c.262.24.644.437.748.734.082.236-.15.839-.284.852-.39.037-.8-.139-1.203-.23l-.13-.308.869-1.048zM52.69 41.617l.179.102.16.775.508-.767c.178.727.46 1.336.432 1.929-.024.501-.325 1.065-.672 1.442-.164.178-.85.13-1.08-.071-.612-.534-.487-1.313-.267-1.998.161-.5.488-.944.74-1.412zm-37.083 1.031l.604.547c-.253.198-.443.452-.573.423-.179-.039-.432-.291-.432-.452 0-.173.257-.345.401-.518zm42.994-1.066l.397.495-.93.662-.304-.393c.28-.254.558-.509.837-.764zm-9.459-1.349c.169.07.452.105.485.216.135.458.061.866-.835 1.044l.35-1.26zm33.172.86l-.74.335v-.952c.526-.123.526-.123.74.617zM8.003 37.955c1.175.904 1.64 1.752 1.319 2.414-.254.525-1.076.875-1.648.525-.371-.226-.696-.745-.778-1.184-.082-.437.165-.937.266-1.402l.84-.353zm23.602 1.627c-.387.322-.597.616-.85.662-.157.029-.573-.389-.539-.485.098-.279.328-.575.584-.701.12-.059.42.262.805.524zm49.024-1.914l.983.185-.833.86-.15-1.045zm-46.813.07c.086.598-.322.782-.9.817-.172-.53-.298-1.01.316-1.191.155-.046.561.215.584.375zm30.119-.334l.026.325-1.305.787c-.03-.29-.139-.805-.078-.826.433-.152.9-.203 1.357-.286zm-37.121-1.425c.22.28.577.542.614.844.028.224-.363.5-.568.751l-.788-.823.742-.772zM6.863 34.762c.207-.003.417.224.775.446-.07.06-.135.122-.193.18l-.161.16c-.122.121-.217.202-.302.193-.185-.021-.453-.273-.48-.455-.023-.165.228-.522.361-.524zm-.102-2.185c.515.284.859.638.581 1.186-.083.165-.649.301-.75.2-.444-.44-.328-.92.169-1.386zm61.362.41l.862.657-.028.226-1.755-.305.92-.578zm-58.725-.432c.114.49-.132.762-.597.847l-.272-.151c.153-.293.295-.593.474-.868.017-.025.375.084.395.172zm31.867-.547l.606.67c-.223.136-.434.338-.672.377-.116.02-.407-.276-.395-.408.018-.187.242-.355.461-.639zm7.416-1.447l.241 1.076-.19.164c-.203-.26-.417-.513-.586-.795-.014-.024.284-.238.535-.445zm41.588-.206l.068.122.148.242c.096.162.178.324.183.489.003.073-.135.152-.3.231l-.205.096c-.067.032-.132.064-.186.095l-.16-.205.214-.964.238-.106zm-65.546-1.862c.035.253.158.545.073.747-.05.12-.43.098-.66.14l-.098-.207.409-.662.276-.018zm57.083-4.204l.675 2.469c-.937.345-1.22-.16-1.435-.66-.315-.733-.146-1.347.76-1.809zm-60.85.268l.787.626c-1.86.128-2.422-.024-2.54-.626h1.752zm-25.54-.52c.238.098.429.313.638.483l-.25.375-.804-.43c.142-.152.346-.457.416-.428zm14.273-1.084c.04.101.113.193.194.283l.124.134c.226.246.42.498.073.895-.09.104-.578.04-.583.008-.066-.432-.079-.873-.105-1.312l.297-.008zm-6.936-.288c.534-.01 1.196.691 1.053 1.2-.036.129-.3.324-.334.301-.227-.156-.501-.326-.604-.562-.12-.277-.084-.624-.115-.94zm53.688-.076c-.2.326-.416.69-.647 1.044-.046.071-.158.144-.233.137-.072-.007-.201-.134-.19-.177.057-.219.093-.507.246-.622.262-.199.605-.287.824-.382zm-12.074-.729c.142.19.432.42.395.563-.061.232-.335.407-.639.736-.17-.359-.392-.618-.334-.749.1-.225.376-.37.578-.55zm20.346-.892l.914.813-.276.311c-.284-.253-.576-.498-.839-.772-.025-.027.13-.23.201-.352zm-66.59-.922l.943.835c-.378.255-.666.554-.77.5-.278-.148-.562-.415-.668-.702-.027-.072.074-.193.2-.323l.155-.158c.052-.052.1-.104.14-.152zm30.548-.794c.228.002.691.622.635.72-.26.457-.664.829-1.017 1.23l-.545-.748c.13-.682.29-1.21.927-1.202zm-10.603-1.099c-.14.401-.159.753-.336.882-.174.126-.51.027-.593.027l-.995.44-.25-.656 2.174-.693zm30.355-.286c.158.217.479.48.434.639-.07.253-.384.436-.595.65l-.272-.115.177-1.094.256-.08zm-1.805-2.107c-.1.336-.209.67-.295 1.01-.02.079.015.185.056.262.076.143.174.272.263.407-.15.037-.302.067-.45.112-.24.073-.48.156-.719.234-.292-.988-.066-1.715 1.145-2.025zm-16.531.927l-.538.99-.199-.063-.135-.796.872-.13zm29.407-.96l-.102 1.363c-.757-.593-.746-.759.102-1.364zm-24.116-1.48c.086.043.178.082.272.118l.284.106c.327.121.622.242.695.445.156.432-.09 1.024-.22 1.533-.015.057-.478.11-.58.01-.27-.266-.553-.593-.642-.944-.08-.315.092-.695.19-1.267zm-12.935-.218l-.126.141c-.29.329-.553.627-.962.245-.15-.14-.197-.679-.078-.781.477-.41.816-.052 1.166.395zm17.634-1.83l-.011.206.007.413c-.444.056-.878.166-1.305.142-.26-.015-.706-.218-.723-.373-.05-.48.032-1.009.662-1.122.197-.036.421.042.605-.018.757-.25.835.155.765.752zM1.251 10.884l.581.486c-.232.181-.392.396-.507.374-.174-.033-.453-.244-.442-.356.016-.178.235-.337.368-.504zm24.325-.584c.198.239.446.456.561.73.035.082-.3.324-.576.605-.272-.332-.604-.584-.562-.718.074-.243.372-.415.577-.617zM44.02 9.02c-.084.286-.326.524-.613.931-.264-.348-.543-.582-.501-.686.107-.268.32-.539.565-.678.085-.049.576.343.549.433zm.33-1.984c-.224.415-.47 1.008-.544.987-.422-.12-.949-.325-.812-.912.064-.275.372-.601.634-.678.155-.045.437.352.722.603zM31.253 5.96l.219.345-.368.301c-.124.099-.25.19-.388.263-.055.028-.267-.252-.407-.39l.944-.52zM8.267 4.249c.32.282.556.663.815.992-.093.193-.143.372-.25.506-.177.223-.39.417-.588.623-.261-.26-.667-.482-.747-.79-.102-.394.028-.865.138-1.281.02-.077.514-.155.632-.05zM43.9 4.17c.136.07.213.394.19.587-.011.098-.297.202-.471.232-.233.04-.477.01-.875.01.1-.324.121-.729.33-.945.122-.125.58-.01.826.116z"
                              mask="url(#rqh4gi4o9b)"/>
                        <g>
                            <path fill="#FFF"
                                  d="M61.004 32.44c-2.744-3.817-7.161-6.73-11.992-6.508-4.262.197-8.583 2.65-10.521 6.548-.31.623-.553 1.272-.728 1.94-3.298-3.806-8.714-5.813-13.544-3.884-2.372.947-4.352 2.674-5.389 5.043-.978 2.233-1.08 4.715-.8 7.11.316 2.698 1.102 5.313 1.972 7.876.965 2.84 2.093 5.627 3.378 8.335 2.615 5.506 5.914 10.664 9.774 15.373.961 1.173 1.96 2.317 2.991 3.428.91.98 1.82 2 2.929 2.761.993.684 2.213 1.085 3.408.76 1.294-.353 2.175-1.42 2.97-2.434 3.92-5.012 8.006-9.946 11.629-15.183 3.328-4.812 6.145-10.142 7.043-15.996.807-5.26.033-10.781-3.12-15.169"
                                  transform="translate(31 2)"/>
                            <path fill="#000"
                                  d="M66.411 49.212c-2.684 6.814-6.498 13.083-10.828 18.965-4.753 6.457-10.064 12.517-15.468 18.436C33.134 75.96 24.37 66.49 18.85 54.906c-2.765-5.802-4.721-12.183-4.745-18.657-.02-5.654 1.747-11.656 6.719-14.887 2.59-1.682 5.814-2.343 8.751-1.203 2.72 1.056 4.995 3.471 5.284 6.453.095.985 1.646.995 1.547.007-.012-.117-.03-.232-.045-.347 3.93-6.01 9.833-11.16 17.315-11.508 3.63-.169 7.25.82 10.035 3.217 2.666 2.295 4.5 5.432 5.436 8.807 2.056 7.407.003 15.473-2.736 22.424m-1.235-31.976c-2.72-2.333-6.177-3.626-9.744-3.806-8.153-.412-15.177 4.725-19.417 11.348-1.433-4.387-6.187-7.2-10.822-6.627-5.987.74-10.307 5.876-11.817 11.445-1.74 6.418-.592 13.493 1.494 19.684 2.28 6.766 5.908 12.968 9.964 18.807 4.715 6.787 9.93 13.209 14.573 20.049.243.357.8.505 1.121.137 10.282-11.809 20.94-23.738 27.005-38.395 3.014-7.283 5.388-15.684 3.185-23.516-.968-3.44-2.81-6.783-5.542-9.126"
                                  transform="translate(31 2)"/>
                            <path fill="#000"
                                  d="M37.28 15.687c-.162-1.266-.162-2.735-.725-3.86-.156-.313-.614-.268-.686.105-.233 1.212.104 2.496.269 3.702.174 1.273.24 2.68.756 3.84.128.288.575.242.625-.095.178-1.212-.084-2.49-.238-3.692M43.294 9.514c-.195-1.51-.13-3.387-.872-4.78-.22-.416-1.09-.318-1.18.13-.308 1.5.313 3.324.566 4.82.289 1.71.383 3.59 1.06 5.226.18.436.89.348.936-.106.174-1.726-.287-3.575-.51-5.29M36.633 9.164c-.094-.125-.338-.237-.592-.225-.14.006-.309.005-.442.026-.199.03-.346.114-.502.185-.118.053-.176.15-.195.23-.02.085-.001.18.084.255.171.15.486.231.798.183.167-.025.329-.048.47-.11.095-.041.167-.093.245-.144.173-.114.24-.257.134-.4M49.665 3.048c-.13-.6-1.197-.396-1.254.135-.326 3.015.247 6.15.791 9.13.06.324.663.221.685-.073.224-3.023.431-6.193-.222-9.192M55.275 3.75c-.108-.216-.373-.22-.53-.074-.911.861-.83 2.978-.918 4.191-.103 1.416-.348 3.186.211 4.519.073.172.347.167.421 0 .565-1.272.468-2.93.617-4.31.09-.832.2-1.663.299-2.494.082-.685.214-1.207-.1-1.833M61.71 3.817c-.04-.227-.325-.293-.504-.202-1.216.62-1.718 3.03-2.087 4.233-.518 1.688-.796 3.435-.96 5.19-.039.42.674.519.751.1.314-1.696.778-3.35 1.339-4.982.304-.885.677-1.734 1.042-2.596.254-.597.533-1.097.42-1.743M68.398 5.41c-1.25.862-1.836 2.577-2.509 3.836-.823 1.54-1.577 3.1-2.334 4.668-.143.296.289.548.48.26.967-1.458 1.929-2.908 2.833-4.4.735-1.214 1.97-2.668 2.026-4.1.009-.215-.294-.403-.496-.263M73.898 10.734c-1.36.358-2.473 1.626-3.476 2.655-1.166 1.195-2.231 2.476-3.232 3.838-.27.368.166.883.483.532 1.074-1.192 2.199-2.338 3.367-3.417 1.08-.996 2.428-1.83 3.181-3.145.138-.242-.09-.524-.323-.463M78.495 19.667c-1.397-.061-2.846.711-4.122 1.22-1.163.464-2.776.886-3.61 1.85-.17.196-.047.466.2.49 1.318.127 2.917-.768 4.12-1.263 1.21-.496 2.658-.911 3.584-1.875.152-.158.037-.413-.172-.422"
                                  transform="translate(31 2)"/>
                            <path d="M73.368 25.92L85 25.92 85 27.708 73.368 27.708z" transform="translate(31 2)"/>
                            <path fill="#000"
                                  d="M84.796 26.062c-1.81-.39-3.85.128-5.666.351-1.901.234-3.761.58-5.637.96-.194.04-.149.338.046.335 2.01-.032 3.989-.107 5.99-.294 1.745-.163 3.728-.116 5.334-.85.219-.1.16-.453-.067-.502M81.087 32.334c-.967-.248-2.1-.138-3.12-.098-1.148.045-2.28.118-3.423.192-.375.025-.374.349 0 .375 1.143.078 2.275.155 3.422.203 1.02.043 2.152.158 3.12-.087.448-.113.445-.471 0-.585M81.097 40.259c-1.227-.451-2.663-.473-3.966-.612-1.41-.151-2.83-.225-4.247-.319-.467-.03-.578.666-.112.745 1.396.238 2.788.495 4.195.675 1.3.167 2.693.478 4.008.327.52-.06.617-.635.122-.816M81.289 47.7c-2.901-1.56-6.329-1.644-9.476-2.114-.276-.04-.322.458-.064.536 3.04.918 6.217 2.316 9.407 2.126.24-.014.385-.414.133-.549M41.967 98.175c-.053-.949-.14-1.892-.225-2.838-.134-1.49-.012-3.711-.834-4.966-.072-.11-.25-.146-.315 0-.643 1.443-.166 3.632-.066 5.169.062.948.13 1.893.223 2.838.084.84.073 1.689.472 2.43.17.315.56.213.667-.094.28-.81.125-1.69.078-2.539M46.157 91.35c-.263-1.203-.624-2.37-.932-3.559-.077-.293-.517-.255-.487.076.112 1.248.177 2.497.329 3.74.124 1.017.216 2.218.81 3.023.168.227.477.082.547-.166.27-.963-.058-2.159-.267-3.113M50.875 88.235c-.618-1.11-1.3-2.154-2.027-3.203-.167-.24-.622-.094-.517.203.39 1.097.79 2.171 1.29 3.23.423.9.74 2.162 1.71 2.662.188.096.494.02.535-.203.18-.977-.524-1.849-.991-2.689M56.364 85.419c-.16-1.06-1.029-1.886-1.693-2.639-.723-.819-1.462-1.752-2.394-2.307-.174-.103-.45.073-.367.298.387 1.044 1.128 1.914 1.78 2.783.63.842 1.308 1.91 2.322 2.237.228.074.384-.157.352-.372M61.651 81.806c-1.164-.955-2.524-1.674-3.777-2.519-1.391-.938-2.658-2.031-3.788-3.247-.173-.187-.515.06-.365.27 1.769 2.473 4.43 5.35 7.674 5.916.234.04.474-.241.256-.42M65.27 76.387c-.659-1.032-1.94-1.745-2.959-2.446-1.222-.842-2.486-1.612-3.749-2.398-.252-.157-.55.204-.324.396 1.123.957 2.23 1.92 3.4 2.826.974.754 2.03 1.748 3.252 2.09.28.078.53-.232.38-.468M69.73 71.055c-1.66-2.04-4.345-3.577-6.624-4.872-.303-.173-.644.238-.38.478 1.946 1.778 4.24 3.845 6.747 4.824.276.108.399-.256.257-.43M72.345 64.584c-.769-.704-1.877-1.117-2.773-1.658-1.05-.634-2.078-1.341-3.036-2.097-.195-.154-.431.077-.274.266.787.953 1.626 1.788 2.625 2.532.865.643 1.961 1.467 3.063 1.617.365.05.722-.36.395-.66M76.801 59.035c-.969-.934-2.366-1.387-3.587-1.825-1.339-.48-2.68-.747-4.083-.899-.29-.03-.314.423-.066.513 1.236.449 2.466.94 3.679 1.451 1.184.5 2.35 1.3 3.596 1.598.437.104.83-.483.461-.838M79.373 53.543c-1.155-.625-2.713-.703-3.995-.958-1.435-.285-2.887-.485-4.328-.739-.366-.065-.525.455-.156.56 1.4.4 2.786.852 4.194 1.22 1.258.328 2.712.95 4.018.892.502-.021.746-.715.267-.975M30.198 11.357c-.21-1.751-.597-3.378-1.21-4.994-.074-.194-.38-.102-.355.111.203 1.76.436 3.517.623 5.28.178 1.684.167 3.39.495 5.05.048.244.363.232.417 0 .412-1.779.246-3.643.03-5.447M22.963 8.16c-.238-.292-.668.02-.584.368.657 2.712 1.745 5.401 2.09 8.193.042.341.472.355.501 0 .262-3.12-.02-6.123-2.007-8.56M19.656 19.293c-.711-1.291-1.474-2.515-2.303-3.746-.677-1.003-1.344-2.316-2.44-2.975-.317-.192-.65.123-.59.418.254 1.25 1.455 2.421 2.241 3.436.853 1.1 1.73 2.13 2.682 3.159.201.217.538-.06.41-.292M14.172 21.764c-1.306-.955-2.72-1.496-4.335-1.81-1.373-.267-2.955-.513-4.264.05-.356.153-.198.613.099.718 1.287.454 2.796.363 4.149.61 1.379.25 2.744.652 4.1 1 .383.098.528-.365.251-.568M11.36 27.905c-1.34-.26-2.674-.527-4.023-.735-1.112-.172-2.414-.567-3.513-.213-.293.094-.326.42-.082.58.943.625 2.318.587 3.436.714 1.357.153 2.717.247 4.08.35.428.032.523-.614.101-.696M9.623 33.53c-2.649-.674-6.236-.756-8.587.787-.236.155-.17.549.155.541 1.403-.032 2.738-.401 4.13-.545 1.388-.143 2.826-.195 4.22-.212.344-.005.422-.485.082-.571M11.496 40.669c-1.274-.326-2.473-.532-3.784-.414-1.023.091-2.415.163-3.15 1.065-.16.195-.096.526.137.599.942.296 2.033-.22 2.976-.379 1.236-.209 2.522-.402 3.77-.445.207-.007.267-.372.05-.426M11.235 46.484c-1.553.272-3.108.524-4.646.875-1.307.299-2.777.41-3.835 1.309-.136.115-.059.361.103.4 1.34.319 2.73-.273 4.03-.607 1.522-.391 3.016-.88 4.517-1.35.399-.124.23-.697-.17-.627M12.034 50.953c-.905.139-1.818.254-2.714.43-.724.142-1.564.172-2.06.704-.19.204-.104.454.164.551.717.261 1.493-.072 2.207-.249.882-.218 1.745-.498 2.614-.753.491-.145.287-.759-.211-.683M14.778 54.535c-1.807.465-3.513 1.188-5.234 1.875-.756.301-1.499.63-2.242.957-.704.31-1.415.545-1.878 1.147-.163.211.064.444.284.467.792.082 1.55-.332 2.267-.615.757-.3 1.514-.596 2.259-.92 1.639-.713 3.287-1.395 4.813-2.31.328-.196.123-.702-.27-.6M16.538 58.117c-.925.342-1.837.729-2.707 1.212-.744.413-1.804.856-2.162 1.727-.105.256.012.642.325.615.84-.071 1.517-.808 2.217-1.276.845-.567 1.713-1.087 2.61-1.55.372-.192.11-.873-.283-.728M19.157 63.504c-1.47.837-2.923 1.707-4.347 2.613-1.274.81-2.926 1.624-3.943 2.715-.318.34-.019 1.055.522.848 1.499-.573 2.907-1.794 4.199-2.71 1.35-.956 2.683-1.94 3.986-2.955.306-.237-.088-.699-.417-.511M20.93 67.978c-1.55.83-3.546 1.524-4.725 2.887-.244.281-.009.714.357.628 1.733-.405 3.286-1.868 4.74-2.865.39-.268.05-.875-.371-.65M24.605 71.544c-1.391.805-2.638 1.795-3.812 2.934-.608.591-1.188 1.222-1.75 1.861-.464.528-1.011 1.02-1.14 1.751-.054.303.185.661.504.541.665-.25 1.024-.831 1.495-1.371.521-.598 1.062-1.175 1.614-1.74 1.142-1.172 2.31-2.305 3.447-3.479.247-.254-.066-.666-.358-.497M26.113 76.066l-2.177 1.56c-.649.465-1.245.873-1.55 1.576-.088.206.171.385.38.34.817-.182 1.362-.7 1.954-1.214l1.989-1.73c.398-.346-.183-.829-.596-.532M29.111 80.485c-1.485 1.065-2.726 2.228-3.837 3.661-.589.76-1.143 1.545-1.666 2.347-.46.706-1.108 1.49-1.233 2.322-.067.443.412.75.794.439.673-.55 1.045-1.45 1.527-2.156.474-.694.971-1.373 1.494-2.035 1.11-1.405 2.214-2.803 3.294-4.224.156-.204-.157-.51-.373-.354M31.558 84.126c-.743.661-1.486 1.322-2.219 1.993-.634.58-1.258 1.197-1.58 1.997-.113.278.242.437.46.344.82-.347 1.441-1.033 2.016-1.678.627-.705 1.252-1.412 1.872-2.123.321-.367-.176-.864-.549-.533M35.094 86.878c-.854 1.724-1.696 3.449-2.451 5.217-.382.894-.77 1.785-1.145 2.682-.389.93-.897 1.907-1.068 2.902-.098.574.606.887.955.396.549-.77.859-1.732 1.225-2.598.377-.893.733-1.795 1.099-2.694.753-1.854 1.415-3.732 2.062-5.624.132-.387-.492-.654-.677-.28"
                                  transform="translate(31 2)"/>
                            <g transform="translate(31 2) translate(55.474)">
                                <mask id="d8y45e0fbd" fill="#fff">
                                    <use xlink:href="#g9e65tyiec"/>
                                </mask>
                                <path fill="#FFB1A2" d="M.447 0c-.596 0-.597.894 0 .894.596 0 .597-.894 0-.894"
                                      mask="url(#d8y45e0fbd)"/>
                            </g>
                            <path fill="#FF8661"
                                  d="M76.5 9.832c-.596 0-.597.894 0 .894.596 0 .597-.894 0-.894M82.87 31.407l-.193-.063c-.545-.175-1.256.05-1.256.386 0 .335.711.561 1.256.386l.194-.062c.453-.147.453-.501 0-.647M83.658 47.372c-.596 0-.597 1.787 0 1.787.596 0 .597-1.787 0-1.787M77.842 59.885c-1.192 0-1.194 1.788 0 1.788 1.192 0 1.194-1.788 0-1.788M70.237 72.398c-.596 0-.597.894 0 .894.596 0 .597-.894 0-.894M55.92 86.7c-.595 0-.596.893 0 .893.597 0 .598-.894 0-.894M47.291 96.696l-.064-.067c-.128-.131-.38-.13-.508 0l-.064.067c-.124.128-.165.304-.093.466.066.15.232.27.41.262.158-.006.309-.08.39-.211.104-.17.065-.377-.07-.517M28.609 90.341c-.028-.108-.051-.236-.09-.335-.028-.059-.058-.116-.09-.17-.095-.126-.107-.129-.035-.01-.035-.027-.075-.155-.1-.203-.042-.083-.08-.143-.138-.2-.092-.09-.23-.029-.282.11-.047.125-.058.308-.065.398.015-.023.01-.014-.011.027-.025.062-.04.129-.05.2-.02.13-.01.23 0 .358.03.39.213.703.496.645.239-.048.46-.444.365-.82M21.474 80.442c-1.192 0-1.194 1.788 0 1.788 1.191 0 1.194-1.788 0-1.788M15.194 71.401c-.027-.165-.049-.33-.11-.47-.048-.109-.108-.182-.174-.25-.089-.094-.204-.094-.294 0-.066.068-.126.141-.174.25-.06.14-.083.305-.11.47-.08.494.144.997.431.997.286 0 .511-.503.431-.997M10.737 60.779c-1.192 0-1.194 1.787 0 1.787 1.192 0 1.194-1.787 0-1.787M5.101 52.106c-.158-.149-.363-.228-.578-.24-.147-.032-.298-.036-.45.002-.262.067-.453.285-.488.532-.01.076-.007.147.008.213-.02.103-.016.207.018.31.004.012.012.023.017.036.034.432.52.759.986.647.367-.088.596-.362.717-.683.103-.277-.017-.617-.23-.817M2.633 40.81c-.082-.258-.314-.507-.61-.564-.172-.033-.295-.033-.466 0-.296.057-.529.306-.61.564-.056.174-.071.337-.024.516.028.104.078.201.13.297.28.514 1.193.514 1.473 0 .052-.096.103-.193.13-.297.048-.179.032-.342-.023-.516M1.366 27.005l-.182-.09c-.163-.08-.32-.118-.502-.093-.164.022-.335.09-.451.216-.092.1-.16.218-.202.348-.066.203-.01.424.08.607.03.062.059.123.09.184.125.256.456.437.737.424.226-.01.44-.087.603-.251.156-.155.25-.386.25-.605 0-.285-.158-.61-.423-.74M14.307 8.846c-.025-.18-.102-.375-.247-.5l-.103-.087c-.143-.124-.333-.223-.532-.214-.207.009-.377.08-.533.214l-.102.087c-.11.095-.187.251-.23.384-.063.184-.031.394.044.567.133.305.465.55.82.534.314-.013.615-.163.776-.43.102-.17.133-.363.107-.555"
                                  transform="translate(31 2)"/>
                        </g>
                        <text fill="#212121" font-family="Moranga-Medium, Moranga" font-size="18" font-weight="400">
                            <tspan x="7" y="70">3</tspan>
                        </text>
                    </g>
                </g>
            </g>
        </g>
    </g>
</svg>
