<svg width="16" height="16" viewBox="0 0 16 16" xmlns="http://www.w3.org/2000/svg">
    <g stroke="#A3A5AB" fill="none" fillRule="evenodd" strokeLinecap="round" strokeLinejoin="round">
        <path d="M10.667 8.6v2.8c0 2.333-.934 3.267-3.267 3.267H4.6c-2.333 0-3.267-.934-3.267-3.267V8.6c0-2.333.934-3.267 3.267-3.267h2.8c2.333 0 3.267.934 3.267 3.267z"/>
        <path d="M14.667 4.6v2.8c0 2.333-.934 3.267-3.267 3.267h-.733V8.6c0-2.333-.934-3.267-3.267-3.267H5.333V4.6c0-2.333.934-3.267 3.267-3.267h2.8c2.333 0 3.267.934 3.267 3.267z"/>
    </g>
</svg>
