<svg xmlns="http://www.w3.org/2000/svg" width="82" height="86" viewBox="0 0 82 86">
    <g fill="none" fill-rule="evenodd">
        <g>
            <g>
                <g>
                    <path fill="#FBB7B9" d="M4.634 46.161c-1.188-4.74-.826-10.11 2.115-14.019 2.941-3.909 8.846-5.72 13.017-3.153 2.176 1.34 3.6 3.585 5.418 5.379 1.818 1.792 4.519 3.194 6.881 2.216 2.538-1.05 3.353-4.281 3.132-7.012-.223-2.73-1.13-5.458-.658-8.157.538-3.079 3.01-5.735 6.05-6.5 3.04-.765 6.48.401 8.42 2.856 2.149 2.716 2.658 6.85 5.711 8.491 3.472 1.865 7.868-1.062 9.357-4.702 1.488-3.64 1.108-7.73 1.526-11.639.418-3.91 2.111-8.212 5.819-9.553 3.857-1.394 8.341 1.353 9.838 5.162 1.497 3.808.56 8.197-1.353 11.816-1.912 3.619-4.714 6.676-7.216 9.918-2.193 2.843-4.264 6.243-3.688 9.783.46 2.829 2.528 5.113 4.678 7.013 2.151 1.901 4.529 3.659 5.99 6.127 1.46 2.467 1.723 5.938-.29 7.982-1.949 1.978-5.192 1.889-7.853 1.083-2.66-.807-5.192-2.191-7.968-2.37-2.775-.178-5.99 1.45-6.226 4.212-.23 2.7 2.323 4.7 3.775 6.992 2.453 3.872 1.637 9.274-1.335 12.766-2.971 3.491-7.711 5.176-12.305 5.148-10.102-.062-19.72-7.087-26.318-14.18-3.58-3.85-6.672-8.12-9.503-12.539-2.61-4.074-5.835-8.414-7.014-13.12" transform="translate(-1256 -1812) translate(1256 1680.949) translate(0 131.051)"/>
                    <path fill="#FFC7B3" d="M1.733 73.06c-2.233.29-2.346 3.524-.12 3.869l.055.008c1.853.263 3.71-.345 5.455-1.024 3.387-1.318 6.655-2.94 9.757-4.831 2.435-1.487 6.62-3.589 8.12-6.047-1.59-.283-3.508 1.23-4.833 1.964-2.262 1.252-4.618 2.334-7.041 3.236-3.675 1.367-7.505 2.32-11.393 2.825" transform="translate(-1256 -1812) translate(1256 1680.949) translate(0 131.051)"/>
                    <path fill="#FF7574" d="M56.605 44.483c4.984-4.893 9.146-10.076 12.43-15.51C74.3 20.269 77.328 10.8 77.898 1.56c-.327-.21-.664-.398-1.012-.56-.479 9.227-3.468 18.713-8.738 27.43-3.851 6.37-8.926 12.393-15.142 18.008-5.345-9.302-7.967-20.274-7.63-31.081-.339-.104-.683-.187-1.033-.246-.387 11.143 2.321 22.468 7.87 32.038-3.18 2.811-6.646 5.52-10.398 8.11-4.839 3.343-9.904 6.338-14.953 9.06.004-.101-.013-.204-.07-.295-6.644-10.57-10.007-23.28-9.737-35.84-.343-.04-.69-.054-1.038-.053-.28 12.774 3.138 25.702 9.895 36.452.027.042.059.08.095.112.02.018.046.03.07.044-2.506 1.338-5.001 2.605-7.462 3.818.222.278.444.557.67.832 4.54-2.24 9.196-4.673 13.798-7.364.029.064.069.124.123.173l.032.026C41.847 68.796 52.161 72.863 62.86 74c.009-.353-.002-.703-.026-1.053-10.408-1.13-20.437-5.089-28.833-11.459 2.842-1.686 5.657-3.47 8.4-5.365 3.86-2.664 7.417-5.453 10.678-8.349.027-.01.055-.016.082-.032.084-.05.141-.125.184-.206.848-.76 1.68-1.524 2.486-2.298 7.844 4.778 16.24 8.398 25.04 10.81.071-.342.114-.693.129-1.05-8.566-2.363-16.744-5.884-24.395-10.515M54.558 84.232c-4.243 1.101-8.92.36-12.628-1.999-3.05-1.94-5.364-4.84-8.07-7.247-2.707-2.406-6.165-4.407-9.733-3.91-.734.102-1.457.338-2.127.679l.001.001C28.525 78.882 38.032 85.937 48.02 86c3.539.022 7.162-1.006 9.981-3.119-1.092.581-2.246 1.04-3.442 1.351M14.985 65c1.52-1.338 2.385-3.455 1.862-5.409-.625-2.325-2.823-3.778-4.588-5.402-3.972-3.654-6.223-9.136-5.976-14.554.158-3.432 1.316-6.8 3.234-9.635-1.067.696-2.021 1.57-2.777 2.586-2.931 3.944-3.293 9.363-2.108 14.146 1.175 4.75 4.39 9.128 6.992 13.24 1.078 1.703 2.195 3.384 3.361 5.028" transform="translate(-1256 -1812) translate(1256 1680.949) translate(0 131.051)"/>
                    <path fill="#FF7574" d="M56.508 67.512c1.926 1.337 4.084 2.28 6.086 3.488-.234-.805-.565-1.58-1.004-2.303-1.437-2.366-3.966-4.43-3.738-7.22.232-2.85 3.417-4.53 6.166-4.347 2.748.184 5.256 1.614 7.891 2.446 2.344.74 5.143.891 7.091-.521-1.46-.225-2.876-.604-4.284-1.156-2.832-1.112-5.495-2.654-8.343-3.718-2.848-1.066-5.999-1.637-8.897-.73-2.898.909-5.423 3.597-5.475 6.74-.05 3.023 2.088 5.642 4.507 7.321M24.68 34.491c-1.855-1.75-3.306-3.94-5.525-5.246-.05-.03-.104-.052-.155-.08.151.462.29.926.416 1.39.74 2.72 1.18 5.532 2.308 8.127 1.129 2.595 3.1 5.031 5.886 5.944 3.138 1.029 6.783-.154 9.054-2.46 2.27-2.307 3.287-5.55 3.334-8.714.048-3.164-.793-6.28-1.829-9.286-.648-1.882-1.387-3.814-1.202-5.788.048-.513.164-.964.327-1.378-1.583 1.208-2.73 2.948-3.078 4.856-.48 2.633.444 5.294.67 7.957.226 2.664-.605 5.815-3.192 6.84-2.408.955-5.161-.413-7.015-2.162" transform="translate(-1256 -1812) translate(1256 1680.949) translate(0 131.051)"/>
                </g>
            </g>
        </g>
    </g>
</svg>
