<svg width="28" height="28" viewBox="0 0 28 28" xmlns="http://www.w3.org/2000/svg">
    <g fill="none" fillRule="evenodd">
        <path stroke="#73757C" strokeWidth="1.5" strokeLinecap="round" d="M1.75 14h24.5"/>
        <path d="M14 6.125a7.875 7.875 0 1 1 0 15.75 7.875 7.875 0 0 1 0-15.75z"/>
        <path d="M14 6.125a7.875 7.875 0 1 1 0 15.75 7.875 7.875 0 0 1 0-15.75z" fill="#34CAA7" fillRule="nonzero"/>
        <path d="M14 6.125a7.875 7.875 0 1 1 0 15.75 7.875 7.875 0 0 1 0-15.75z"/>
        <path d="M14 7.125c1.898 0 3.617.77 4.861 2.014A6.853 6.853 0 0 1 20.875 14c0 1.898-.77 3.617-2.014 4.861A6.853 6.853 0 0 1 14 20.875a6.853 6.853 0 0 1-4.861-2.014A6.853 6.853 0 0 1 7.125 14c0-1.898.77-3.617 2.014-4.861A6.853 6.853 0 0 1 14 7.125z" stroke="#FFF" strokeWidth="2"/>
        <circle fill="#FFF" cx="14" cy="14" r="1.75"/>
    </g>
</svg>
