<svg width="30" height="26" viewBox="0 0 30 26" xmlns="http://www.w3.org/2000/svg">
    <g fill="none" fillRule="evenodd">
        <path fill="#E17726" d="m18.711 3.461-2.034 4.727L27.615.168z"/>
        <path stroke="#E17726" strokeWidth=".25" strokeLinecap="round" strokeLinejoin="round" d="m27.615.167-10.938 8.02 2.034-4.726z"/>
        <path fill="#E27625" d="M13.226 8.262 11.29 3.461 2.385.167z"/>
        <path stroke="#E27625" strokeWidth=".25" strokeLinecap="round" strokeLinejoin="round" d="m2.385.167 10.841 8.095-1.937-4.8z"/>
        <path fill="#E27625" d="m20.767 23.17 6.232 1.7 1.785-6.01-5.106-.095z"/>
        <path stroke="#E27625" strokeWidth=".25" strokeLinecap="round" strokeLinejoin="round" d="m23.677 18.764-2.91 4.406 6.232 1.7 1.785-6.01z"/>
        <path fill="#E27625" d="m1.227 18.86 1.775 6.01 6.22-1.7-2.9-4.405z"/>
        <path stroke="#E27625" strokeWidth=".25" strokeLinecap="round" strokeLinejoin="round" d="m1.227 18.86 1.775 6.01 6.22-1.7-2.899-4.405z"/>
        <path fill="#E27625" d="M8.887 11.32 7.156 13.91l6.167.278-.206-6.577z"/>
        <path stroke="#E27625" strokeWidth=".25" strokeLinecap="round" strokeLinejoin="round" d="m8.887 11.321-1.731 2.588 6.167.278-.206-6.577z"/>
        <path fill="#E27625" d="m16.677 14.187 6.166-.278-1.73-2.588-4.296-3.786z"/>
        <path stroke="#E27625" strokeWidth=".25" strokeLinecap="round" strokeLinejoin="round" d="m21.113 11.321-4.295-3.786-.141 6.652 6.167-.278z"/>
        <path fill="#E27625" d="m9.223 23.17 3.732-1.787-3.213-2.48z"/>
        <path stroke="#E27625" strokeWidth=".25" strokeLinecap="round" strokeLinejoin="round" d="m9.223 23.17 3.733-1.786-3.214-2.48z"/>
        <path fill="#E27625" d="m17.045 21.384 3.721 1.787-.508-4.267z"/>
        <path stroke="#E27625" strokeWidth=".25" strokeLinecap="round" strokeLinejoin="round" d="m17.045 21.384 3.722 1.786-.51-4.267z"/>
        <path fill="#D5BFB2" d="m17.348 23.78-.033 1.016 3.451-1.626-3.72-1.785z"/>
        <path stroke="#D5BFB2" strokeWidth=".25" strokeLinecap="round" strokeLinejoin="round" d="m20.767 23.17-3.722-1.785.303 2.394-.032 1.017z"/>
        <path fill="#D5BFB2" d="m9.223 23.17 3.461 1.626-.021-1.016.292-2.396z"/>
        <path stroke="#D5BFB2" strokeWidth=".25" strokeLinecap="round" strokeLinejoin="round" d="m9.223 23.17 3.462 1.626-.022-1.017.293-2.394z"/>
        <path fill="#233447" d="m9.655 16.423 3.094.898-.908-1.894z"/>
        <path stroke="#233447" strokeWidth=".25" strokeLinecap="round" strokeLinejoin="round" d="m12.75 17.32-3.095-.898 2.186-.994z"/>
        <path fill="#233447" d="m17.25 17.32 3.105-.898-2.195-.995z"/>
        <path stroke="#233447" strokeWidth=".25" strokeLinecap="round" strokeLinejoin="round" d="m17.25 17.32.91-1.892 2.196.994z"/>
        <path fill="#CC6228" d="m6.323 18.86 2.9 4.31.54-4.405z"/>
        <path stroke="#CC6228" strokeWidth=".25" strokeLinecap="round" strokeLinejoin="round" d="m9.223 23.17.54-4.405-3.44.095z"/>
        <path fill="#CC6228" d="m20.767 23.17 2.911-4.31-3.442-.095z"/>
        <path stroke="#CC6228" strokeWidth=".25" strokeLinecap="round" strokeLinejoin="round" d="m20.236 18.764.53 4.406 2.91-4.31z"/>
        <path fill="#CC6228" d="m16.677 14.187.574 3.133.908-1.892 2.196.993 2.488-2.512z"/>
        <path stroke="#CC6228" strokeWidth=".25" strokeLinecap="round" strokeLinejoin="round" d="m22.844 13.909-6.168.278.574 3.133.909-1.892 2.197.994z"/>
        <path fill="#CC6228" d="m9.655 16.422 2.186-.994.908 1.893.574-3.133-6.168-.278z"/>
        <path stroke="#CC6228" strokeWidth=".25" strokeLinecap="round" strokeLinejoin="round" d="m9.655 16.422 2.186-.994.909 1.892.573-3.133-6.167-.278z"/>
        <path fill="#E27525" d="m9.742 18.903-.087-2.481-2.499-2.513z"/>
        <path stroke="#E27525" strokeWidth=".25" strokeLinecap="round" strokeLinejoin="round" d="m7.156 13.909 2.587 4.995-.088-2.482z"/>
        <path fill="#E27525" d="m20.355 16.422-.096 2.48 2.586-4.992z"/>
        <path stroke="#E27525" strokeWidth=".25" strokeLinecap="round" strokeLinejoin="round" d="m20.356 16.422-.097 2.481 2.585-4.994z"/>
        <path fill="#E27525" d="m12.75 17.32.725 3.7.163-4.876-.315-1.956z"/>
        <path stroke="#E27525" strokeWidth=".25" strokeLinecap="round" strokeLinejoin="round" d="m13.323 14.187-.574 3.133.726 3.7.162-4.875z"/>
        <path fill="#E27525" d="m16.374 16.134.152 4.886.725-3.699-.574-3.134z"/>
        <path stroke="#E27525" strokeWidth=".25" strokeLinecap="round" strokeLinejoin="round" d="m16.677 14.187-.302 1.947.15 4.887.726-3.701z"/>
        <path fill="#F5841F" d="m17.25 17.32-.725 3.701.52.363 3.213-2.48.097-2.482z"/>
        <path stroke="#F5841F" strokeWidth=".25" strokeLinecap="round" strokeLinejoin="round" d="m17.25 17.32-.724 3.701.519.364 3.214-2.481.097-2.482z"/>
        <path fill="#F5841F" d="m9.742 18.903 3.212 2.48.52-.362-.724-3.7-3.095-.898z"/>
        <path stroke="#F5841F" strokeWidth=".25" strokeLinecap="round" strokeLinejoin="round" d="m9.655 16.422.086 2.482 3.214 2.48.52-.363-.725-3.7z"/>
        <path fill="#C0AC9D" d="m17.315 24.795.033-1.015-.281-.236h-4.134l-.27.236.021 1.015-3.461-1.625 1.211.984 2.456 1.68H17.1l2.467-1.68 1.2-.984z"/>
        <path stroke="#C0AC9D" strokeWidth=".25" strokeLinecap="round" strokeLinejoin="round" d="m17.315 24.796.033-1.016-.281-.235h-4.134l-.27.235.022 1.016-3.462-1.626 1.211.984 2.456 1.679h4.21l2.466-1.68 1.2-.983z"/>
        <path fill="#161616" d="m13.475 21.021-.52.363-.292 2.396.27-.236h4.134l.28.236-.302-2.396-.52-.363z"/>
        <path stroke="#161616" strokeWidth=".25" strokeLinecap="round" strokeLinejoin="round" d="m17.045 21.384-.519-.363h-3.051l-.52.363-.292 2.396.271-.236h4.132l.281.236z"/>
        <path fill="#763E1A" d="m17.045 7.92 4.068 3.4 5.744 1.658 1.268-1.464-.553-.396.875-.791-.67-.513.876-.664-.571-.438L29 4.285 27.615.167z"/>
        <path stroke="#763E1A" strokeWidth=".25" strokeLinecap="round" strokeLinejoin="round" d="M28.08 8.712 29 4.285 27.615.167 17.045 7.92l4.068 3.4 5.745 1.659 1.266-1.465-.552-.396.877-.791-.671-.513.876-.664z"/>
        <path fill="#763E1A" d="m1 4.285.932 4.426-.596.439.886.663-.67.514.876.791-.551.396 1.266 1.464 5.744-1.657 4.068-3.401L2.385.167z"/>
        <path stroke="#763E1A" strokeWidth=".25" strokeLinecap="round" strokeLinejoin="round" d="m1 4.284.93 4.427-.594.439.886.663-.67.513.876.792-.552.396 1.267 1.464 5.744-1.656 4.069-3.401L2.385.167z"/>
        <path fill="#F5841F" d="m22.845 13.91-2.587 4.994 3.42-.043h5.106l-1.926-5.883-5.745-1.657z"/>
        <path stroke="#F5841F" strokeWidth=".25" strokeLinecap="round" strokeLinejoin="round" d="m26.858 12.979-5.745-1.658 1.731 2.588-2.586 4.994 3.42-.042h5.106z"/>
        <path fill="#F5841F" d="M3.142 12.978 1.227 18.86h5.095l3.42.043-2.586-4.994 1.731-2.589z"/>
        <path stroke="#F5841F" strokeWidth=".25" strokeLinecap="round" strokeLinejoin="round" d="m8.887 11.321-5.745 1.658-1.915 5.882h5.097l3.418.042-2.586-4.994z"/>
        <path fill="#F5841F" d="m11.289 3.461 1.666 4.46.368 6.266.141 1.968.01 4.866h3.051l.01-4.866.142-1.968.368-6.267 1.666-4.459z"/>
        <path stroke="#F5841F" strokeWidth=".25" strokeLinecap="round" strokeLinejoin="round" d="m16.677 14.187.368-6.267 1.666-4.459h-7.422l1.666 4.459.368 6.267.141 1.968.01 4.866h3.051l.01-4.866z"/>
    </g>
</svg>
